SplineFontDB: 3.0
FontName: AlAbdali8
FullName: Al Abdali 8
FamilyName: Al Abdali 8
Weight: Regular
Copyright: Copyright (c) Yanone, 2005. All rights reserved.
Version: 001.000
ItalicAngle: 0
UnderlinePosition: -478
UnderlineWidth: 20
Ascent: 800
Descent: 200
sfntRevision: 0x00010000
LayerCount: 2
Layer: 0 0 "Back"  1
Layer: 1 0 "Fore"  0
XUID: [1021 398 194582295 15291640]
FSType: 0
OS2Version: 2
OS2_WeightWidthSlopeOnly: 0
OS2_UseTypoMetrics: 1
CreationTime: 1108069885
ModificationTime: 1315114322
PfmFamily: 17
TTFWeight: 400
TTFWidth: 5
LineGap: 66
VLineGap: 0
Panose: 2 0 5 0 0 0 0 2 0 4
OS2TypoAscent: 1000
OS2TypoAOffset: 0
OS2TypoDescent: -116
OS2TypoDOffset: 0
OS2TypoLinegap: 66
OS2WinAscent: 0
OS2WinAOffset: 1
OS2WinDescent: 0
OS2WinDOffset: 1
HheadAscent: 1000
HheadAOffset: 0
HheadDescent: -116
HheadDOffset: 0
OS2FamilyClass: 2560
OS2Vendor: 'Alts'
Lookup: 258 0 0 "'kern' Horizontal Kerning in Latin lookup 0"  {"'kern' Horizontal Kerning in Latin lookup 0 subtable"  } ['kern' ('latn' <'dflt' > ) ]
MarkAttachClasses: 1
DEI: 91125
LangName: 1053 "" "" "Normal" 
LangName: 1034 "" "" "Texto com+APoA-n" 
LangName: 1046 "" "" "Texto Normal" 
LangName: 1044 "" "" "Normal" 
LangName: 1042 "" "" "+vPTRtcy0" 
LangName: 1041 "" "" "+MNcw7DD8MPMA" 
LangName: 1040 "" "" "Normale" 
LangName: 1031 "" "" "Standard" 
LangName: 1036 "" "" "Simple" 
LangName: 1035 "" "" "Plain" 
LangName: 1043 "" "" "Standaard" 
LangName: 1030 "" "" "Almindelig" 
LangName: 1028 "" "" "+XnOa1AAA" 
LangName: 2052 "" "" "+Zm6QGgAA" 
LangName: 1033 "" "" "" "" "" "" "" "Al Abdali 8 is a trademark of Yanone." "Yanone" "Yanone" "" "http://www.yanone.de" "http://www.yanone.de" "Creative Commons +ACIA-BY+ACIA License Version 2" "http://creativecommons.org/licenses/by/2.0/de/" "" "Al Abdali 8" "Regular" "Al Abdali 8" 
Encoding: UnicodeBmp
UnicodeInterp: none
NameList: AGL without afii
DisplaySize: -96
AntiAlias: 1
FitToEm: 1
WinInfo: 64968 12 6
BeginPrivate: 1
BlueScale 7 0.03963
EndPrivate

StartChar: uniFE91
Encoding: 65169 65169 3
Width: 500
Flags: W
LayerCount: 2
Fore
SplineSet
370 370 m 1
 370 255 l 1
 255 255 l 1
 255 370 l 1
 370 370 l 1
370 245 m 1
 370 130 l 1
 255 130 l 1
 255 245 l 1
 370 245 l 1
245 120 m 1
 245 5 l 1
 130 5 l 1
 130 120 l 1
 245 120 l 1
370 -255 m 1
 370 -370 l 1
 255 -370 l 1
 255 -255 l 1
 370 -255 l 1
120 120 m 1
 120 5 l 1
 5 5 l 1
 5 120 l 1
 120 120 l 1
370 -380 m 1
 370 -495 l 1
 255 -495 l 1
 255 -380 l 1
 370 -380 l 1
EndSplineSet
EndChar

StartChar: uniFE97
Encoding: 65175 65175 4
Width: 625
Flags: W
LayerCount: 2
Fore
SplineSet
370 370 m 1
 370 255 l 1
 255 255 l 1
 255 370 l 1
 370 370 l 1
370 245 m 1
 370 130 l 1
 255 130 l 1
 255 245 l 1
 370 245 l 1
245 120 m 1
 245 5 l 1
 130 5 l 1
 130 120 l 1
 245 120 l 1
495 746 m 1
 495 631 l 1
 380 631 l 1
 380 746 l 1
 495 746 l 1
245 746 m 1
 245 631 l 1
 130 631 l 1
 130 746 l 1
 245 746 l 1
120 120 m 1
 120 5 l 1
 5 5 l 1
 5 120 l 1
 120 120 l 1
245 871 m 1
 245 756 l 1
 130 756 l 1
 130 871 l 1
 245 871 l 1
495 871 m 1
 495 756 l 1
 380 756 l 1
 380 871 l 1
 495 871 l 1
EndSplineSet
EndChar

StartChar: uniFE9B
Encoding: 65179 65179 5
Width: 625
Flags: W
LayerCount: 2
Fore
SplineSet
370 370 m 1
 370 255 l 1
 255 255 l 1
 255 370 l 1
 370 370 l 1
370 245 m 1
 370 130 l 1
 255 130 l 1
 255 245 l 1
 370 245 l 1
245 120 m 1
 245 5 l 1
 130 5 l 1
 130 120 l 1
 245 120 l 1
120 120 m 1
 120 5 l 1
 5 5 l 1
 5 120 l 1
 120 120 l 1
370 995 m 1
 370 880 l 1
 255 880 l 1
 255 995 l 1
 370 995 l 1
245 870 m 1
 245 755 l 1
 130 755 l 1
 130 870 l 1
 245 870 l 1
245 745 m 1
 245 630 l 1
 130 630 l 1
 130 745 l 1
 245 745 l 1
495 870 m 1
 495 755 l 1
 380 755 l 1
 380 870 l 1
 495 870 l 1
495 745 m 1
 495 630 l 1
 380 630 l 1
 380 745 l 1
 495 745 l 1
EndSplineSet
EndChar

StartChar: uniFE9F
Encoding: 65183 65183 6
Width: 750
Flags: W
LayerCount: 2
Fore
SplineSet
370 -255 m 1
 370 -370 l 1
 255 -370 l 1
 255 -255 l 1
 370 -255 l 1
370 -380 m 1
 370 -495 l 1
 255 -495 l 1
 255 -380 l 1
 370 -380 l 1
619 120 m 1
 619 5 l 1
 504 5 l 1
 504 120 l 1
 619 120 l 1
120 120 m 1
 120 5 l 1
 5 5 l 1
 5 120 l 1
 120 120 l 1
244 120 m 1
 244 5 l 1
 129 5 l 1
 129 120 l 1
 244 120 l 1
369 120 m 1
 369 5 l 1
 254 5 l 1
 254 120 l 1
 369 120 l 1
494 120 m 1
 494 5 l 1
 379 5 l 1
 379 120 l 1
 494 120 l 1
245 495 m 1
 245 380 l 1
 130 380 l 1
 130 495 l 1
 245 495 l 1
370 495 m 1
 370 380 l 1
 255 380 l 1
 255 495 l 1
 370 495 l 1
495 370 m 1
 495 255 l 1
 380 255 l 1
 380 370 l 1
 495 370 l 1
495 245 m 1
 495 130 l 1
 380 130 l 1
 380 245 l 1
 495 245 l 1
EndSplineSet
EndChar

StartChar: uniFEA3
Encoding: 65187 65187 7
Width: 750
Flags: W
LayerCount: 2
Fore
SplineSet
620 120 m 1
 620 5 l 1
 505 5 l 1
 505 120 l 1
 620 120 l 1
120 120 m 1
 120 5 l 1
 5 5 l 1
 5 120 l 1
 120 120 l 1
245 120 m 1
 245 5 l 1
 130 5 l 1
 130 120 l 1
 245 120 l 1
370 120 m 1
 370 5 l 1
 255 5 l 1
 255 120 l 1
 370 120 l 1
495 120 m 1
 495 5 l 1
 380 5 l 1
 380 120 l 1
 495 120 l 1
244 495 m 1
 244 380 l 1
 129 380 l 1
 129 495 l 1
 244 495 l 1
369 495 m 1
 369 380 l 1
 254 380 l 1
 254 495 l 1
 369 495 l 1
495 370 m 1
 495 255 l 1
 380 255 l 1
 380 370 l 1
 495 370 l 1
495 245 m 1
 495 130 l 1
 380 130 l 1
 380 245 l 1
 495 245 l 1
EndSplineSet
EndChar

StartChar: uniFEA7
Encoding: 65191 65191 8
Width: 749
Flags: W
LayerCount: 2
Fore
SplineSet
370 870 m 1
 370 755 l 1
 255 755 l 1
 255 870 l 1
 370 870 l 1
370 995 m 1
 370 880 l 1
 255 880 l 1
 255 995 l 1
 370 995 l 1
619 120 m 1
 619 5 l 1
 504 5 l 1
 504 120 l 1
 619 120 l 1
120 120 m 1
 120 5 l 1
 5 5 l 1
 5 120 l 1
 120 120 l 1
244 120 m 1
 244 5 l 1
 129 5 l 1
 129 120 l 1
 244 120 l 1
369 120 m 1
 369 5 l 1
 254 5 l 1
 254 120 l 1
 369 120 l 1
494 120 m 1
 494 5 l 1
 379 5 l 1
 379 120 l 1
 494 120 l 1
245 495 m 1
 245 380 l 1
 130 380 l 1
 130 495 l 1
 245 495 l 1
370 495 m 1
 370 380 l 1
 255 380 l 1
 255 495 l 1
 370 495 l 1
495 370 m 1
 495 255 l 1
 380 255 l 1
 380 370 l 1
 495 370 l 1
495 245 m 1
 495 130 l 1
 380 130 l 1
 380 245 l 1
 495 245 l 1
EndSplineSet
EndChar

StartChar: uniFEB3
Encoding: 65203 65203 9
Width: 875
Flags: W
LayerCount: 2
Fore
SplineSet
120 120 m 1
 120 5 l 1
 5 5 l 1
 5 120 l 1
 120 120 l 1
245 120 m 1
 245 5 l 1
 130 5 l 1
 130 120 l 1
 245 120 l 1
370 120 m 1
 370 5 l 1
 255 5 l 1
 255 120 l 1
 370 120 l 1
245 245 m 1
 245 130 l 1
 130 130 l 1
 130 245 l 1
 245 245 l 1
245 370 m 1
 245 255 l 1
 130 255 l 1
 130 370 l 1
 245 370 l 1
495 120 m 1
 495 5 l 1
 380 5 l 1
 380 120 l 1
 495 120 l 1
620 120 m 1
 620 5 l 1
 505 5 l 1
 505 120 l 1
 620 120 l 1
495 245 m 1
 495 130 l 1
 380 130 l 1
 380 245 l 1
 495 245 l 1
495 370 m 1
 495 255 l 1
 380 255 l 1
 380 370 l 1
 495 370 l 1
745 245 m 1
 745 130 l 1
 630 130 l 1
 630 245 l 1
 745 245 l 1
745 370 m 1
 745 255 l 1
 630 255 l 1
 630 370 l 1
 745 370 l 1
EndSplineSet
EndChar

StartChar: uniFEB7
Encoding: 65207 65207 10
Width: 875
Flags: W
LayerCount: 2
Fore
SplineSet
120 120 m 1
 120 5 l 1
 5 5 l 1
 5 120 l 1
 120 120 l 1
245 120 m 1
 245 5 l 1
 130 5 l 1
 130 120 l 1
 245 120 l 1
370 120 m 1
 370 5 l 1
 255 5 l 1
 255 120 l 1
 370 120 l 1
245 245 m 1
 245 130 l 1
 130 130 l 1
 130 245 l 1
 245 245 l 1
245 370 m 1
 245 255 l 1
 130 255 l 1
 130 370 l 1
 245 370 l 1
495 120 m 1
 495 5 l 1
 380 5 l 1
 380 120 l 1
 495 120 l 1
620 120 m 1
 620 5 l 1
 505 5 l 1
 505 120 l 1
 620 120 l 1
495 245 m 1
 495 130 l 1
 380 130 l 1
 380 245 l 1
 495 245 l 1
495 370 m 1
 495 255 l 1
 380 255 l 1
 380 370 l 1
 495 370 l 1
745 245 m 1
 745 130 l 1
 630 130 l 1
 630 245 l 1
 745 245 l 1
745 370 m 1
 745 255 l 1
 630 255 l 1
 630 370 l 1
 745 370 l 1
495 995 m 1
 495 880 l 1
 380 880 l 1
 380 995 l 1
 495 995 l 1
370 870 m 1
 370 755 l 1
 255 755 l 1
 255 870 l 1
 370 870 l 1
370 745 m 1
 370 630 l 1
 255 630 l 1
 255 745 l 1
 370 745 l 1
620 870 m 1
 620 755 l 1
 505 755 l 1
 505 870 l 1
 620 870 l 1
620 745 m 1
 620 630 l 1
 505 630 l 1
 505 745 l 1
 620 745 l 1
EndSplineSet
EndChar

StartChar: uniFEC3
Encoding: 65219 65219 11
Width: 875
Flags: W
LayerCount: 2
Fore
SplineSet
120 120 m 1
 120 5 l 1
 5 5 l 1
 5 120 l 1
 120 120 l 1
370 120 m 1
 370 5 l 1
 255 5 l 1
 255 120 l 1
 370 120 l 1
245 120 m 1
 245 5 l 1
 130 5 l 1
 130 120 l 1
 245 120 l 1
495 120 m 1
 495 5 l 1
 380 5 l 1
 380 120 l 1
 495 120 l 1
370 245 m 1
 370 130 l 1
 255 130 l 1
 255 245 l 1
 370 245 l 1
370 370 m 1
 370 255 l 1
 255 255 l 1
 255 370 l 1
 370 370 l 1
370 495 m 1
 370 380 l 1
 255 380 l 1
 255 495 l 1
 370 495 l 1
370 620 m 1
 370 505 l 1
 255 505 l 1
 255 620 l 1
 370 620 l 1
620 120 m 1
 620 5 l 1
 505 5 l 1
 505 120 l 1
 620 120 l 1
495 495 m 1
 495 380 l 1
 380 380 l 1
 380 495 l 1
 495 495 l 1
620 495 m 1
 620 380 l 1
 505 380 l 1
 505 495 l 1
 620 495 l 1
745 370 m 1
 745 255 l 1
 630 255 l 1
 630 370 l 1
 745 370 l 1
370 745 m 1
 370 630 l 1
 255 630 l 1
 255 745 l 1
 370 745 l 1
745 245 m 1
 745 130 l 1
 630 130 l 1
 630 245 l 1
 745 245 l 1
EndSplineSet
EndChar

StartChar: uniFEC7
Encoding: 65223 65223 12
Width: 875
Flags: W
LayerCount: 2
Fore
SplineSet
120 120 m 1
 120 5 l 1
 5 5 l 1
 5 120 l 1
 120 120 l 1
370 120 m 1
 370 5 l 1
 255 5 l 1
 255 120 l 1
 370 120 l 1
245 120 m 1
 245 5 l 1
 130 5 l 1
 130 120 l 1
 245 120 l 1
495 120 m 1
 495 5 l 1
 380 5 l 1
 380 120 l 1
 495 120 l 1
370 245 m 1
 370 130 l 1
 255 130 l 1
 255 245 l 1
 370 245 l 1
370 370 m 1
 370 255 l 1
 255 255 l 1
 255 370 l 1
 370 370 l 1
370 495 m 1
 370 380 l 1
 255 380 l 1
 255 495 l 1
 370 495 l 1
370 620 m 1
 370 505 l 1
 255 505 l 1
 255 620 l 1
 370 620 l 1
620 120 m 1
 620 5 l 1
 505 5 l 1
 505 120 l 1
 620 120 l 1
495 495 m 1
 495 380 l 1
 380 380 l 1
 380 495 l 1
 495 495 l 1
620 495 m 1
 620 380 l 1
 505 380 l 1
 505 495 l 1
 620 495 l 1
745 370 m 1
 745 255 l 1
 630 255 l 1
 630 370 l 1
 745 370 l 1
370 745 m 1
 370 630 l 1
 255 630 l 1
 255 745 l 1
 370 745 l 1
745 245 m 1
 745 130 l 1
 630 130 l 1
 630 245 l 1
 745 245 l 1
620 995 m 1
 620 880 l 1
 505 880 l 1
 505 995 l 1
 620 995 l 1
620 870 m 1
 620 755 l 1
 505 755 l 1
 505 870 l 1
 620 870 l 1
EndSplineSet
EndChar

StartChar: uniFECB
Encoding: 65227 65227 13
Width: 750
Flags: W
LayerCount: 2
Fore
SplineSet
120 120 m 1
 120 5 l 1
 5 5 l 1
 5 120 l 1
 120 120 l 1
245 120 m 1
 245 5 l 1
 130 5 l 1
 130 120 l 1
 245 120 l 1
370 120 m 1
 370 5 l 1
 255 5 l 1
 255 120 l 1
 370 120 l 1
495 120 m 1
 495 5 l 1
 380 5 l 1
 380 120 l 1
 495 120 l 1
620 120 m 1
 620 5 l 1
 505 5 l 1
 505 120 l 1
 620 120 l 1
380 495 m 1
 495 495 l 1
 495 380 l 1
 380 380 l 1
 380 495 l 1
255 495 m 1
 370 495 l 1
 370 380 l 1
 255 380 l 1
 255 495 l 1
130 370 m 1
 245 370 l 1
 245 255 l 1
 130 255 l 1
 130 370 l 1
130 245 m 1
 245 245 l 1
 245 130 l 1
 130 130 l 1
 130 245 l 1
EndSplineSet
EndChar

StartChar: uniFECF
Encoding: 65231 65231 14
Width: 750
Flags: W
LayerCount: 2
Fore
SplineSet
120 120 m 1
 120 5 l 1
 5 5 l 1
 5 120 l 1
 120 120 l 1
244 120 m 1
 244 5 l 1
 129 5 l 1
 129 120 l 1
 244 120 l 1
370 120 m 1
 370 5 l 1
 255 5 l 1
 255 120 l 1
 370 120 l 1
495 120 m 1
 495 5 l 1
 380 5 l 1
 380 120 l 1
 495 120 l 1
620 120 m 1
 620 5 l 1
 505 5 l 1
 505 120 l 1
 620 120 l 1
380 495 m 1
 495 495 l 1
 495 380 l 1
 380 380 l 1
 380 495 l 1
255 495 m 1
 370 495 l 1
 370 380 l 1
 255 380 l 1
 255 495 l 1
130 370 m 1
 245 370 l 1
 245 255 l 1
 130 255 l 1
 130 370 l 1
130 245 m 1
 245 245 l 1
 245 130 l 1
 130 130 l 1
 130 245 l 1
369 995 m 1
 369 880 l 1
 254 880 l 1
 254 995 l 1
 369 995 l 1
369 870 m 1
 369 755 l 1
 254 755 l 1
 254 870 l 1
 369 870 l 1
EndSplineSet
EndChar

StartChar: uniFED3
Encoding: 65235 65235 15
Width: 750
Flags: W
LayerCount: 2
Fore
SplineSet
120 120 m 1
 120 5 l 1
 5 5 l 1
 5 120 l 1
 120 120 l 1
370 120 m 1
 370 5 l 1
 255 5 l 1
 255 120 l 1
 370 120 l 1
245 120 m 1
 245 5 l 1
 130 5 l 1
 130 120 l 1
 245 120 l 1
495 120 m 1
 495 5 l 1
 380 5 l 1
 380 120 l 1
 495 120 l 1
620 245 m 1
 620 130 l 1
 505 130 l 1
 505 245 l 1
 620 245 l 1
620 370 m 1
 620 255 l 1
 505 255 l 1
 505 370 l 1
 620 370 l 1
620 495 m 1
 620 380 l 1
 505 380 l 1
 505 495 l 1
 620 495 l 1
495 370 m 1
 495 255 l 1
 380 255 l 1
 380 370 l 1
 495 370 l 1
370 370 m 1
 370 255 l 1
 255 255 l 1
 255 370 l 1
 370 370 l 1
245 495 m 1
 245 380 l 1
 130 380 l 1
 130 495 l 1
 245 495 l 1
370 620 m 1
 370 505 l 1
 255 505 l 1
 255 620 l 1
 370 620 l 1
495 620 m 1
 495 505 l 1
 380 505 l 1
 380 620 l 1
 495 620 l 1
370 870 m 1
 370 755 l 1
 255 755 l 1
 255 870 l 1
 370 870 l 1
370 995 m 1
 370 880 l 1
 255 880 l 1
 255 995 l 1
 370 995 l 1
EndSplineSet
EndChar

StartChar: uniFED7
Encoding: 65239 65239 16
Width: 750
Flags: W
LayerCount: 2
Fore
SplineSet
120 120 m 1
 120 5 l 1
 5 5 l 1
 5 120 l 1
 120 120 l 1
370 120 m 1
 370 5 l 1
 255 5 l 1
 255 120 l 1
 370 120 l 1
245 120 m 1
 245 5 l 1
 130 5 l 1
 130 120 l 1
 245 120 l 1
495 120 m 1
 495 5 l 1
 380 5 l 1
 380 120 l 1
 495 120 l 1
620 245 m 1
 620 130 l 1
 505 130 l 1
 505 245 l 1
 620 245 l 1
620 370 m 1
 620 255 l 1
 505 255 l 1
 505 370 l 1
 620 370 l 1
620 495 m 1
 620 380 l 1
 505 380 l 1
 505 495 l 1
 620 495 l 1
495 370 m 1
 495 255 l 1
 380 255 l 1
 380 370 l 1
 495 370 l 1
370 370 m 1
 370 255 l 1
 255 255 l 1
 255 370 l 1
 370 370 l 1
245 495 m 1
 245 380 l 1
 130 380 l 1
 130 495 l 1
 245 495 l 1
370 620 m 1
 370 505 l 1
 255 505 l 1
 255 620 l 1
 370 620 l 1
495 620 m 1
 495 505 l 1
 380 505 l 1
 380 620 l 1
 495 620 l 1
245 870 m 1
 245 755 l 1
 130 755 l 1
 130 870 l 1
 245 870 l 1
245 995 m 1
 245 880 l 1
 130 880 l 1
 130 995 l 1
 245 995 l 1
495 870 m 1
 495 755 l 1
 380 755 l 1
 380 870 l 1
 495 870 l 1
495 995 m 1
 495 880 l 1
 380 880 l 1
 380 995 l 1
 495 995 l 1
EndSplineSet
EndChar

StartChar: uniFEDB
Encoding: 65243 65243 17
Width: 625
Flags: W
LayerCount: 2
Fore
SplineSet
370 370 m 1
 370 255 l 1
 255 255 l 1
 255 370 l 1
 370 370 l 1
370 120 m 1
 370 5 l 1
 255 5 l 1
 255 120 l 1
 370 120 l 1
245 120 m 1
 245 5 l 1
 130 5 l 1
 130 120 l 1
 245 120 l 1
495 245 m 1
 495 130 l 1
 380 130 l 1
 380 245 l 1
 495 245 l 1
245 495 m 1
 245 380 l 1
 130 380 l 1
 130 495 l 1
 245 495 l 1
120 120 m 1
 120 5 l 1
 5 5 l 1
 5 120 l 1
 120 120 l 1
370 620 m 1
 370 505 l 1
 255 505 l 1
 255 620 l 1
 370 620 l 1
495 745 m 1
 495 630 l 1
 380 630 l 1
 380 745 l 1
 495 745 l 1
EndSplineSet
EndChar

StartChar: uniFEDF
Encoding: 65247 65247 18
Width: 375
Flags: W
LayerCount: 2
Fore
SplineSet
130 245 m 1
 245 245 l 1
 245 130 l 1
 130 130 l 1
 130 245 l 1
130 370 m 1
 245 370 l 1
 245 255 l 1
 130 255 l 1
 130 370 l 1
130 495 m 1
 245 495 l 1
 245 380 l 1
 130 380 l 1
 130 495 l 1
130 745 m 1
 245 745 l 1
 245 630 l 1
 130 630 l 1
 130 745 l 1
130 620 m 1
 245 620 l 1
 245 505 l 1
 130 505 l 1
 130 620 l 1
5 120 m 1
 120 120 l 1
 120 5 l 1
 5 5 l 1
 5 120 l 1
130 871 m 1
 245 871 l 1
 245 756 l 1
 130 756 l 1
 130 871 l 1
130 995 m 1
 245 995 l 1
 245 880 l 1
 130 880 l 1
 130 995 l 1
130 120 m 1
 245 120 l 1
 245 5 l 1
 130 5 l 1
 130 120 l 1
EndSplineSet
EndChar

StartChar: uniFEE3
Encoding: 65251 65251 19
Width: 750
Flags: W
LayerCount: 2
Fore
SplineSet
495 -5 m 1
 495 -120 l 1
 380 -120 l 1
 380 -5 l 1
 495 -5 l 1
495 370 m 1
 495 255 l 1
 380 255 l 1
 380 370 l 1
 495 370 l 1
370 370 m 1
 370 255 l 1
 255 255 l 1
 255 370 l 1
 370 370 l 1
620 120 m 1
 620 5 l 1
 505 5 l 1
 505 120 l 1
 620 120 l 1
245 120 m 1
 245 5 l 1
 130 5 l 1
 130 120 l 1
 245 120 l 1
370 -5 m 1
 370 -120 l 1
 255 -120 l 1
 255 -5 l 1
 370 -5 l 1
120 120 m 1
 120 5 l 1
 5 5 l 1
 5 120 l 1
 120 120 l 1
245 245 m 1
 245 130 l 1
 130 130 l 1
 130 245 l 1
 245 245 l 1
620 245 m 1
 620 130 l 1
 505 130 l 1
 505 245 l 1
 620 245 l 1
EndSplineSet
EndChar

StartChar: uniFEE7
Encoding: 65255 65255 20
Width: 500
Flags: W
LayerCount: 2
Fore
SplineSet
370 370 m 1
 370 255 l 1
 255 255 l 1
 255 370 l 1
 370 370 l 1
370 245 m 1
 370 130 l 1
 255 130 l 1
 255 245 l 1
 370 245 l 1
245 120 m 1
 245 5 l 1
 130 5 l 1
 130 120 l 1
 245 120 l 1
120 120 m 1
 120 5 l 1
 5 5 l 1
 5 120 l 1
 120 120 l 1
370 870 m 1
 370 755 l 1
 255 755 l 1
 255 870 l 1
 370 870 l 1
370 745 m 1
 370 630 l 1
 255 630 l 1
 255 745 l 1
 370 745 l 1
EndSplineSet
EndChar

StartChar: uniFEEB
Encoding: 65259 65259 21
Width: 1000
Flags: W
LayerCount: 2
Fore
SplineSet
620 494 m 1
 620 379 l 1
 505 379 l 1
 505 494 l 1
 620 494 l 1
495 619 m 1
 495 504 l 1
 380 504 l 1
 380 619 l 1
 495 619 l 1
620 120 m 1
 620 5 l 1
 505 5 l 1
 505 120 l 1
 620 120 l 1
245 120 m 1
 245 5 l 1
 130 5 l 1
 130 120 l 1
 245 120 l 1
120 120 m 1
 120 5 l 1
 5 5 l 1
 5 120 l 1
 120 120 l 1
245 494 m 1
 245 379 l 1
 130 379 l 1
 130 494 l 1
 245 494 l 1
495 245 m 1
 495 130 l 1
 380 130 l 1
 380 245 l 1
 495 245 l 1
745 120 m 1
 745 5 l 1
 630 5 l 1
 630 120 l 1
 745 120 l 1
370 245 m 1
 370 130 l 1
 255 130 l 1
 255 245 l 1
 370 245 l 1
370 620 m 1
 370 505 l 1
 255 505 l 1
 255 620 l 1
 370 620 l 1
620 370 m 1
 620 255 l 1
 505 255 l 1
 505 370 l 1
 620 370 l 1
245 370 m 1
 245 255 l 1
 130 255 l 1
 130 370 l 1
 245 370 l 1
870 245 m 1
 870 130 l 1
 755 130 l 1
 755 245 l 1
 870 245 l 1
870 370 m 1
 870 255 l 1
 755 255 l 1
 755 370 l 1
 870 370 l 1
870 495 m 1
 870 380 l 1
 755 380 l 1
 755 495 l 1
 870 495 l 1
870 620 m 1
 870 505 l 1
 755 505 l 1
 755 620 l 1
 870 620 l 1
745 745 m 1
 745 630 l 1
 630 630 l 1
 630 745 l 1
 745 745 l 1
620 870 m 1
 620 755 l 1
 505 755 l 1
 505 870 l 1
 620 870 l 1
495 870 m 1
 495 755 l 1
 380 755 l 1
 380 870 l 1
 495 870 l 1
EndSplineSet
EndChar

StartChar: uniFEF3
Encoding: 65267 65267 22
Width: 625
Flags: W
LayerCount: 2
Fore
SplineSet
495 370 m 1
 495 255 l 1
 380 255 l 1
 380 370 l 1
 495 370 l 1
495 245 m 1
 495 130 l 1
 380 130 l 1
 380 245 l 1
 495 245 l 1
370 120 m 1
 370 5 l 1
 255 5 l 1
 255 120 l 1
 370 120 l 1
495 -255 m 1
 495 -370 l 1
 380 -370 l 1
 380 -255 l 1
 495 -255 l 1
245 -255 m 1
 245 -370 l 1
 130 -370 l 1
 130 -255 l 1
 245 -255 l 1
245 120 m 1
 245 5 l 1
 130 5 l 1
 130 120 l 1
 245 120 l 1
495 -380 m 1
 495 -495 l 1
 380 -495 l 1
 380 -380 l 1
 495 -380 l 1
245 -380 m 1
 245 -495 l 1
 130 -495 l 1
 130 -380 l 1
 245 -380 l 1
120 120 m 1
 120 5 l 1
 5 5 l 1
 5 120 l 1
 120 120 l 1
EndSplineSet
EndChar

StartChar: uniFE8C
Encoding: 65164 65164 23
Width: 625
Flags: W
LayerCount: 2
Fore
SplineSet
370 370 m 1
 370 255 l 1
 255 255 l 1
 255 370 l 1
 370 370 l 1
370 120 m 1
 370 5 l 1
 255 5 l 1
 255 120 l 1
 370 120 l 1
370 245 m 1
 370 130 l 1
 255 130 l 1
 255 245 l 1
 370 245 l 1
245 120 m 1
 245 5 l 1
 130 5 l 1
 130 120 l 1
 245 120 l 1
495 120 m 1
 495 5 l 1
 380 5 l 1
 380 120 l 1
 495 120 l 1
120 120 m 1
 120 5 l 1
 5 5 l 1
 5 120 l 1
 120 120 l 1
620 120 m 1
 620 5 l 1
 505 5 l 1
 505 120 l 1
 620 120 l 1
370 619 m 1
 370 504 l 1
 255 504 l 1
 255 619 l 1
 370 619 l 1
495 620 m 1
 495 505 l 1
 380 505 l 1
 380 620 l 1
 495 620 l 1
370 745 m 1
 370 630 l 1
 255 630 l 1
 255 745 l 1
 370 745 l 1
245 620 m 1
 245 505 l 1
 130 505 l 1
 130 620 l 1
 245 620 l 1
495 870 m 1
 495 755 l 1
 380 755 l 1
 380 870 l 1
 495 870 l 1
EndSplineSet
EndChar

StartChar: uniFE92
Encoding: 65170 65170 24
Width: 625
Flags: W
LayerCount: 2
Fore
SplineSet
245 120 m 1
 245 5 l 1
 130 5 l 1
 130 120 l 1
 245 120 l 1
370 120 m 1
 370 5 l 1
 255 5 l 1
 255 120 l 1
 370 120 l 1
495 120 m 1
 495 5 l 1
 380 5 l 1
 380 120 l 1
 495 120 l 1
370 245 m 1
 370 130 l 1
 255 130 l 1
 255 245 l 1
 370 245 l 1
370 370 m 1
 370 255 l 1
 255 255 l 1
 255 370 l 1
 370 370 l 1
370 -255 m 1
 370 -370 l 1
 255 -370 l 1
 255 -255 l 1
 370 -255 l 1
120 120 m 1
 120 5 l 1
 5 5 l 1
 5 120 l 1
 120 120 l 1
620 120 m 1
 620 5 l 1
 505 5 l 1
 505 120 l 1
 620 120 l 1
370 -380 m 1
 370 -495 l 1
 255 -495 l 1
 255 -380 l 1
 370 -380 l 1
EndSplineSet
EndChar

StartChar: uniFE98
Encoding: 65176 65176 25
Width: 625
Flags: W
LayerCount: 2
Fore
SplineSet
370 370 m 1
 370 255 l 1
 255 255 l 1
 255 370 l 1
 370 370 l 1
370 120 m 1
 370 5 l 1
 255 5 l 1
 255 120 l 1
 370 120 l 1
370 245 m 1
 370 130 l 1
 255 130 l 1
 255 245 l 1
 370 245 l 1
245 120 m 1
 245 5 l 1
 130 5 l 1
 130 120 l 1
 245 120 l 1
495 745 m 1
 495 630 l 1
 380 630 l 1
 380 745 l 1
 495 745 l 1
245 745 m 1
 245 630 l 1
 130 630 l 1
 130 745 l 1
 245 745 l 1
495 120 m 1
 495 5 l 1
 380 5 l 1
 380 120 l 1
 495 120 l 1
120 120 m 1
 120 5 l 1
 5 5 l 1
 5 120 l 1
 120 120 l 1
620 120 m 1
 620 5 l 1
 505 5 l 1
 505 120 l 1
 620 120 l 1
245 870 m 1
 245 755 l 1
 130 755 l 1
 130 870 l 1
 245 870 l 1
495 870 m 1
 495 755 l 1
 380 755 l 1
 380 870 l 1
 495 870 l 1
EndSplineSet
EndChar

StartChar: uniFE9C
Encoding: 65180 65180 26
Width: 625
Flags: W
LayerCount: 2
Fore
SplineSet
370 370 m 1
 370 255 l 1
 255 255 l 1
 255 370 l 1
 370 370 l 1
370 120 m 1
 370 5 l 1
 255 5 l 1
 255 120 l 1
 370 120 l 1
370 245 m 1
 370 130 l 1
 255 130 l 1
 255 245 l 1
 370 245 l 1
245 120 m 1
 245 5 l 1
 130 5 l 1
 130 120 l 1
 245 120 l 1
495 120 m 1
 495 5 l 1
 380 5 l 1
 380 120 l 1
 495 120 l 1
120 120 m 1
 120 5 l 1
 5 5 l 1
 5 120 l 1
 120 120 l 1
620 120 m 1
 620 5 l 1
 505 5 l 1
 505 120 l 1
 620 120 l 1
370 995 m 1
 370 880 l 1
 255 880 l 1
 255 995 l 1
 370 995 l 1
245 870 m 1
 245 755 l 1
 130 755 l 1
 130 870 l 1
 245 870 l 1
245 745 m 1
 245 630 l 1
 130 630 l 1
 130 745 l 1
 245 745 l 1
495 870 m 1
 495 755 l 1
 380 755 l 1
 380 870 l 1
 495 870 l 1
495 745 m 1
 495 630 l 1
 380 630 l 1
 380 745 l 1
 495 745 l 1
EndSplineSet
EndChar

StartChar: uniFEA0
Encoding: 65184 65184 27
Width: 625
Flags: W
LayerCount: 2
Fore
SplineSet
369 -255 m 1
 369 -370 l 1
 254 -370 l 1
 254 -255 l 1
 369 -255 l 1
370 -380 m 1
 370 -495 l 1
 255 -495 l 1
 255 -380 l 1
 370 -380 l 1
620 120 m 1
 620 5 l 1
 505 5 l 1
 505 120 l 1
 620 120 l 1
120 120 m 1
 120 5 l 1
 5 5 l 1
 5 120 l 1
 120 120 l 1
245 120 m 1
 245 5 l 1
 130 5 l 1
 130 120 l 1
 245 120 l 1
370 120 m 1
 370 5 l 1
 255 5 l 1
 255 120 l 1
 370 120 l 1
495 120 m 1
 495 5 l 1
 380 5 l 1
 380 120 l 1
 495 120 l 1
245 495 m 1
 245 380 l 1
 130 380 l 1
 130 495 l 1
 245 495 l 1
370 495 m 1
 370 380 l 1
 255 380 l 1
 255 495 l 1
 370 495 l 1
495 370 m 1
 495 255 l 1
 380 255 l 1
 380 370 l 1
 495 370 l 1
495 245 m 1
 495 130 l 1
 380 130 l 1
 380 245 l 1
 495 245 l 1
EndSplineSet
EndChar

StartChar: uniFEA4
Encoding: 65188 65188 28
Width: 625
Flags: W
LayerCount: 2
Fore
SplineSet
620 120 m 1
 620 5 l 1
 505 5 l 1
 505 120 l 1
 620 120 l 1
120 120 m 1
 120 5 l 1
 5 5 l 1
 5 120 l 1
 120 120 l 1
245 120 m 1
 245 5 l 1
 130 5 l 1
 130 120 l 1
 245 120 l 1
370 120 m 1
 370 5 l 1
 255 5 l 1
 255 120 l 1
 370 120 l 1
495 120 m 1
 495 5 l 1
 380 5 l 1
 380 120 l 1
 495 120 l 1
245 495 m 1
 245 380 l 1
 130 380 l 1
 130 495 l 1
 245 495 l 1
370 495 m 1
 370 380 l 1
 255 380 l 1
 255 495 l 1
 370 495 l 1
496 370 m 1
 496 255 l 1
 381 255 l 1
 381 370 l 1
 496 370 l 1
496 245 m 1
 496 130 l 1
 381 130 l 1
 381 245 l 1
 496 245 l 1
EndSplineSet
EndChar

StartChar: uniFEA8
Encoding: 65192 65192 29
Width: 750
Flags: W
LayerCount: 2
Fore
SplineSet
619 120 m 1
 619 5 l 1
 504 5 l 1
 504 120 l 1
 619 120 l 1
120 120 m 1
 120 5 l 1
 5 5 l 1
 5 120 l 1
 120 120 l 1
244 120 m 1
 244 5 l 1
 129 5 l 1
 129 120 l 1
 244 120 l 1
369 120 m 1
 369 5 l 1
 254 5 l 1
 254 120 l 1
 369 120 l 1
494 120 m 1
 494 5 l 1
 379 5 l 1
 379 120 l 1
 494 120 l 1
245 495 m 1
 245 380 l 1
 130 380 l 1
 130 495 l 1
 245 495 l 1
370 495 m 1
 370 380 l 1
 255 380 l 1
 255 495 l 1
 370 495 l 1
495 370 m 1
 495 255 l 1
 380 255 l 1
 380 370 l 1
 495 370 l 1
370 870 m 1
 370 755 l 1
 255 755 l 1
 255 870 l 1
 370 870 l 1
370 995 m 1
 370 880 l 1
 255 880 l 1
 255 995 l 1
 370 995 l 1
495 245 m 1
 495 130 l 1
 380 130 l 1
 380 245 l 1
 495 245 l 1
EndSplineSet
EndChar

StartChar: uniFEB4
Encoding: 65204 65204 30
Width: 875
Flags: W
LayerCount: 2
Fore
SplineSet
120 120 m 1
 120 5 l 1
 5 5 l 1
 5 120 l 1
 120 120 l 1
245 120 m 1
 245 5 l 1
 130 5 l 1
 130 120 l 1
 245 120 l 1
370 120 m 1
 370 5 l 1
 255 5 l 1
 255 120 l 1
 370 120 l 1
245 245 m 1
 245 130 l 1
 130 130 l 1
 130 245 l 1
 245 245 l 1
245 370 m 1
 245 255 l 1
 130 255 l 1
 130 370 l 1
 245 370 l 1
495 120 m 1
 495 5 l 1
 380 5 l 1
 380 120 l 1
 495 120 l 1
620 120 m 1
 620 5 l 1
 505 5 l 1
 505 120 l 1
 620 120 l 1
495 245 m 1
 495 130 l 1
 380 130 l 1
 380 245 l 1
 495 245 l 1
495 370 m 1
 495 255 l 1
 380 255 l 1
 380 370 l 1
 495 370 l 1
745 120 m 1
 745 5 l 1
 630 5 l 1
 630 120 l 1
 745 120 l 1
870 120 m 1
 870 5 l 1
 755 5 l 1
 755 120 l 1
 870 120 l 1
745 245 m 1
 745 130 l 1
 630 130 l 1
 630 245 l 1
 745 245 l 1
745 370 m 1
 745 255 l 1
 630 255 l 1
 630 370 l 1
 745 370 l 1
EndSplineSet
EndChar

StartChar: uniFC4B
Encoding: 64587 64587 31
Width: 1000
Flags: W
LayerCount: 2
Fore
SplineSet
370 -5 m 1
 370 -120 l 1
 255 -120 l 1
 255 -5 l 1
 370 -5 l 1
620 120 m 1
 620 5 l 1
 505 5 l 1
 505 120 l 1
 620 120 l 1
745 120 m 1
 745 5 l 1
 630 5 l 1
 630 120 l 1
 745 120 l 1
620 -380 m 1
 620 -495 l 1
 505 -495 l 1
 505 -380 l 1
 620 -380 l 1
370 -255 m 1
 370 -370 l 1
 255 -370 l 1
 255 -255 l 1
 370 -255 l 1
495 -380 m 1
 495 -495 l 1
 380 -495 l 1
 380 -380 l 1
 495 -380 l 1
495 120 m 1
 495 5 l 1
 380 5 l 1
 380 120 l 1
 495 120 l 1
745 -130 m 1
 745 -245 l 1
 630 -245 l 1
 630 -130 l 1
 745 -130 l 1
370 120 m 1
 370 5 l 1
 255 5 l 1
 255 120 l 1
 370 120 l 1
245 120 m 1
 245 5 l 1
 130 5 l 1
 130 120 l 1
 245 120 l 1
870 120 m 1
 870 5 l 1
 755 5 l 1
 755 120 l 1
 870 120 l 1
745 -380 m 1
 745 -495 l 1
 630 -495 l 1
 630 -380 l 1
 745 -380 l 1
370 -130 m 1
 370 -245 l 1
 255 -245 l 1
 255 -130 l 1
 370 -130 l 1
620 -130 m 1
 620 -245 l 1
 505 -245 l 1
 505 -130 l 1
 620 -130 l 1
870 -380 m 1
 870 -495 l 1
 755 -495 l 1
 755 -380 l 1
 870 -380 l 1
370 246 m 1
 370 131 l 1
 255 131 l 1
 255 246 l 1
 370 246 l 1
365 370 m 1
 365 255 l 1
 250 255 l 1
 250 370 l 1
 365 370 l 1
620 495 m 1
 620 380 l 1
 505 380 l 1
 505 495 l 1
 620 495 l 1
745 495 m 1
 745 380 l 1
 630 380 l 1
 630 495 l 1
 745 495 l 1
620 870 m 1
 620 755 l 1
 505 755 l 1
 505 870 l 1
 620 870 l 1
620 745 m 1
 620 630 l 1
 505 630 l 1
 505 745 l 1
 620 745 l 1
490 495 m 1
 490 380 l 1
 375 380 l 1
 375 495 l 1
 490 495 l 1
EndSplineSet
EndChar

StartChar: uniFC0B
Encoding: 64523 64523 32
Width: 1000
Flags: W
LayerCount: 2
Fore
SplineSet
370 -5 m 1
 370 -120 l 1
 255 -120 l 1
 255 -5 l 1
 370 -5 l 1
620 120 m 1
 620 5 l 1
 505 5 l 1
 505 120 l 1
 620 120 l 1
745 120 m 1
 745 5 l 1
 630 5 l 1
 630 120 l 1
 745 120 l 1
620 -380 m 1
 620 -495 l 1
 505 -495 l 1
 505 -380 l 1
 620 -380 l 1
370 -255 m 1
 370 -370 l 1
 255 -370 l 1
 255 -255 l 1
 370 -255 l 1
495 -380 m 1
 495 -495 l 1
 380 -495 l 1
 380 -380 l 1
 495 -380 l 1
495 120 m 1
 495 5 l 1
 380 5 l 1
 380 120 l 1
 495 120 l 1
745 -130 m 1
 745 -245 l 1
 630 -245 l 1
 630 -130 l 1
 745 -130 l 1
370 120 m 1
 370 5 l 1
 255 5 l 1
 255 120 l 1
 370 120 l 1
245 120 m 1
 245 5 l 1
 130 5 l 1
 130 120 l 1
 245 120 l 1
870 120 m 1
 870 5 l 1
 755 5 l 1
 755 120 l 1
 870 120 l 1
745 -380 m 1
 745 -495 l 1
 630 -495 l 1
 630 -380 l 1
 745 -380 l 1
370 -130 m 1
 370 -245 l 1
 255 -245 l 1
 255 -130 l 1
 370 -130 l 1
620 -130 m 1
 620 -245 l 1
 505 -245 l 1
 505 -130 l 1
 620 -130 l 1
870 -380 m 1
 870 -495 l 1
 755 -495 l 1
 755 -380 l 1
 870 -380 l 1
370 246 m 1
 370 131 l 1
 255 131 l 1
 255 246 l 1
 370 246 l 1
365 370 m 1
 365 255 l 1
 250 255 l 1
 250 370 l 1
 365 370 l 1
620 495 m 1
 620 380 l 1
 505 380 l 1
 505 495 l 1
 620 495 l 1
745 495 m 1
 745 380 l 1
 630 380 l 1
 630 495 l 1
 745 495 l 1
495 870 m 1
 495 755 l 1
 380 755 l 1
 380 870 l 1
 495 870 l 1
495 745 m 1
 495 630 l 1
 380 630 l 1
 380 745 l 1
 495 745 l 1
745 870 m 1
 745 755 l 1
 630 755 l 1
 630 870 l 1
 745 870 l 1
745 745 m 1
 745 630 l 1
 630 630 l 1
 630 745 l 1
 745 745 l 1
490 495 m 1
 490 380 l 1
 375 380 l 1
 375 495 l 1
 490 495 l 1
EndSplineSet
EndChar

StartChar: uniFC0C
Encoding: 64524 64524 33
Width: 1000
Flags: W
LayerCount: 2
Fore
SplineSet
370 -5 m 1
 370 -120 l 1
 255 -120 l 1
 255 -5 l 1
 370 -5 l 1
620 120 m 1
 620 5 l 1
 505 5 l 1
 505 120 l 1
 620 120 l 1
745 120 m 1
 745 5 l 1
 630 5 l 1
 630 120 l 1
 745 120 l 1
620 -380 m 1
 620 -495 l 1
 505 -495 l 1
 505 -380 l 1
 620 -380 l 1
370 -255 m 1
 370 -370 l 1
 255 -370 l 1
 255 -255 l 1
 370 -255 l 1
495 -380 m 1
 495 -495 l 1
 380 -495 l 1
 380 -380 l 1
 495 -380 l 1
495 120 m 1
 495 5 l 1
 380 5 l 1
 380 120 l 1
 495 120 l 1
370 120 m 1
 370 5 l 1
 255 5 l 1
 255 120 l 1
 370 120 l 1
245 120 m 1
 245 5 l 1
 130 5 l 1
 130 120 l 1
 245 120 l 1
870 120 m 1
 870 5 l 1
 755 5 l 1
 755 120 l 1
 870 120 l 1
745 -380 m 1
 745 -495 l 1
 630 -495 l 1
 630 -380 l 1
 745 -380 l 1
370 -130 m 1
 370 -245 l 1
 255 -245 l 1
 255 -130 l 1
 370 -130 l 1
870 -380 m 1
 870 -495 l 1
 755 -495 l 1
 755 -380 l 1
 870 -380 l 1
370 246 m 1
 370 131 l 1
 255 131 l 1
 255 246 l 1
 370 246 l 1
365 370 m 1
 365 255 l 1
 250 255 l 1
 250 370 l 1
 365 370 l 1
620 495 m 1
 620 380 l 1
 505 380 l 1
 505 495 l 1
 620 495 l 1
745 495 m 1
 745 380 l 1
 630 380 l 1
 630 495 l 1
 745 495 l 1
490 495 m 1
 490 380 l 1
 375 380 l 1
 375 495 l 1
 490 495 l 1
495 870 m 1
 495 755 l 1
 380 755 l 1
 380 870 l 1
 495 870 l 1
495 745 m 1
 495 630 l 1
 380 630 l 1
 380 745 l 1
 495 745 l 1
745 870 m 1
 745 755 l 1
 630 755 l 1
 630 870 l 1
 745 870 l 1
745 745 m 1
 745 630 l 1
 630 630 l 1
 630 745 l 1
 745 745 l 1
EndSplineSet
EndChar

StartChar: uniFCD2
Encoding: 64722 64722 34
Width: 750
Flags: W
LayerCount: 2
Fore
SplineSet
121 120 m 1
 121 5 l 1
 6 5 l 1
 6 120 l 1
 121 120 l 1
245 120 m 1
 245 5 l 1
 130 5 l 1
 130 120 l 1
 245 120 l 1
370 246 m 1
 370 131 l 1
 255 131 l 1
 255 246 l 1
 370 246 l 1
495 246 m 1
 495 131 l 1
 380 131 l 1
 380 246 l 1
 495 246 l 1
620 246 m 1
 620 131 l 1
 505 131 l 1
 505 246 l 1
 620 246 l 1
380 620 m 1
 495 620 l 1
 495 505 l 1
 380 505 l 1
 380 620 l 1
255 620 m 1
 370 620 l 1
 370 505 l 1
 255 505 l 1
 255 620 l 1
131 495 m 1
 246 495 l 1
 246 380 l 1
 131 380 l 1
 131 495 l 1
131 370 m 1
 246 370 l 1
 246 255 l 1
 131 255 l 1
 131 370 l 1
504 620 m 1
 619 620 l 1
 619 505 l 1
 504 505 l 1
 504 620 l 1
380 870 m 1
 495 870 l 1
 495 755 l 1
 380 755 l 1
 380 870 l 1
380 995 m 1
 495 995 l 1
 495 880 l 1
 380 880 l 1
 380 995 l 1
EndSplineSet
EndChar

StartChar: uniFCA2
Encoding: 64674 64674 35
Width: 750
Flags: W
LayerCount: 2
Fore
SplineSet
120 120 m 1
 120 5 l 1
 5 5 l 1
 5 120 l 1
 120 120 l 1
244 120 m 1
 244 5 l 1
 129 5 l 1
 129 120 l 1
 244 120 l 1
370 246 m 1
 370 131 l 1
 255 131 l 1
 255 246 l 1
 370 246 l 1
495 246 m 1
 495 131 l 1
 380 131 l 1
 380 246 l 1
 495 246 l 1
620 246 m 1
 620 131 l 1
 505 131 l 1
 505 246 l 1
 620 246 l 1
380 620 m 1
 495 620 l 1
 495 505 l 1
 380 505 l 1
 380 620 l 1
255 620 m 1
 370 620 l 1
 370 505 l 1
 255 505 l 1
 255 620 l 1
131 495 m 1
 246 495 l 1
 246 380 l 1
 131 380 l 1
 131 495 l 1
131 370 m 1
 246 370 l 1
 246 255 l 1
 131 255 l 1
 131 370 l 1
504 620 m 1
 619 620 l 1
 619 505 l 1
 504 505 l 1
 504 620 l 1
255 870 m 1
 370 870 l 1
 370 755 l 1
 255 755 l 1
 255 870 l 1
255 995 m 1
 370 995 l 1
 370 880 l 1
 255 880 l 1
 255 995 l 1
505 870 m 1
 620 870 l 1
 620 755 l 1
 505 755 l 1
 505 870 l 1
505 995 m 1
 620 995 l 1
 620 880 l 1
 505 880 l 1
 505 995 l 1
EndSplineSet
EndChar

StartChar: uniFCA1
Encoding: 64673 64673 36
Width: 750
Flags: W
LayerCount: 2
Fore
SplineSet
120 120 m 1
 120 5 l 1
 5 5 l 1
 5 120 l 1
 120 120 l 1
244 120 m 1
 244 5 l 1
 129 5 l 1
 129 120 l 1
 244 120 l 1
370 246 m 1
 370 131 l 1
 255 131 l 1
 255 246 l 1
 370 246 l 1
495 246 m 1
 495 131 l 1
 380 131 l 1
 380 246 l 1
 495 246 l 1
620 246 m 1
 620 131 l 1
 505 131 l 1
 505 246 l 1
 620 246 l 1
380 620 m 1
 495 620 l 1
 495 505 l 1
 380 505 l 1
 380 620 l 1
255 620 m 1
 370 620 l 1
 370 505 l 1
 255 505 l 1
 255 620 l 1
131 495 m 1
 246 495 l 1
 246 380 l 1
 131 380 l 1
 131 495 l 1
131 370 m 1
 246 370 l 1
 246 255 l 1
 131 255 l 1
 131 370 l 1
504 620 m 1
 619 620 l 1
 619 505 l 1
 504 505 l 1
 504 620 l 1
255 870 m 1
 370 870 l 1
 370 755 l 1
 255 755 l 1
 255 870 l 1
255 995 m 1
 370 995 l 1
 370 880 l 1
 255 880 l 1
 255 995 l 1
505 870 m 1
 620 870 l 1
 620 755 l 1
 505 755 l 1
 505 870 l 1
505 995 m 1
 620 995 l 1
 620 880 l 1
 505 880 l 1
 505 995 l 1
380 -130 m 1
 495 -130 l 1
 495 -245 l 1
 380 -245 l 1
 380 -130 l 1
380 -5 m 1
 495 -5 l 1
 495 -120 l 1
 380 -120 l 1
 380 -5 l 1
EndSplineSet
EndChar

StartChar: uniFCC9
Encoding: 64713 64713 37
Width: 750
Flags: W
LayerCount: 2
Fore
SplineSet
370 -255 m 1
 370 -370 l 1
 255 -370 l 1
 255 -255 l 1
 370 -255 l 1
370 -380 m 1
 370 -495 l 1
 255 -495 l 1
 255 -380 l 1
 370 -380 l 1
620 120 m 1
 620 5 l 1
 505 5 l 1
 505 120 l 1
 620 120 l 1
120 120 m 1
 120 5 l 1
 5 5 l 1
 5 120 l 1
 120 120 l 1
244 120 m 1
 244 5 l 1
 129 5 l 1
 129 120 l 1
 244 120 l 1
369 120 m 1
 369 5 l 1
 254 5 l 1
 254 120 l 1
 369 120 l 1
495 120 m 1
 495 5 l 1
 380 5 l 1
 380 120 l 1
 495 120 l 1
245 495 m 1
 245 380 l 1
 130 380 l 1
 130 495 l 1
 245 495 l 1
370 495 m 1
 370 380 l 1
 255 380 l 1
 255 495 l 1
 370 495 l 1
495 370 m 1
 495 255 l 1
 380 255 l 1
 380 370 l 1
 495 370 l 1
495 245 m 1
 495 130 l 1
 380 130 l 1
 380 245 l 1
 495 245 l 1
369 620 m 1
 369 505 l 1
 254 505 l 1
 254 620 l 1
 369 620 l 1
370 870 m 1
 370 755 l 1
 255 755 l 1
 255 870 l 1
 370 870 l 1
370 745 m 1
 370 630 l 1
 255 630 l 1
 255 745 l 1
 370 745 l 1
EndSplineSet
EndChar

StartChar: uniFCCA
Encoding: 64714 64714 38
Width: 750
Flags: W
LayerCount: 2
Fore
SplineSet
620 120 m 1
 620 5 l 1
 505 5 l 1
 505 120 l 1
 620 120 l 1
120 120 m 1
 120 5 l 1
 5 5 l 1
 5 120 l 1
 120 120 l 1
244 120 m 1
 244 5 l 1
 129 5 l 1
 129 120 l 1
 244 120 l 1
369 120 m 1
 369 5 l 1
 254 5 l 1
 254 120 l 1
 369 120 l 1
495 120 m 1
 495 5 l 1
 380 5 l 1
 380 120 l 1
 495 120 l 1
245 495 m 1
 245 380 l 1
 130 380 l 1
 130 495 l 1
 245 495 l 1
370 495 m 1
 370 380 l 1
 255 380 l 1
 255 495 l 1
 370 495 l 1
495 370 m 1
 495 255 l 1
 380 255 l 1
 380 370 l 1
 495 370 l 1
495 245 m 1
 495 130 l 1
 380 130 l 1
 380 245 l 1
 495 245 l 1
369 620 m 1
 369 505 l 1
 254 505 l 1
 254 620 l 1
 369 620 l 1
370 870 m 1
 370 755 l 1
 255 755 l 1
 255 870 l 1
 370 870 l 1
370 745 m 1
 370 630 l 1
 255 630 l 1
 255 745 l 1
 370 745 l 1
EndSplineSet
EndChar

StartChar: uniFCCB
Encoding: 64715 64715 39
Width: 875
Flags: W
LayerCount: 2
Fore
SplineSet
245 870 m 1
 245 755 l 1
 130 755 l 1
 130 870 l 1
 245 870 l 1
245 745 m 1
 245 630 l 1
 130 630 l 1
 130 745 l 1
 245 745 l 1
745 120 m 1
 745 5 l 1
 630 5 l 1
 630 120 l 1
 745 120 l 1
246 120 m 1
 246 5 l 1
 131 5 l 1
 131 120 l 1
 246 120 l 1
370 120 m 1
 370 5 l 1
 255 5 l 1
 255 120 l 1
 370 120 l 1
495 120 m 1
 495 5 l 1
 380 5 l 1
 380 120 l 1
 495 120 l 1
620 120 m 1
 620 5 l 1
 505 5 l 1
 505 120 l 1
 620 120 l 1
370 495 m 1
 370 380 l 1
 255 380 l 1
 255 495 l 1
 370 495 l 1
495 495 m 1
 495 380 l 1
 380 380 l 1
 380 495 l 1
 495 495 l 1
620 370 m 1
 620 255 l 1
 505 255 l 1
 505 370 l 1
 620 370 l 1
620 245 m 1
 620 130 l 1
 505 130 l 1
 505 245 l 1
 620 245 l 1
494 620 m 1
 494 505 l 1
 379 505 l 1
 379 620 l 1
 494 620 l 1
495 870 m 1
 495 755 l 1
 380 755 l 1
 380 870 l 1
 495 870 l 1
495 745 m 1
 495 630 l 1
 380 630 l 1
 380 745 l 1
 495 745 l 1
120 120 m 1
 120 5 l 1
 5 5 l 1
 5 120 l 1
 120 120 l 1
EndSplineSet
EndChar

StartChar: uniFCCC
Encoding: 64716 64716 40
Width: 625
Flags: W
LayerCount: 2
Fore
SplineSet
120 120 m 1
 120 5 l 1
 5 5 l 1
 5 120 l 1
 120 120 l 1
244 120 m 1
 244 5 l 1
 129 5 l 1
 129 120 l 1
 244 120 l 1
370 246 m 1
 370 131 l 1
 255 131 l 1
 255 246 l 1
 370 246 l 1
495 246 m 1
 495 131 l 1
 380 131 l 1
 380 246 l 1
 495 246 l 1
620 246 m 1
 620 131 l 1
 505 131 l 1
 505 246 l 1
 620 246 l 1
495 370 m 1
 495 255 l 1
 380 255 l 1
 380 370 l 1
 495 370 l 1
495 495 m 1
 495 380 l 1
 380 380 l 1
 380 495 l 1
 495 495 l 1
495 620 m 1
 495 505 l 1
 380 505 l 1
 380 620 l 1
 495 620 l 1
495 745 m 1
 495 630 l 1
 380 630 l 1
 380 745 l 1
 495 745 l 1
495 870 m 1
 495 755 l 1
 380 755 l 1
 380 870 l 1
 495 870 l 1
EndSplineSet
EndChar

StartChar: uniFC4E
Encoding: 64590 64590 41
Width: 625
Flags: W
LayerCount: 2
Fore
SplineSet
370 120 m 1
 370 5 l 1
 255 5 l 1
 255 120 l 1
 370 120 l 1
370 495 m 1
 370 380 l 1
 255 380 l 1
 255 495 l 1
 370 495 l 1
245 245 m 1
 245 130 l 1
 130 130 l 1
 130 245 l 1
 245 245 l 1
245 370 m 1
 245 255 l 1
 130 255 l 1
 130 370 l 1
 245 370 l 1
495 495 m 1
 495 380 l 1
 380 380 l 1
 380 495 l 1
 495 495 l 1
245 -255 m 1
 245 -370 l 1
 130 -370 l 1
 130 -255 l 1
 245 -255 l 1
245 -130 m 1
 245 -245 l 1
 130 -245 l 1
 130 -130 l 1
 245 -130 l 1
245 -5 m 1
 245 -120 l 1
 130 -120 l 1
 130 -5 l 1
 245 -5 l 1
495 120 m 1
 495 5 l 1
 380 5 l 1
 380 120 l 1
 495 120 l 1
370 870 m 1
 370 755 l 1
 255 755 l 1
 255 870 l 1
 370 870 l 1
370 745 m 1
 370 630 l 1
 255 630 l 1
 255 745 l 1
 370 745 l 1
EndSplineSet
EndChar

StartChar: uniFC08
Encoding: 64520 64520 42
Width: 625
Flags: W
LayerCount: 2
Fore
SplineSet
370 120 m 1
 370 5 l 1
 255 5 l 1
 255 120 l 1
 370 120 l 1
370 495 m 1
 370 380 l 1
 255 380 l 1
 255 495 l 1
 370 495 l 1
245 245 m 1
 245 130 l 1
 130 130 l 1
 130 245 l 1
 245 245 l 1
245 370 m 1
 245 255 l 1
 130 255 l 1
 130 370 l 1
 245 370 l 1
495 -130 m 1
 495 -245 l 1
 380 -245 l 1
 380 -130 l 1
 495 -130 l 1
495 495 m 1
 495 380 l 1
 380 380 l 1
 380 495 l 1
 495 495 l 1
495 -255 m 1
 495 -370 l 1
 380 -370 l 1
 380 -255 l 1
 495 -255 l 1
245 -255 m 1
 245 -370 l 1
 130 -370 l 1
 130 -255 l 1
 245 -255 l 1
245 -130 m 1
 245 -245 l 1
 130 -245 l 1
 130 -130 l 1
 245 -130 l 1
245 -5 m 1
 245 -120 l 1
 130 -120 l 1
 130 -5 l 1
 245 -5 l 1
495 120 m 1
 495 5 l 1
 380 5 l 1
 380 120 l 1
 495 120 l 1
EndSplineSet
EndChar

StartChar: uniFC0E
Encoding: 64526 64526 43
Width: 625
Flags: W
LayerCount: 2
Fore
SplineSet
370 120 m 1
 370 5 l 1
 255 5 l 1
 255 120 l 1
 370 120 l 1
370 495 m 1
 370 380 l 1
 255 380 l 1
 255 495 l 1
 370 495 l 1
245 245 m 1
 245 130 l 1
 130 130 l 1
 130 245 l 1
 245 245 l 1
245 370 m 1
 245 255 l 1
 130 255 l 1
 130 370 l 1
 245 370 l 1
245 870 m 1
 245 755 l 1
 130 755 l 1
 130 870 l 1
 245 870 l 1
495 495 m 1
 495 380 l 1
 380 380 l 1
 380 495 l 1
 495 495 l 1
245 745 m 1
 245 630 l 1
 130 630 l 1
 130 745 l 1
 245 745 l 1
245 -255 m 1
 245 -370 l 1
 130 -370 l 1
 130 -255 l 1
 245 -255 l 1
245 -130 m 1
 245 -245 l 1
 130 -245 l 1
 130 -130 l 1
 245 -130 l 1
245 -5 m 1
 245 -120 l 1
 130 -120 l 1
 130 -5 l 1
 245 -5 l 1
495 120 m 1
 495 5 l 1
 380 5 l 1
 380 120 l 1
 495 120 l 1
495 870 m 1
 495 755 l 1
 380 755 l 1
 380 870 l 1
 495 870 l 1
495 745 m 1
 495 630 l 1
 380 630 l 1
 380 745 l 1
 495 745 l 1
EndSplineSet
EndChar

StartChar: uniFC58
Encoding: 64600 64600 44
Width: 875
Flags: W
LayerCount: 2
Fore
SplineSet
370 120 m 1
 370 5 l 1
 255 5 l 1
 255 120 l 1
 370 120 l 1
370 495 m 1
 370 380 l 1
 255 380 l 1
 255 495 l 1
 370 495 l 1
245 245 m 1
 245 130 l 1
 130 130 l 1
 130 245 l 1
 245 245 l 1
245 370 m 1
 245 255 l 1
 130 255 l 1
 130 370 l 1
 245 370 l 1
495 -130 m 1
 495 -245 l 1
 380 -245 l 1
 380 -130 l 1
 495 -130 l 1
495 495 m 1
 495 380 l 1
 380 380 l 1
 380 495 l 1
 495 495 l 1
495 -255 m 1
 495 -370 l 1
 380 -370 l 1
 380 -255 l 1
 495 -255 l 1
245 -255 m 1
 245 -370 l 1
 130 -370 l 1
 130 -255 l 1
 245 -255 l 1
245 -130 m 1
 245 -245 l 1
 130 -245 l 1
 130 -130 l 1
 245 -130 l 1
245 -5 m 1
 245 -120 l 1
 130 -120 l 1
 130 -5 l 1
 245 -5 l 1
495 120 m 1
 495 5 l 1
 380 5 l 1
 380 120 l 1
 495 120 l 1
745 -130 m 1
 745 -245 l 1
 630 -245 l 1
 630 -130 l 1
 745 -130 l 1
745 -255 m 1
 745 -370 l 1
 630 -370 l 1
 630 -255 l 1
 745 -255 l 1
EndSplineSet
EndChar

StartChar: uniFCD5
Encoding: 64725 64725 45
Width: 625
Flags: W
LayerCount: 2
Fore
SplineSet
370 245 m 1
 370 130 l 1
 255 130 l 1
 255 245 l 1
 370 245 l 1
370 620 m 1
 370 505 l 1
 255 505 l 1
 255 620 l 1
 370 620 l 1
245 370 m 1
 245 255 l 1
 130 255 l 1
 130 370 l 1
 245 370 l 1
245 495 m 1
 245 380 l 1
 130 380 l 1
 130 495 l 1
 245 495 l 1
495 620 m 1
 495 505 l 1
 380 505 l 1
 380 620 l 1
 495 620 l 1
120 120 m 1
 120 5 l 1
 5 5 l 1
 5 120 l 1
 120 120 l 1
245 120 m 1
 245 5 l 1
 130 5 l 1
 130 120 l 1
 245 120 l 1
495 245 m 1
 495 130 l 1
 380 130 l 1
 380 245 l 1
 495 245 l 1
370 870 m 1
 370 755 l 1
 255 755 l 1
 255 870 l 1
 370 870 l 1
370 995 m 1
 370 880 l 1
 255 880 l 1
 255 995 l 1
 370 995 l 1
EndSplineSet
EndChar

StartChar: uniFC9F
Encoding: 64671 64671 46
Width: 625
Flags: W
LayerCount: 2
Fore
SplineSet
245 120 m 1
 245 5 l 1
 130 5 l 1
 130 120 l 1
 245 120 l 1
120 120 m 1
 120 5 l 1
 5 5 l 1
 5 120 l 1
 120 120 l 1
370 120 m 1
 370 5 l 1
 255 5 l 1
 255 120 l 1
 370 120 l 1
245 245 m 1
 245 130 l 1
 130 130 l 1
 130 245 l 1
 245 245 l 1
245 370 m 1
 245 255 l 1
 130 255 l 1
 130 370 l 1
 245 370 l 1
370 495 m 1
 370 380 l 1
 255 380 l 1
 255 495 l 1
 370 495 l 1
495 495 m 1
 495 380 l 1
 380 380 l 1
 380 495 l 1
 495 495 l 1
495 120 m 1
 495 5 l 1
 380 5 l 1
 380 120 l 1
 495 120 l 1
370 -255 m 1
 370 -370 l 1
 255 -370 l 1
 255 -255 l 1
 370 -255 l 1
370 -130 m 1
 370 -245 l 1
 255 -245 l 1
 255 -130 l 1
 370 -130 l 1
EndSplineSet
EndChar

StartChar: uniFCDD
Encoding: 64733 64733 47
Width: 625
Flags: W
LayerCount: 2
Fore
SplineSet
370 245 m 1
 370 130 l 1
 255 130 l 1
 255 245 l 1
 370 245 l 1
370 620 m 1
 370 505 l 1
 255 505 l 1
 255 620 l 1
 370 620 l 1
245 370 m 1
 245 255 l 1
 130 255 l 1
 130 370 l 1
 245 370 l 1
245 495 m 1
 245 380 l 1
 130 380 l 1
 130 495 l 1
 245 495 l 1
495 620 m 1
 495 505 l 1
 380 505 l 1
 380 620 l 1
 495 620 l 1
120 120 m 1
 120 5 l 1
 5 5 l 1
 5 120 l 1
 120 120 l 1
245 120 m 1
 245 5 l 1
 130 5 l 1
 130 120 l 1
 245 120 l 1
495 245 m 1
 495 130 l 1
 380 130 l 1
 380 245 l 1
 495 245 l 1
245 -255 m 1
 245 -370 l 1
 130 -370 l 1
 130 -255 l 1
 245 -255 l 1
245 -130 m 1
 245 -245 l 1
 130 -245 l 1
 130 -130 l 1
 245 -130 l 1
495 -255 m 1
 495 -370 l 1
 380 -370 l 1
 380 -255 l 1
 495 -255 l 1
495 -130 m 1
 495 -245 l 1
 380 -245 l 1
 380 -130 l 1
 495 -130 l 1
EndSplineSet
EndChar

StartChar: uniFCD1
Encoding: 64721 64721 48
Width: 625
Flags: W
LayerCount: 2
Fore
SplineSet
370 245 m 1
 370 130 l 1
 255 130 l 1
 255 245 l 1
 370 245 l 1
370 620 m 1
 370 505 l 1
 255 505 l 1
 255 620 l 1
 370 620 l 1
245 370 m 1
 245 255 l 1
 130 255 l 1
 130 370 l 1
 245 370 l 1
245 495 m 1
 245 380 l 1
 130 380 l 1
 130 495 l 1
 245 495 l 1
495 620 m 1
 495 505 l 1
 380 505 l 1
 380 620 l 1
 495 620 l 1
120 120 m 1
 120 5 l 1
 5 5 l 1
 5 120 l 1
 120 120 l 1
245 120 m 1
 245 5 l 1
 130 5 l 1
 130 120 l 1
 245 120 l 1
495 245 m 1
 495 130 l 1
 380 130 l 1
 380 245 l 1
 495 245 l 1
EndSplineSet
EndChar

StartChar: uniFC48
Encoding: 64584 64584 49
Width: 625
Flags: W
LayerCount: 2
Fore
SplineSet
370 120 m 1
 370 5 l 1
 255 5 l 1
 255 120 l 1
 370 120 l 1
370 495 m 1
 370 380 l 1
 255 380 l 1
 255 495 l 1
 370 495 l 1
245 245 m 1
 245 130 l 1
 130 130 l 1
 130 245 l 1
 245 245 l 1
245 370 m 1
 245 255 l 1
 130 255 l 1
 130 370 l 1
 245 370 l 1
495 495 m 1
 495 380 l 1
 380 380 l 1
 380 495 l 1
 495 495 l 1
245 -255 m 1
 245 -370 l 1
 130 -370 l 1
 130 -255 l 1
 245 -255 l 1
245 -130 m 1
 245 -245 l 1
 130 -245 l 1
 130 -130 l 1
 245 -130 l 1
245 -5 m 1
 245 -120 l 1
 130 -120 l 1
 130 -5 l 1
 245 -5 l 1
495 120 m 1
 495 5 l 1
 380 5 l 1
 380 120 l 1
 495 120 l 1
EndSplineSet
EndChar

StartChar: uniFC8D
Encoding: 64653 64653 50
Width: 1500
Flags: W
LayerCount: 2
Fore
SplineSet
1369 120 m 1
 1369 5 l 1
 1254 5 l 1
 1254 120 l 1
 1369 120 l 1
1244 370 m 1
 1244 255 l 1
 1129 255 l 1
 1129 370 l 1
 1244 370 l 1
994 370 m 1
 994 255 l 1
 879 255 l 1
 879 370 l 1
 994 370 l 1
744 -130 m 1
 744 -245 l 1
 629 -245 l 1
 629 -130 l 1
 744 -130 l 1
370 -130 m 1
 370 -245 l 1
 255 -245 l 1
 255 -130 l 1
 370 -130 l 1
495 -130 m 1
 495 -245 l 1
 380 -245 l 1
 380 -130 l 1
 495 -130 l 1
245 -5 m 1
 245 -120 l 1
 130 -120 l 1
 130 -5 l 1
 245 -5 l 1
869 120 m 1
 869 5 l 1
 754 5 l 1
 754 120 l 1
 869 120 l 1
869 245 m 1
 869 130 l 1
 754 130 l 1
 754 245 l 1
 869 245 l 1
245 120 m 1
 245 5 l 1
 130 5 l 1
 130 120 l 1
 245 120 l 1
1369 245 m 1
 1369 130 l 1
 1254 130 l 1
 1254 245 l 1
 1369 245 l 1
1495 120 m 1
 1495 5 l 1
 1380 5 l 1
 1380 120 l 1
 1495 120 l 1
869 370 m 1
 869 255 l 1
 754 255 l 1
 754 370 l 1
 869 370 l 1
1369 370 m 1
 1369 255 l 1
 1254 255 l 1
 1254 370 l 1
 1369 370 l 1
1119 370 m 1
 1119 255 l 1
 1004 255 l 1
 1004 370 l 1
 1119 370 l 1
869 -5 m 1
 869 -120 l 1
 754 -120 l 1
 754 -5 l 1
 869 -5 l 1
1120 620 m 1
 1120 505 l 1
 1005 505 l 1
 1005 620 l 1
 1120 620 l 1
1120 745 m 1
 1120 630 l 1
 1005 630 l 1
 1005 745 l 1
 1120 745 l 1
495 370 m 1
 495 255 l 1
 380 255 l 1
 380 370 l 1
 495 370 l 1
495 495 m 1
 495 380 l 1
 380 380 l 1
 380 495 l 1
 495 495 l 1
620 -130 m 1
 620 -245 l 1
 505 -245 l 1
 505 -130 l 1
 620 -130 l 1
EndSplineSet
EndChar

StartChar: uniFC94
Encoding: 64660 64660 51
Width: 1500
Flags: W
LayerCount: 2
Fore
SplineSet
1369 120 m 1
 1369 5 l 1
 1254 5 l 1
 1254 120 l 1
 1369 120 l 1
1244 370 m 1
 1244 255 l 1
 1129 255 l 1
 1129 370 l 1
 1244 370 l 1
994 370 m 1
 994 255 l 1
 879 255 l 1
 879 370 l 1
 994 370 l 1
744 -130 m 1
 744 -245 l 1
 629 -245 l 1
 629 -130 l 1
 744 -130 l 1
370 -130 m 1
 370 -245 l 1
 255 -245 l 1
 255 -130 l 1
 370 -130 l 1
495 -130 m 1
 495 -245 l 1
 380 -245 l 1
 380 -130 l 1
 495 -130 l 1
245 -5 m 1
 245 -120 l 1
 130 -120 l 1
 130 -5 l 1
 245 -5 l 1
869 120 m 1
 869 5 l 1
 754 5 l 1
 754 120 l 1
 869 120 l 1
869 245 m 1
 869 130 l 1
 754 130 l 1
 754 245 l 1
 869 245 l 1
245 120 m 1
 245 5 l 1
 130 5 l 1
 130 120 l 1
 245 120 l 1
1369 245 m 1
 1369 130 l 1
 1254 130 l 1
 1254 245 l 1
 1369 245 l 1
1495 120 m 1
 1495 5 l 1
 1380 5 l 1
 1380 120 l 1
 1495 120 l 1
869 370 m 1
 869 255 l 1
 754 255 l 1
 754 370 l 1
 869 370 l 1
1369 370 m 1
 1369 255 l 1
 1254 255 l 1
 1254 370 l 1
 1369 370 l 1
1119 370 m 1
 1119 255 l 1
 1004 255 l 1
 1004 370 l 1
 1119 370 l 1
869 -5 m 1
 869 -120 l 1
 754 -120 l 1
 754 -5 l 1
 869 -5 l 1
995 -381 m 1
 995 -496 l 1
 880 -496 l 1
 880 -381 l 1
 995 -381 l 1
995 -256 m 1
 995 -371 l 1
 880 -371 l 1
 880 -256 l 1
 995 -256 l 1
1245 -381 m 1
 1245 -496 l 1
 1130 -496 l 1
 1130 -381 l 1
 1245 -381 l 1
1245 -256 m 1
 1245 -371 l 1
 1130 -371 l 1
 1130 -256 l 1
 1245 -256 l 1
495 370 m 1
 495 255 l 1
 380 255 l 1
 380 370 l 1
 495 370 l 1
495 495 m 1
 495 380 l 1
 380 380 l 1
 380 495 l 1
 495 495 l 1
621 -130 m 1
 621 -245 l 1
 506 -245 l 1
 506 -130 l 1
 621 -130 l 1
EndSplineSet
EndChar

StartChar: uniFC6D
Encoding: 64621 64621 52
Width: 1500
Flags: W
LayerCount: 2
Fore
SplineSet
1369 120 m 1
 1369 5 l 1
 1254 5 l 1
 1254 120 l 1
 1369 120 l 1
1244 370 m 1
 1244 255 l 1
 1129 255 l 1
 1129 370 l 1
 1244 370 l 1
994 370 m 1
 994 255 l 1
 879 255 l 1
 879 370 l 1
 994 370 l 1
744 -130 m 1
 744 -245 l 1
 629 -245 l 1
 629 -130 l 1
 744 -130 l 1
370 -130 m 1
 370 -245 l 1
 255 -245 l 1
 255 -130 l 1
 370 -130 l 1
495 -130 m 1
 495 -245 l 1
 380 -245 l 1
 380 -130 l 1
 495 -130 l 1
245 -5 m 1
 245 -120 l 1
 130 -120 l 1
 130 -5 l 1
 245 -5 l 1
869 120 m 1
 869 5 l 1
 754 5 l 1
 754 120 l 1
 869 120 l 1
869 245 m 1
 869 130 l 1
 754 130 l 1
 754 245 l 1
 869 245 l 1
245 120 m 1
 245 5 l 1
 130 5 l 1
 130 120 l 1
 245 120 l 1
1369 245 m 1
 1369 130 l 1
 1254 130 l 1
 1254 245 l 1
 1369 245 l 1
1495 120 m 1
 1495 5 l 1
 1380 5 l 1
 1380 120 l 1
 1495 120 l 1
869 370 m 1
 869 255 l 1
 754 255 l 1
 754 370 l 1
 869 370 l 1
1369 370 m 1
 1369 255 l 1
 1254 255 l 1
 1254 370 l 1
 1369 370 l 1
1119 370 m 1
 1119 255 l 1
 1004 255 l 1
 1004 370 l 1
 1119 370 l 1
869 -5 m 1
 869 -120 l 1
 754 -120 l 1
 754 -5 l 1
 869 -5 l 1
495 370 m 1
 495 255 l 1
 380 255 l 1
 380 370 l 1
 495 370 l 1
495 495 m 1
 495 380 l 1
 380 380 l 1
 380 495 l 1
 495 495 l 1
1119 -130 m 1
 1119 -245 l 1
 1004 -245 l 1
 1004 -130 l 1
 1119 -130 l 1
1119 -5 m 1
 1119 -120 l 1
 1004 -120 l 1
 1004 -5 l 1
 1119 -5 l 1
620 -130 m 1
 620 -245 l 1
 505 -245 l 1
 505 -130 l 1
 620 -130 l 1
EndSplineSet
EndChar

StartChar: uniFC73
Encoding: 64627 64627 53
Width: 1500
Flags: W
LayerCount: 2
Fore
SplineSet
1369 120 m 1
 1369 5 l 1
 1254 5 l 1
 1254 120 l 1
 1369 120 l 1
1244 370 m 1
 1244 255 l 1
 1129 255 l 1
 1129 370 l 1
 1244 370 l 1
994 370 m 1
 994 255 l 1
 879 255 l 1
 879 370 l 1
 994 370 l 1
744 -130 m 1
 744 -245 l 1
 629 -245 l 1
 629 -130 l 1
 744 -130 l 1
494 -130 m 1
 494 -245 l 1
 379 -245 l 1
 379 -130 l 1
 494 -130 l 1
619 -130 m 1
 619 -245 l 1
 504 -245 l 1
 504 -130 l 1
 619 -130 l 1
869 120 m 1
 869 5 l 1
 754 5 l 1
 754 120 l 1
 869 120 l 1
869 245 m 1
 869 130 l 1
 754 130 l 1
 754 245 l 1
 869 245 l 1
1369 245 m 1
 1369 130 l 1
 1254 130 l 1
 1254 245 l 1
 1369 245 l 1
1495 120 m 1
 1495 5 l 1
 1380 5 l 1
 1380 120 l 1
 1495 120 l 1
869 370 m 1
 869 255 l 1
 754 255 l 1
 754 370 l 1
 869 370 l 1
1369 370 m 1
 1369 255 l 1
 1254 255 l 1
 1254 370 l 1
 1369 370 l 1
1119 370 m 1
 1119 255 l 1
 1004 255 l 1
 1004 370 l 1
 1119 370 l 1
869 -5 m 1
 869 -120 l 1
 754 -120 l 1
 754 -5 l 1
 869 -5 l 1
995 620 m 1
 995 505 l 1
 880 505 l 1
 880 620 l 1
 995 620 l 1
995 745 m 1
 995 630 l 1
 880 630 l 1
 880 745 l 1
 995 745 l 1
1245 620 m 1
 1245 505 l 1
 1130 505 l 1
 1130 620 l 1
 1245 620 l 1
1245 745 m 1
 1245 630 l 1
 1130 630 l 1
 1130 745 l 1
 1245 745 l 1
495 370 m 1
 495 255 l 1
 380 255 l 1
 380 370 l 1
 495 370 l 1
495 495 m 1
 495 380 l 1
 380 380 l 1
 380 495 l 1
 495 495 l 1
370 -130 m 1
 370 -245 l 1
 255 -245 l 1
 255 -130 l 1
 370 -130 l 1
245 -5 m 1
 245 -120 l 1
 130 -120 l 1
 130 -5 l 1
 245 -5 l 1
245 120 m 1
 245 5 l 1
 130 5 l 1
 130 120 l 1
 245 120 l 1
EndSplineSet
EndChar

StartChar: uniFBAF
Encoding: 64431 64431 54
Width: 750
Flags: W
LayerCount: 2
Fore
SplineSet
370 -255 m 1
 370 -370 l 1
 255 -370 l 1
 255 -255 l 1
 370 -255 l 1
495 -255 m 1
 495 -370 l 1
 380 -370 l 1
 380 -255 l 1
 495 -255 l 1
620 -255 m 1
 620 -370 l 1
 505 -370 l 1
 505 -255 l 1
 620 -255 l 1
245 -130 m 1
 245 -245 l 1
 130 -245 l 1
 130 -130 l 1
 245 -130 l 1
245 -5 m 1
 245 -120 l 1
 130 -120 l 1
 130 -5 l 1
 245 -5 l 1
370 120 m 1
 370 5 l 1
 255 5 l 1
 255 120 l 1
 370 120 l 1
495 120 m 1
 495 5 l 1
 380 5 l 1
 380 120 l 1
 495 120 l 1
620 120 m 1
 620 5 l 1
 505 5 l 1
 505 120 l 1
 620 120 l 1
745 -255 m 1
 745 -370 l 1
 630 -370 l 1
 630 -255 l 1
 745 -255 l 1
245 -255 m 1
 245 -370 l 1
 130 -370 l 1
 130 -255 l 1
 245 -255 l 1
745 120 m 1
 745 5 l 1
 630 5 l 1
 630 120 l 1
 745 120 l 1
EndSplineSet
EndChar

StartChar: uniFCA4
Encoding: 64676 64676 55
Width: 625
Flags: W
LayerCount: 2
Fore
SplineSet
245 120 m 1
 245 5 l 1
 130 5 l 1
 130 120 l 1
 245 120 l 1
120 120 m 1
 120 5 l 1
 5 5 l 1
 5 120 l 1
 120 120 l 1
370 120 m 1
 370 5 l 1
 255 5 l 1
 255 120 l 1
 370 120 l 1
245 245 m 1
 245 130 l 1
 130 130 l 1
 130 245 l 1
 245 245 l 1
245 370 m 1
 245 255 l 1
 130 255 l 1
 130 370 l 1
 245 370 l 1
370 495 m 1
 370 380 l 1
 255 380 l 1
 255 495 l 1
 370 495 l 1
495 495 m 1
 495 380 l 1
 380 380 l 1
 380 495 l 1
 495 495 l 1
495 120 m 1
 495 5 l 1
 380 5 l 1
 380 120 l 1
 495 120 l 1
245 745 m 1
 245 630 l 1
 130 630 l 1
 130 745 l 1
 245 745 l 1
245 870 m 1
 245 755 l 1
 130 755 l 1
 130 870 l 1
 245 870 l 1
495 745 m 1
 495 630 l 1
 380 630 l 1
 380 745 l 1
 495 745 l 1
495 870 m 1
 495 755 l 1
 380 755 l 1
 380 870 l 1
 495 870 l 1
EndSplineSet
EndChar

StartChar: hehinitialaltonearabic
Encoding: 65540 -1 56
Width: 626
Flags: W
LayerCount: 2
Fore
SplineSet
496 370 m 1
 496 255 l 1
 381 255 l 1
 381 370 l 1
 496 370 l 1
496 245 m 1
 496 130 l 1
 381 130 l 1
 381 245 l 1
 496 245 l 1
371 120 m 1
 371 5 l 1
 256 5 l 1
 256 120 l 1
 371 120 l 1
245 -5 m 1
 245 -120 l 1
 130 -120 l 1
 130 -5 l 1
 245 -5 l 1
246 120 m 1
 246 5 l 1
 131 5 l 1
 131 120 l 1
 246 120 l 1
245 -130 m 1
 245 -245 l 1
 130 -245 l 1
 130 -130 l 1
 245 -130 l 1
120 120 m 1
 120 5 l 1
 5 5 l 1
 5 120 l 1
 120 120 l 1
370 -130 m 1
 370 -245 l 1
 255 -245 l 1
 255 -130 l 1
 370 -130 l 1
EndSplineSet
EndChar

StartChar: uniFD88
Encoding: 64904 64904 57
Width: 750
Flags: W
LayerCount: 2
Fore
SplineSet
121 120 m 1
 121 5 l 1
 6 5 l 1
 6 120 l 1
 121 120 l 1
245 120 m 1
 245 5 l 1
 130 5 l 1
 130 120 l 1
 245 120 l 1
370 246 m 1
 370 131 l 1
 255 131 l 1
 255 246 l 1
 370 246 l 1
495 246 m 1
 495 131 l 1
 380 131 l 1
 380 246 l 1
 495 246 l 1
620 246 m 1
 620 131 l 1
 505 131 l 1
 505 246 l 1
 620 246 l 1
380 620 m 1
 495 620 l 1
 495 505 l 1
 380 505 l 1
 380 620 l 1
255 620 m 1
 370 620 l 1
 370 505 l 1
 255 505 l 1
 255 620 l 1
131 495 m 1
 246 495 l 1
 246 380 l 1
 131 380 l 1
 131 495 l 1
131 370 m 1
 246 370 l 1
 246 255 l 1
 131 255 l 1
 131 370 l 1
504 620 m 1
 619 620 l 1
 619 505 l 1
 504 505 l 1
 504 620 l 1
380 870 m 1
 495 870 l 1
 495 755 l 1
 380 755 l 1
 380 870 l 1
380 745 m 1
 495 745 l 1
 495 630 l 1
 380 630 l 1
 380 745 l 1
380 995 m 1
 495 995 l 1
 495 880 l 1
 380 880 l 1
 380 995 l 1
EndSplineSet
EndChar

StartChar: hehmedialaltonearabic
Encoding: 65541 -1 58
Width: 625
Flags: W
LayerCount: 2
Fore
SplineSet
245 -130 m 1
 245 -245 l 1
 130 -245 l 1
 130 -130 l 1
 245 -130 l 1
495 -5 m 1
 495 -120 l 1
 380 -120 l 1
 380 -5 l 1
 495 -5 l 1
495 120 m 1
 495 5 l 1
 380 5 l 1
 380 120 l 1
 495 120 l 1
495 -130 m 1
 495 -245 l 1
 380 -245 l 1
 380 -130 l 1
 495 -130 l 1
245 120 m 1
 245 5 l 1
 130 5 l 1
 130 120 l 1
 245 120 l 1
120 120 m 1
 120 5 l 1
 5 5 l 1
 5 120 l 1
 120 120 l 1
245 -5 m 1
 245 -120 l 1
 130 -120 l 1
 130 -5 l 1
 245 -5 l 1
620 120 m 1
 620 5 l 1
 505 5 l 1
 505 120 l 1
 620 120 l 1
370 -255 m 1
 370 -370 l 1
 255 -370 l 1
 255 -255 l 1
 370 -255 l 1
EndSplineSet
EndChar

StartChar: uniFC62
Encoding: 64610 64610 59
Width: 0
Flags: W
LayerCount: 2
Fore
SplineSet
120 995 m 1
 120 880 l 1
 5 880 l 1
 5 995 l 1
 120 995 l 1
245 995 m 1
 245 880 l 1
 130 880 l 1
 130 995 l 1
 245 995 l 1
120 620 m 1
 120 505 l 1
 5 505 l 1
 5 620 l 1
 120 620 l 1
245 745 m 1
 245 630 l 1
 130 630 l 1
 130 745 l 1
 245 745 l 1
EndSplineSet
EndChar

StartChar: uniFC5F
Encoding: 64607 64607 60
Width: 0
Flags: W
LayerCount: 2
Fore
SplineSet
245 1120 m 1
 245 1005 l 1
 130 1005 l 1
 130 1120 l 1
 245 1120 l 1
120 1120 m 1
 120 1005 l 1
 5 1005 l 1
 5 1120 l 1
 120 1120 l 1
120 745 m 1
 120 630 l 1
 5 630 l 1
 5 745 l 1
 120 745 l 1
245 870 m 1
 245 755 l 1
 130 755 l 1
 130 870 l 1
 245 870 l 1
120 495 m 1
 120 380 l 1
 5 380 l 1
 5 495 l 1
 120 495 l 1
245 620 m 1
 245 505 l 1
 130 505 l 1
 130 620 l 1
 245 620 l 1
EndSplineSet
EndChar

StartChar: hehfinalaltonearabic
Encoding: 65542 -1 61
Width: 750
Flags: W
LayerCount: 2
Fore
SplineSet
620 245 m 1
 620 130 l 1
 505 130 l 1
 505 245 l 1
 620 245 l 1
620 370 m 1
 620 255 l 1
 505 255 l 1
 505 370 l 1
 620 370 l 1
620 495 m 1
 620 380 l 1
 505 380 l 1
 505 495 l 1
 620 495 l 1
620 620 m 1
 620 505 l 1
 505 505 l 1
 505 620 l 1
 620 620 l 1
745 120 m 1
 745 5 l 1
 630 5 l 1
 630 120 l 1
 745 120 l 1
370 495 m 1
 370 380 l 1
 255 380 l 1
 255 495 l 1
 370 495 l 1
370 245 m 1
 370 130 l 1
 255 130 l 1
 255 245 l 1
 370 245 l 1
245 370 m 1
 245 255 l 1
 130 255 l 1
 130 370 l 1
 245 370 l 1
495 245 m 1
 495 130 l 1
 380 130 l 1
 380 245 l 1
 495 245 l 1
495 495 m 1
 495 380 l 1
 380 380 l 1
 380 495 l 1
 495 495 l 1
620 120 m 1
 620 5 l 1
 505 5 l 1
 505 120 l 1
 620 120 l 1
EndSplineSet
EndChar

StartChar: uniFB93
Encoding: 64403 64403 62
Width: 1125
Flags: W
LayerCount: 2
Fore
SplineSet
870 370 m 1
 870 255 l 1
 755 255 l 1
 755 370 l 1
 870 370 l 1
870 120 m 1
 870 5 l 1
 755 5 l 1
 755 120 l 1
 870 120 l 1
745 -6 m 1
 745 -121 l 1
 630 -121 l 1
 630 -6 l 1
 745 -6 l 1
995 245 m 1
 995 130 l 1
 880 130 l 1
 880 245 l 1
 995 245 l 1
745 495 m 1
 745 380 l 1
 630 380 l 1
 630 495 l 1
 745 495 l 1
620 -6 m 1
 620 -121 l 1
 505 -121 l 1
 505 -6 l 1
 620 -6 l 1
870 620 m 1
 870 505 l 1
 755 505 l 1
 755 620 l 1
 870 620 l 1
995 745 m 1
 995 630 l 1
 880 630 l 1
 880 745 l 1
 995 745 l 1
1120 120 m 1
 1120 5 l 1
 1005 5 l 1
 1005 120 l 1
 1120 120 l 1
495 -6 m 1
 495 -121 l 1
 380 -121 l 1
 380 -6 l 1
 495 -6 l 1
370 -6 m 1
 370 -121 l 1
 255 -121 l 1
 255 -6 l 1
 370 -6 l 1
245 120 m 1
 245 5 l 1
 130 5 l 1
 130 120 l 1
 245 120 l 1
245 245 m 1
 245 130 l 1
 130 130 l 1
 130 245 l 1
 245 245 l 1
620 745 m 1
 620 630 l 1
 505 630 l 1
 505 745 l 1
 620 745 l 1
745 870 m 1
 745 755 l 1
 630 755 l 1
 630 870 l 1
 745 870 l 1
870 995 m 1
 870 880 l 1
 755 880 l 1
 755 995 l 1
 870 995 l 1
EndSplineSet
EndChar

StartChar: uniFEB8
Encoding: 65208 65208 63
Width: 875
Flags: W
LayerCount: 2
Fore
SplineSet
120 120 m 1
 120 5 l 1
 5 5 l 1
 5 120 l 1
 120 120 l 1
245 120 m 1
 245 5 l 1
 130 5 l 1
 130 120 l 1
 245 120 l 1
370 120 m 1
 370 5 l 1
 255 5 l 1
 255 120 l 1
 370 120 l 1
245 245 m 1
 245 130 l 1
 130 130 l 1
 130 245 l 1
 245 245 l 1
245 370 m 1
 245 255 l 1
 130 255 l 1
 130 370 l 1
 245 370 l 1
495 120 m 1
 495 5 l 1
 380 5 l 1
 380 120 l 1
 495 120 l 1
620 120 m 1
 620 5 l 1
 505 5 l 1
 505 120 l 1
 620 120 l 1
495 245 m 1
 495 130 l 1
 380 130 l 1
 380 245 l 1
 495 245 l 1
495 370 m 1
 495 255 l 1
 380 255 l 1
 380 370 l 1
 495 370 l 1
745 120 m 1
 745 5 l 1
 630 5 l 1
 630 120 l 1
 745 120 l 1
870 120 m 1
 870 5 l 1
 755 5 l 1
 755 120 l 1
 870 120 l 1
745 245 m 1
 745 130 l 1
 630 130 l 1
 630 245 l 1
 745 245 l 1
745 370 m 1
 745 255 l 1
 630 255 l 1
 630 370 l 1
 745 370 l 1
495 995 m 1
 495 880 l 1
 380 880 l 1
 380 995 l 1
 495 995 l 1
370 870 m 1
 370 755 l 1
 255 755 l 1
 255 870 l 1
 370 870 l 1
370 745 m 1
 370 630 l 1
 255 630 l 1
 255 745 l 1
 370 745 l 1
620 870 m 1
 620 755 l 1
 505 755 l 1
 505 870 l 1
 620 870 l 1
620 745 m 1
 620 630 l 1
 505 630 l 1
 505 745 l 1
 620 745 l 1
EndSplineSet
EndChar

StartChar: uniFEBC
Encoding: 65212 65212 64
Width: 1000
Flags: W
LayerCount: 2
Fore
SplineSet
495 120 m 1
 495 5 l 1
 380 5 l 1
 380 120 l 1
 495 120 l 1
245 120 m 1
 245 5 l 1
 130 5 l 1
 130 120 l 1
 245 120 l 1
120 120 m 1
 120 5 l 1
 5 5 l 1
 5 120 l 1
 120 120 l 1
620 120 m 1
 620 5 l 1
 505 5 l 1
 505 120 l 1
 620 120 l 1
745 120 m 1
 745 5 l 1
 630 5 l 1
 630 120 l 1
 745 120 l 1
495 245 m 1
 495 130 l 1
 380 130 l 1
 380 245 l 1
 495 245 l 1
495 370 m 1
 495 255 l 1
 380 255 l 1
 380 370 l 1
 495 370 l 1
870 245 m 1
 870 130 l 1
 755 130 l 1
 755 245 l 1
 870 245 l 1
870 370 m 1
 870 255 l 1
 755 255 l 1
 755 370 l 1
 870 370 l 1
620 495 m 1
 620 380 l 1
 505 380 l 1
 505 495 l 1
 620 495 l 1
745 495 m 1
 745 380 l 1
 630 380 l 1
 630 495 l 1
 745 495 l 1
370 120 m 1
 370 5 l 1
 255 5 l 1
 255 120 l 1
 370 120 l 1
245 245 m 1
 245 130 l 1
 130 130 l 1
 130 245 l 1
 245 245 l 1
870 120 m 1
 870 5 l 1
 755 5 l 1
 755 120 l 1
 870 120 l 1
995 120 m 1
 995 5 l 1
 880 5 l 1
 880 120 l 1
 995 120 l 1
495 -5 m 1
 495 -120 l 1
 380 -120 l 1
 380 -5 l 1
 495 -5 l 1
EndSplineSet
EndChar

StartChar: uniFEC0
Encoding: 65216 65216 65
Width: 1000
Flags: W
LayerCount: 2
Fore
SplineSet
495 120 m 1
 495 5 l 1
 380 5 l 1
 380 120 l 1
 495 120 l 1
245 120 m 1
 245 5 l 1
 130 5 l 1
 130 120 l 1
 245 120 l 1
120 120 m 1
 120 5 l 1
 5 5 l 1
 5 120 l 1
 120 120 l 1
620 120 m 1
 620 5 l 1
 505 5 l 1
 505 120 l 1
 620 120 l 1
745 120 m 1
 745 5 l 1
 630 5 l 1
 630 120 l 1
 745 120 l 1
495 245 m 1
 495 130 l 1
 380 130 l 1
 380 245 l 1
 495 245 l 1
495 370 m 1
 495 255 l 1
 380 255 l 1
 380 370 l 1
 495 370 l 1
870 245 m 1
 870 130 l 1
 755 130 l 1
 755 245 l 1
 870 245 l 1
870 370 m 1
 870 255 l 1
 755 255 l 1
 755 370 l 1
 870 370 l 1
620 495 m 1
 620 380 l 1
 505 380 l 1
 505 495 l 1
 620 495 l 1
745 495 m 1
 745 380 l 1
 630 380 l 1
 630 495 l 1
 745 495 l 1
370 120 m 1
 370 5 l 1
 255 5 l 1
 255 120 l 1
 370 120 l 1
245 245 m 1
 245 130 l 1
 130 130 l 1
 130 245 l 1
 245 245 l 1
620 745 m 1
 620 630 l 1
 505 630 l 1
 505 745 l 1
 620 745 l 1
620 870 m 1
 620 755 l 1
 505 755 l 1
 505 870 l 1
 620 870 l 1
870 120 m 1
 870 5 l 1
 755 5 l 1
 755 120 l 1
 870 120 l 1
995 120 m 1
 995 5 l 1
 880 5 l 1
 880 120 l 1
 995 120 l 1
495 -5 m 1
 495 -120 l 1
 380 -120 l 1
 380 -5 l 1
 495 -5 l 1
EndSplineSet
EndChar

StartChar: uniFEC4
Encoding: 65220 65220 66
Width: 875
Flags: W
LayerCount: 2
Fore
SplineSet
120 120 m 1
 120 5 l 1
 5 5 l 1
 5 120 l 1
 120 120 l 1
370 120 m 1
 370 5 l 1
 255 5 l 1
 255 120 l 1
 370 120 l 1
245 120 m 1
 245 5 l 1
 130 5 l 1
 130 120 l 1
 245 120 l 1
495 120 m 1
 495 5 l 1
 380 5 l 1
 380 120 l 1
 495 120 l 1
370 245 m 1
 370 130 l 1
 255 130 l 1
 255 245 l 1
 370 245 l 1
370 370 m 1
 370 255 l 1
 255 255 l 1
 255 370 l 1
 370 370 l 1
370 495 m 1
 370 380 l 1
 255 380 l 1
 255 495 l 1
 370 495 l 1
370 620 m 1
 370 505 l 1
 255 505 l 1
 255 620 l 1
 370 620 l 1
620 120 m 1
 620 5 l 1
 505 5 l 1
 505 120 l 1
 620 120 l 1
745 120 m 1
 745 5 l 1
 630 5 l 1
 630 120 l 1
 745 120 l 1
870 120 m 1
 870 5 l 1
 755 5 l 1
 755 120 l 1
 870 120 l 1
495 495 m 1
 495 380 l 1
 380 380 l 1
 380 495 l 1
 495 495 l 1
620 495 m 1
 620 380 l 1
 505 380 l 1
 505 495 l 1
 620 495 l 1
745 370 m 1
 745 255 l 1
 630 255 l 1
 630 370 l 1
 745 370 l 1
370 745 m 1
 370 630 l 1
 255 630 l 1
 255 745 l 1
 370 745 l 1
745 245 m 1
 745 130 l 1
 630 130 l 1
 630 245 l 1
 745 245 l 1
EndSplineSet
EndChar

StartChar: uniFEC8
Encoding: 65224 65224 67
Width: 875
Flags: W
LayerCount: 2
Fore
SplineSet
120 120 m 1
 120 5 l 1
 5 5 l 1
 5 120 l 1
 120 120 l 1
370 120 m 1
 370 5 l 1
 255 5 l 1
 255 120 l 1
 370 120 l 1
245 120 m 1
 245 5 l 1
 130 5 l 1
 130 120 l 1
 245 120 l 1
495 120 m 1
 495 5 l 1
 380 5 l 1
 380 120 l 1
 495 120 l 1
370 245 m 1
 370 130 l 1
 255 130 l 1
 255 245 l 1
 370 245 l 1
370 370 m 1
 370 255 l 1
 255 255 l 1
 255 370 l 1
 370 370 l 1
370 495 m 1
 370 380 l 1
 255 380 l 1
 255 495 l 1
 370 495 l 1
370 620 m 1
 370 505 l 1
 255 505 l 1
 255 620 l 1
 370 620 l 1
620 120 m 1
 620 5 l 1
 505 5 l 1
 505 120 l 1
 620 120 l 1
745 120 m 1
 745 5 l 1
 630 5 l 1
 630 120 l 1
 745 120 l 1
870 120 m 1
 870 5 l 1
 755 5 l 1
 755 120 l 1
 870 120 l 1
495 495 m 1
 495 380 l 1
 380 380 l 1
 380 495 l 1
 495 495 l 1
620 495 m 1
 620 380 l 1
 505 380 l 1
 505 495 l 1
 620 495 l 1
745 370 m 1
 745 255 l 1
 630 255 l 1
 630 370 l 1
 745 370 l 1
370 745 m 1
 370 630 l 1
 255 630 l 1
 255 745 l 1
 370 745 l 1
745 245 m 1
 745 130 l 1
 630 130 l 1
 630 245 l 1
 745 245 l 1
620 995 m 1
 620 880 l 1
 505 880 l 1
 505 995 l 1
 620 995 l 1
620 870 m 1
 620 755 l 1
 505 755 l 1
 505 870 l 1
 620 870 l 1
EndSplineSet
EndChar

StartChar: uniFECC
Encoding: 65228 65228 68
Width: 750
Flags: W
LayerCount: 2
Fore
SplineSet
620 494 m 1
 620 379 l 1
 505 379 l 1
 505 494 l 1
 620 494 l 1
495 620 m 1
 495 505 l 1
 380 505 l 1
 380 620 l 1
 495 620 l 1
620 120 m 1
 620 5 l 1
 505 5 l 1
 505 120 l 1
 620 120 l 1
245 120 m 1
 245 5 l 1
 130 5 l 1
 130 120 l 1
 245 120 l 1
120 120 m 1
 120 5 l 1
 5 5 l 1
 5 120 l 1
 120 120 l 1
245 494 m 1
 245 379 l 1
 130 379 l 1
 130 494 l 1
 245 494 l 1
495 245 m 1
 495 130 l 1
 380 130 l 1
 380 245 l 1
 495 245 l 1
745 120 m 1
 745 5 l 1
 630 5 l 1
 630 120 l 1
 745 120 l 1
370 245 m 1
 370 130 l 1
 255 130 l 1
 255 245 l 1
 370 245 l 1
370 620 m 1
 370 505 l 1
 255 505 l 1
 255 620 l 1
 370 620 l 1
620 370 m 1
 620 255 l 1
 505 255 l 1
 505 370 l 1
 620 370 l 1
245 370 m 1
 245 255 l 1
 130 255 l 1
 130 370 l 1
 245 370 l 1
EndSplineSet
EndChar

StartChar: uniFED0
Encoding: 65232 65232 69
Width: 750
Flags: W
LayerCount: 2
Fore
SplineSet
620 494 m 1
 620 379 l 1
 505 379 l 1
 505 494 l 1
 620 494 l 1
495 620 m 1
 495 505 l 1
 380 505 l 1
 380 620 l 1
 495 620 l 1
620 120 m 1
 620 5 l 1
 505 5 l 1
 505 120 l 1
 620 120 l 1
245 120 m 1
 245 5 l 1
 130 5 l 1
 130 120 l 1
 245 120 l 1
120 120 m 1
 120 5 l 1
 5 5 l 1
 5 120 l 1
 120 120 l 1
245 494 m 1
 245 379 l 1
 130 379 l 1
 130 494 l 1
 245 494 l 1
495 245 m 1
 495 130 l 1
 380 130 l 1
 380 245 l 1
 495 245 l 1
745 120 m 1
 745 5 l 1
 630 5 l 1
 630 120 l 1
 745 120 l 1
370 245 m 1
 370 130 l 1
 255 130 l 1
 255 245 l 1
 370 245 l 1
370 620 m 1
 370 505 l 1
 255 505 l 1
 255 620 l 1
 370 620 l 1
620 370 m 1
 620 255 l 1
 505 255 l 1
 505 370 l 1
 620 370 l 1
245 370 m 1
 245 255 l 1
 130 255 l 1
 130 370 l 1
 245 370 l 1
370 995 m 1
 370 880 l 1
 255 880 l 1
 255 995 l 1
 370 995 l 1
370 870 m 1
 370 755 l 1
 255 755 l 1
 255 870 l 1
 370 870 l 1
EndSplineSet
EndChar

StartChar: uniFED4
Encoding: 65236 65236 70
Width: 750
Flags: W
LayerCount: 2
Fore
SplineSet
370 870 m 1
 370 755 l 1
 255 755 l 1
 255 870 l 1
 370 870 l 1
370 995 m 1
 370 880 l 1
 255 880 l 1
 255 995 l 1
 370 995 l 1
620 494 m 1
 620 379 l 1
 505 379 l 1
 505 494 l 1
 620 494 l 1
495 619 m 1
 495 504 l 1
 380 504 l 1
 380 619 l 1
 495 619 l 1
620 120 m 1
 620 5 l 1
 505 5 l 1
 505 120 l 1
 620 120 l 1
245 120 m 1
 245 5 l 1
 130 5 l 1
 130 120 l 1
 245 120 l 1
120 120 m 1
 120 5 l 1
 5 5 l 1
 5 120 l 1
 120 120 l 1
245 494 m 1
 245 379 l 1
 130 379 l 1
 130 494 l 1
 245 494 l 1
495 245 m 1
 495 130 l 1
 380 130 l 1
 380 245 l 1
 495 245 l 1
745 120 m 1
 745 5 l 1
 630 5 l 1
 630 120 l 1
 745 120 l 1
370 245 m 1
 370 130 l 1
 255 130 l 1
 255 245 l 1
 370 245 l 1
370 620 m 1
 370 505 l 1
 255 505 l 1
 255 620 l 1
 370 620 l 1
620 370 m 1
 620 255 l 1
 505 255 l 1
 505 370 l 1
 620 370 l 1
245 370 m 1
 245 255 l 1
 130 255 l 1
 130 370 l 1
 245 370 l 1
EndSplineSet
EndChar

StartChar: uniFED8
Encoding: 65240 65240 71
Width: 750
Flags: W
LayerCount: 2
Fore
SplineSet
495 870 m 1
 495 755 l 1
 380 755 l 1
 380 870 l 1
 495 870 l 1
495 995 m 1
 495 880 l 1
 380 880 l 1
 380 995 l 1
 495 995 l 1
620 494 m 1
 620 379 l 1
 505 379 l 1
 505 494 l 1
 620 494 l 1
495 619 m 1
 495 504 l 1
 380 504 l 1
 380 619 l 1
 495 619 l 1
620 120 m 1
 620 5 l 1
 505 5 l 1
 505 120 l 1
 620 120 l 1
245 120 m 1
 245 5 l 1
 130 5 l 1
 130 120 l 1
 245 120 l 1
120 120 m 1
 120 5 l 1
 5 5 l 1
 5 120 l 1
 120 120 l 1
245 494 m 1
 245 379 l 1
 130 379 l 1
 130 494 l 1
 245 494 l 1
495 245 m 1
 495 130 l 1
 380 130 l 1
 380 245 l 1
 495 245 l 1
745 120 m 1
 745 5 l 1
 630 5 l 1
 630 120 l 1
 745 120 l 1
370 245 m 1
 370 130 l 1
 255 130 l 1
 255 245 l 1
 370 245 l 1
370 620 m 1
 370 505 l 1
 255 505 l 1
 255 620 l 1
 370 620 l 1
620 370 m 1
 620 255 l 1
 505 255 l 1
 505 370 l 1
 620 370 l 1
245 370 m 1
 245 255 l 1
 130 255 l 1
 130 370 l 1
 245 370 l 1
245 870 m 1
 245 755 l 1
 130 755 l 1
 130 870 l 1
 245 870 l 1
245 995 m 1
 245 880 l 1
 130 880 l 1
 130 995 l 1
 245 995 l 1
EndSplineSet
EndChar

StartChar: uniFEDC
Encoding: 65244 65244 72
Width: 625
Flags: W
LayerCount: 2
Fore
SplineSet
370 370 m 1
 370 255 l 1
 255 255 l 1
 255 370 l 1
 370 370 l 1
370 120 m 1
 370 5 l 1
 255 5 l 1
 255 120 l 1
 370 120 l 1
245 120 m 1
 245 5 l 1
 130 5 l 1
 130 120 l 1
 245 120 l 1
495 245 m 1
 495 130 l 1
 380 130 l 1
 380 245 l 1
 495 245 l 1
245 495 m 1
 245 380 l 1
 130 380 l 1
 130 495 l 1
 245 495 l 1
120 120 m 1
 120 5 l 1
 5 5 l 1
 5 120 l 1
 120 120 l 1
370 620 m 1
 370 505 l 1
 255 505 l 1
 255 620 l 1
 370 620 l 1
495 745 m 1
 495 630 l 1
 380 630 l 1
 380 745 l 1
 495 745 l 1
620 120 m 1
 620 5 l 1
 505 5 l 1
 505 120 l 1
 620 120 l 1
EndSplineSet
EndChar

StartChar: uniFEE0
Encoding: 65248 65248 73
Width: 625
Flags: W
LayerCount: 2
Fore
SplineSet
255 245 m 1
 370 245 l 1
 370 130 l 1
 255 130 l 1
 255 245 l 1
255 370 m 1
 370 370 l 1
 370 255 l 1
 255 255 l 1
 255 370 l 1
255 495 m 1
 370 495 l 1
 370 380 l 1
 255 380 l 1
 255 495 l 1
255 745 m 1
 370 745 l 1
 370 630 l 1
 255 630 l 1
 255 745 l 1
255 620 m 1
 370 620 l 1
 370 505 l 1
 255 505 l 1
 255 620 l 1
130 120 m 1
 245 120 l 1
 245 5 l 1
 130 5 l 1
 130 120 l 1
255 871 m 1
 370 871 l 1
 370 756 l 1
 255 756 l 1
 255 871 l 1
255 995 m 1
 370 995 l 1
 370 880 l 1
 255 880 l 1
 255 995 l 1
255 120 m 1
 370 120 l 1
 370 5 l 1
 255 5 l 1
 255 120 l 1
380 120 m 1
 495 120 l 1
 495 5 l 1
 380 5 l 1
 380 120 l 1
505 120 m 1
 620 120 l 1
 620 5 l 1
 505 5 l 1
 505 120 l 1
5 120 m 1
 120 120 l 1
 120 5 l 1
 5 5 l 1
 5 120 l 1
EndSplineSet
EndChar

StartChar: uniFEE4
Encoding: 65252 65252 74
Width: 750
Flags: W
LayerCount: 2
Fore
SplineSet
495 -5 m 1
 495 -120 l 1
 380 -120 l 1
 380 -5 l 1
 495 -5 l 1
495 370 m 1
 495 255 l 1
 380 255 l 1
 380 370 l 1
 495 370 l 1
370 370 m 1
 370 255 l 1
 255 255 l 1
 255 370 l 1
 370 370 l 1
620 120 m 1
 620 5 l 1
 505 5 l 1
 505 120 l 1
 620 120 l 1
245 120 m 1
 245 5 l 1
 130 5 l 1
 130 120 l 1
 245 120 l 1
370 -5 m 1
 370 -120 l 1
 255 -120 l 1
 255 -5 l 1
 370 -5 l 1
120 120 m 1
 120 5 l 1
 5 5 l 1
 5 120 l 1
 120 120 l 1
245 245 m 1
 245 130 l 1
 130 130 l 1
 130 245 l 1
 245 245 l 1
620 245 m 1
 620 130 l 1
 505 130 l 1
 505 245 l 1
 620 245 l 1
745 120 m 1
 745 5 l 1
 630 5 l 1
 630 120 l 1
 745 120 l 1
EndSplineSet
EndChar

StartChar: uniFEE8
Encoding: 65256 65256 75
Width: 625
Flags: W
LayerCount: 2
Fore
SplineSet
370 370 m 1
 370 255 l 1
 255 255 l 1
 255 370 l 1
 370 370 l 1
370 120 m 1
 370 5 l 1
 255 5 l 1
 255 120 l 1
 370 120 l 1
370 245 m 1
 370 130 l 1
 255 130 l 1
 255 245 l 1
 370 245 l 1
245 120 m 1
 245 5 l 1
 130 5 l 1
 130 120 l 1
 245 120 l 1
370 745 m 1
 370 630 l 1
 255 630 l 1
 255 745 l 1
 370 745 l 1
495 120 m 1
 495 5 l 1
 380 5 l 1
 380 120 l 1
 495 120 l 1
120 120 m 1
 120 5 l 1
 5 5 l 1
 5 120 l 1
 120 120 l 1
620 120 m 1
 620 5 l 1
 505 5 l 1
 505 120 l 1
 620 120 l 1
370 870 m 1
 370 755 l 1
 255 755 l 1
 255 870 l 1
 370 870 l 1
EndSplineSet
EndChar

StartChar: uniFEEC
Encoding: 65260 65260 76
Width: 750
Flags: W
LayerCount: 2
Fore
SplineSet
495 120 m 1
 495 5 l 1
 380 5 l 1
 380 120 l 1
 495 120 l 1
495 370 m 1
 495 255 l 1
 380 255 l 1
 380 370 l 1
 495 370 l 1
370 370 m 1
 370 255 l 1
 255 255 l 1
 255 370 l 1
 370 370 l 1
620 120 m 1
 620 5 l 1
 505 5 l 1
 505 120 l 1
 620 120 l 1
245 120 m 1
 245 5 l 1
 130 5 l 1
 130 120 l 1
 245 120 l 1
370 120 m 1
 370 5 l 1
 255 5 l 1
 255 120 l 1
 370 120 l 1
120 120 m 1
 120 5 l 1
 5 5 l 1
 5 120 l 1
 120 120 l 1
245 245 m 1
 245 130 l 1
 130 130 l 1
 130 245 l 1
 245 245 l 1
245 -5 m 1
 245 -120 l 1
 130 -120 l 1
 130 -5 l 1
 245 -5 l 1
495 -130 m 1
 495 -245 l 1
 380 -245 l 1
 380 -130 l 1
 495 -130 l 1
370 -130 m 1
 370 -245 l 1
 255 -245 l 1
 255 -130 l 1
 370 -130 l 1
620 -5 m 1
 620 -120 l 1
 505 -120 l 1
 505 -5 l 1
 620 -5 l 1
620 245 m 1
 620 130 l 1
 505 130 l 1
 505 245 l 1
 620 245 l 1
745 120 m 1
 745 5 l 1
 630 5 l 1
 630 120 l 1
 745 120 l 1
620 370 m 1
 620 255 l 1
 505 255 l 1
 505 370 l 1
 620 370 l 1
620 -130 m 1
 620 -245 l 1
 505 -245 l 1
 505 -130 l 1
 620 -130 l 1
EndSplineSet
EndChar

StartChar: uniFEF4
Encoding: 65268 65268 77
Width: 625
Flags: W
LayerCount: 2
Fore
SplineSet
245 120 m 1
 245 5 l 1
 130 5 l 1
 130 120 l 1
 245 120 l 1
370 120 m 1
 370 5 l 1
 255 5 l 1
 255 120 l 1
 370 120 l 1
495 120 m 1
 495 5 l 1
 380 5 l 1
 380 120 l 1
 495 120 l 1
370 245 m 1
 370 130 l 1
 255 130 l 1
 255 245 l 1
 370 245 l 1
370 370 m 1
 370 255 l 1
 255 255 l 1
 255 370 l 1
 370 370 l 1
245 -255 m 1
 245 -370 l 1
 130 -370 l 1
 130 -255 l 1
 245 -255 l 1
495 -255 m 1
 495 -370 l 1
 380 -370 l 1
 380 -255 l 1
 495 -255 l 1
120 120 m 1
 120 5 l 1
 5 5 l 1
 5 120 l 1
 120 120 l 1
620 120 m 1
 620 5 l 1
 505 5 l 1
 505 120 l 1
 620 120 l 1
245 -380 m 1
 245 -495 l 1
 130 -495 l 1
 130 -380 l 1
 245 -380 l 1
495 -380 m 1
 495 -495 l 1
 380 -495 l 1
 380 -380 l 1
 495 -380 l 1
EndSplineSet
EndChar

StartChar: uniFE82
Encoding: 65154 65154 78
Width: 500
Flags: W
LayerCount: 2
Fore
SplineSet
370 245 m 1
 370 130 l 1
 255 130 l 1
 255 245 l 1
 370 245 l 1
370 370 m 1
 370 255 l 1
 255 255 l 1
 255 370 l 1
 370 370 l 1
370 495 m 1
 370 380 l 1
 255 380 l 1
 255 495 l 1
 370 495 l 1
370 120 m 1
 370 5 l 1
 255 5 l 1
 255 120 l 1
 370 120 l 1
370 620 m 1
 370 505 l 1
 255 505 l 1
 255 620 l 1
 370 620 l 1
495 120 m 1
 495 5 l 1
 380 5 l 1
 380 120 l 1
 495 120 l 1
245 995 m 1
 245 880 l 1
 130 880 l 1
 130 995 l 1
 245 995 l 1
370 870 m 1
 370 755 l 1
 255 755 l 1
 255 870 l 1
 370 870 l 1
495 995 m 1
 495 880 l 1
 380 880 l 1
 380 995 l 1
 495 995 l 1
120 870 m 1
 120 755 l 1
 5 755 l 1
 5 870 l 1
 120 870 l 1
EndSplineSet
EndChar

StartChar: uniFE84
Encoding: 65156 65156 79
Width: 500
Flags: W
LayerCount: 2
Fore
SplineSet
370 245 m 1
 370 130 l 1
 255 130 l 1
 255 245 l 1
 370 245 l 1
370 370 m 1
 370 255 l 1
 255 255 l 1
 255 370 l 1
 370 370 l 1
370 495 m 1
 370 380 l 1
 255 380 l 1
 255 495 l 1
 370 495 l 1
370 120 m 1
 370 5 l 1
 255 5 l 1
 255 120 l 1
 370 120 l 1
370 620 m 1
 370 505 l 1
 255 505 l 1
 255 620 l 1
 370 620 l 1
495 120 m 1
 495 5 l 1
 380 5 l 1
 380 120 l 1
 495 120 l 1
370 869 m 1
 370 754 l 1
 255 754 l 1
 255 869 l 1
 370 869 l 1
495 870 m 1
 495 755 l 1
 380 755 l 1
 380 870 l 1
 495 870 l 1
370 995 m 1
 370 880 l 1
 255 880 l 1
 255 995 l 1
 370 995 l 1
245 870 m 1
 245 755 l 1
 130 755 l 1
 130 870 l 1
 245 870 l 1
495 1120 m 1
 495 1005 l 1
 380 1005 l 1
 380 1120 l 1
 495 1120 l 1
EndSplineSet
EndChar

StartChar: uniFE86
Encoding: 65158 65158 80
Width: 875
Flags: W
LayerCount: 2
Fore
SplineSet
870 120 m 1
 870 5 l 1
 755 5 l 1
 755 120 l 1
 870 120 l 1
745 120 m 1
 745 5 l 1
 630 5 l 1
 630 120 l 1
 745 120 l 1
620 245 m 1
 620 130 l 1
 505 130 l 1
 505 245 l 1
 620 245 l 1
620 -130 m 1
 620 -245 l 1
 505 -245 l 1
 505 -130 l 1
 620 -130 l 1
370 -255 m 1
 370 -370 l 1
 255 -370 l 1
 255 -255 l 1
 370 -255 l 1
495 -255 m 1
 495 -370 l 1
 380 -370 l 1
 380 -255 l 1
 495 -255 l 1
245 -255 m 1
 245 -370 l 1
 130 -370 l 1
 130 -255 l 1
 245 -255 l 1
370 120 m 1
 370 5 l 1
 255 5 l 1
 255 120 l 1
 370 120 l 1
495 120 m 1
 495 5 l 1
 380 5 l 1
 380 120 l 1
 495 120 l 1
620 120 m 1
 620 5 l 1
 505 5 l 1
 505 120 l 1
 620 120 l 1
245 245 m 1
 245 130 l 1
 130 130 l 1
 130 245 l 1
 245 245 l 1
620 370 m 1
 620 255 l 1
 505 255 l 1
 505 370 l 1
 620 370 l 1
245 370 m 1
 245 255 l 1
 130 255 l 1
 130 370 l 1
 245 370 l 1
495 495 m 1
 495 380 l 1
 380 380 l 1
 380 495 l 1
 495 495 l 1
370 495 m 1
 370 380 l 1
 255 380 l 1
 255 495 l 1
 370 495 l 1
620 -5 m 1
 620 -120 l 1
 505 -120 l 1
 505 -5 l 1
 620 -5 l 1
370 744 m 1
 370 629 l 1
 255 629 l 1
 255 744 l 1
 370 744 l 1
495 745 m 1
 495 630 l 1
 380 630 l 1
 380 745 l 1
 495 745 l 1
370 870 m 1
 370 755 l 1
 255 755 l 1
 255 870 l 1
 370 870 l 1
245 745 m 1
 245 630 l 1
 130 630 l 1
 130 745 l 1
 245 745 l 1
495 995 m 1
 495 880 l 1
 380 880 l 1
 380 995 l 1
 495 995 l 1
EndSplineSet
EndChar

StartChar: uniFE88
Encoding: 65160 65160 81
Width: 375
Flags: W
LayerCount: 2
Fore
SplineSet
245 245 m 1
 245 130 l 1
 130 130 l 1
 130 245 l 1
 245 245 l 1
245 370 m 1
 245 255 l 1
 130 255 l 1
 130 370 l 1
 245 370 l 1
245 495 m 1
 245 380 l 1
 130 380 l 1
 130 495 l 1
 245 495 l 1
245 745 m 1
 245 630 l 1
 130 630 l 1
 130 745 l 1
 245 745 l 1
245 620 m 1
 245 505 l 1
 130 505 l 1
 130 620 l 1
 245 620 l 1
370 120 m 1
 370 5 l 1
 255 5 l 1
 255 120 l 1
 370 120 l 1
245 870 m 1
 245 755 l 1
 130 755 l 1
 130 870 l 1
 245 870 l 1
245 -381 m 1
 245 -496 l 1
 130 -496 l 1
 130 -381 l 1
 245 -381 l 1
370 -380 m 1
 370 -495 l 1
 255 -495 l 1
 255 -380 l 1
 370 -380 l 1
245 -255 m 1
 245 -370 l 1
 130 -370 l 1
 130 -255 l 1
 245 -255 l 1
120 -380 m 1
 120 -495 l 1
 5 -495 l 1
 5 -380 l 1
 120 -380 l 1
370 -130 m 1
 370 -245 l 1
 255 -245 l 1
 255 -130 l 1
 370 -130 l 1
EndSplineSet
EndChar

StartChar: uniFE8A
Encoding: 65162 65162 82
Width: 1375
Flags: W
LayerCount: 2
Fore
SplineSet
1245 120 m 1
 1245 5 l 1
 1130 5 l 1
 1130 120 l 1
 1245 120 l 1
1120 370 m 1
 1120 255 l 1
 1005 255 l 1
 1005 370 l 1
 1120 370 l 1
995 370 m 1
 995 255 l 1
 880 255 l 1
 880 370 l 1
 995 370 l 1
745 -5 m 1
 745 -120 l 1
 630 -120 l 1
 630 -5 l 1
 745 -5 l 1
370 -5 m 1
 370 -120 l 1
 255 -120 l 1
 255 -5 l 1
 370 -5 l 1
495 -5 m 1
 495 -120 l 1
 380 -120 l 1
 380 -5 l 1
 495 -5 l 1
245 120 m 1
 245 5 l 1
 130 5 l 1
 130 120 l 1
 245 120 l 1
870 120 m 1
 870 5 l 1
 755 5 l 1
 755 120 l 1
 870 120 l 1
870 245 m 1
 870 130 l 1
 755 130 l 1
 755 245 l 1
 870 245 l 1
245 245 m 1
 245 130 l 1
 130 130 l 1
 130 245 l 1
 245 245 l 1
1245 245 m 1
 1245 130 l 1
 1130 130 l 1
 1130 245 l 1
 1245 245 l 1
1370 120 m 1
 1370 5 l 1
 1255 5 l 1
 1255 120 l 1
 1370 120 l 1
370 494 m 1
 370 379 l 1
 255 379 l 1
 255 494 l 1
 370 494 l 1
495 495 m 1
 495 380 l 1
 380 380 l 1
 380 495 l 1
 495 495 l 1
370 620 m 1
 370 505 l 1
 255 505 l 1
 255 620 l 1
 370 620 l 1
245 495 m 1
 245 380 l 1
 130 380 l 1
 130 495 l 1
 245 495 l 1
495 745 m 1
 495 630 l 1
 380 630 l 1
 380 745 l 1
 495 745 l 1
621 -5 m 1
 621 -120 l 1
 506 -120 l 1
 506 -5 l 1
 621 -5 l 1
EndSplineSet
EndChar

StartChar: uniFE8E
Encoding: 65166 65166 83
Width: 375
Flags: W
LayerCount: 2
Fore
SplineSet
245 245 m 1
 245 130 l 1
 130 130 l 1
 130 245 l 1
 245 245 l 1
245 370 m 1
 245 255 l 1
 130 255 l 1
 130 370 l 1
 245 370 l 1
245 495 m 1
 245 380 l 1
 130 380 l 1
 130 495 l 1
 245 495 l 1
245 745 m 1
 245 630 l 1
 130 630 l 1
 130 745 l 1
 245 745 l 1
245 620 m 1
 245 505 l 1
 130 505 l 1
 130 620 l 1
 245 620 l 1
370 120 m 1
 370 5 l 1
 255 5 l 1
 255 120 l 1
 370 120 l 1
245 871 m 1
 245 756 l 1
 130 756 l 1
 130 871 l 1
 245 871 l 1
EndSplineSet
EndChar

StartChar: uniFE90
Encoding: 65168 65168 84
Width: 1125
Flags: W
LayerCount: 2
Fore
SplineSet
1120 120 m 1
 1120 5 l 1
 1005 5 l 1
 1005 120 l 1
 1120 120 l 1
995 245 m 1
 995 130 l 1
 880 130 l 1
 880 245 l 1
 995 245 l 1
620 120 m 1
 620 5 l 1
 505 5 l 1
 505 120 l 1
 620 120 l 1
370 120 m 1
 370 5 l 1
 255 5 l 1
 255 120 l 1
 370 120 l 1
495 120 m 1
 495 5 l 1
 380 5 l 1
 380 120 l 1
 495 120 l 1
245 245 m 1
 245 130 l 1
 130 130 l 1
 130 245 l 1
 245 245 l 1
620 -255 m 1
 620 -370 l 1
 505 -370 l 1
 505 -255 l 1
 620 -255 l 1
620 -380 m 1
 620 -495 l 1
 505 -495 l 1
 505 -380 l 1
 620 -380 l 1
995 370 m 1
 995 255 l 1
 880 255 l 1
 880 370 l 1
 995 370 l 1
245 370 m 1
 245 255 l 1
 130 255 l 1
 130 370 l 1
 245 370 l 1
995 120 m 1
 995 5 l 1
 880 5 l 1
 880 120 l 1
 995 120 l 1
870 120 m 1
 870 5 l 1
 755 5 l 1
 755 120 l 1
 870 120 l 1
745 120 m 1
 745 5 l 1
 630 5 l 1
 630 120 l 1
 745 120 l 1
EndSplineSet
EndChar

StartChar: uniFE94
Encoding: 65172 65172 85
Width: 750
Flags: W
LayerCount: 2
Fore
SplineSet
620 245 m 1
 620 130 l 1
 505 130 l 1
 505 245 l 1
 620 245 l 1
620 370 m 1
 620 255 l 1
 505 255 l 1
 505 370 l 1
 620 370 l 1
620 495 m 1
 620 380 l 1
 505 380 l 1
 505 495 l 1
 620 495 l 1
620 620 m 1
 620 505 l 1
 505 505 l 1
 505 620 l 1
 620 620 l 1
745 120 m 1
 745 5 l 1
 630 5 l 1
 630 120 l 1
 745 120 l 1
370 495 m 1
 370 380 l 1
 255 380 l 1
 255 495 l 1
 370 495 l 1
370 245 m 1
 370 130 l 1
 255 130 l 1
 255 245 l 1
 370 245 l 1
245 370 m 1
 245 255 l 1
 130 255 l 1
 130 370 l 1
 245 370 l 1
495 245 m 1
 495 130 l 1
 380 130 l 1
 380 245 l 1
 495 245 l 1
495 495 m 1
 495 380 l 1
 380 380 l 1
 380 495 l 1
 495 495 l 1
620 120 m 1
 620 5 l 1
 505 5 l 1
 505 120 l 1
 620 120 l 1
370 995 m 1
 370 880 l 1
 255 880 l 1
 255 995 l 1
 370 995 l 1
620 995 m 1
 620 880 l 1
 505 880 l 1
 505 995 l 1
 620 995 l 1
370 870 m 1
 370 755 l 1
 255 755 l 1
 255 870 l 1
 370 870 l 1
620 870 m 1
 620 755 l 1
 505 755 l 1
 505 870 l 1
 620 870 l 1
EndSplineSet
EndChar

StartChar: uniFE96
Encoding: 65174 65174 86
Width: 1125
Flags: W
LayerCount: 2
Fore
SplineSet
1120 120 m 1
 1120 5 l 1
 1005 5 l 1
 1005 120 l 1
 1120 120 l 1
995 245 m 1
 995 130 l 1
 880 130 l 1
 880 245 l 1
 995 245 l 1
870 120 m 1
 870 5 l 1
 755 5 l 1
 755 120 l 1
 870 120 l 1
745 120 m 1
 745 5 l 1
 630 5 l 1
 630 120 l 1
 745 120 l 1
370 120 m 1
 370 5 l 1
 255 5 l 1
 255 120 l 1
 370 120 l 1
245 245 m 1
 245 130 l 1
 130 130 l 1
 130 245 l 1
 245 245 l 1
495 745 m 1
 495 630 l 1
 380 630 l 1
 380 745 l 1
 495 745 l 1
745 745 m 1
 745 630 l 1
 630 630 l 1
 630 745 l 1
 745 745 l 1
995 120 m 1
 995 5 l 1
 880 5 l 1
 880 120 l 1
 995 120 l 1
995 370 m 1
 995 255 l 1
 880 255 l 1
 880 370 l 1
 995 370 l 1
245 370 m 1
 245 255 l 1
 130 255 l 1
 130 370 l 1
 245 370 l 1
495 870 m 1
 495 755 l 1
 380 755 l 1
 380 870 l 1
 495 870 l 1
745 870 m 1
 745 755 l 1
 630 755 l 1
 630 870 l 1
 745 870 l 1
620 120 m 1
 620 5 l 1
 505 5 l 1
 505 120 l 1
 620 120 l 1
495 120 m 1
 495 5 l 1
 380 5 l 1
 380 120 l 1
 495 120 l 1
EndSplineSet
EndChar

StartChar: uniFE9A
Encoding: 65178 65178 87
Width: 1125
Flags: W
LayerCount: 2
Fore
SplineSet
1120 120 m 1
 1120 5 l 1
 1005 5 l 1
 1005 120 l 1
 1120 120 l 1
995 245 m 1
 995 130 l 1
 880 130 l 1
 880 245 l 1
 995 245 l 1
620 120 m 1
 620 5 l 1
 505 5 l 1
 505 120 l 1
 620 120 l 1
495 120 m 1
 495 5 l 1
 380 5 l 1
 380 120 l 1
 495 120 l 1
370 120 m 1
 370 5 l 1
 255 5 l 1
 255 120 l 1
 370 120 l 1
245 245 m 1
 245 130 l 1
 130 130 l 1
 130 245 l 1
 245 245 l 1
995 120 m 1
 995 5 l 1
 880 5 l 1
 880 120 l 1
 995 120 l 1
995 370 m 1
 995 255 l 1
 880 255 l 1
 880 370 l 1
 995 370 l 1
245 370 m 1
 245 255 l 1
 130 255 l 1
 130 370 l 1
 245 370 l 1
620 995 m 1
 620 880 l 1
 505 880 l 1
 505 995 l 1
 620 995 l 1
495 870 m 1
 495 755 l 1
 380 755 l 1
 380 870 l 1
 495 870 l 1
495 745 m 1
 495 630 l 1
 380 630 l 1
 380 745 l 1
 495 745 l 1
745 870 m 1
 745 755 l 1
 630 755 l 1
 630 870 l 1
 745 870 l 1
745 745 m 1
 745 630 l 1
 630 630 l 1
 630 745 l 1
 745 745 l 1
870 120 m 1
 870 5 l 1
 755 5 l 1
 755 120 l 1
 870 120 l 1
745 120 m 1
 745 5 l 1
 630 5 l 1
 630 120 l 1
 745 120 l 1
EndSplineSet
EndChar

StartChar: uniFE9E
Encoding: 65182 65182 88
Width: 1125
Flags: W
LayerCount: 2
Fore
SplineSet
995 120 m 1
 995 5 l 1
 880 5 l 1
 880 120 l 1
 995 120 l 1
370 245 m 1
 370 130 l 1
 255 130 l 1
 255 245 l 1
 370 245 l 1
370 120 m 1
 370 5 l 1
 255 5 l 1
 255 120 l 1
 370 120 l 1
870 120 m 1
 870 5 l 1
 755 5 l 1
 755 120 l 1
 870 120 l 1
620 370 m 1
 620 255 l 1
 505 255 l 1
 505 370 l 1
 620 370 l 1
745 370 m 1
 745 255 l 1
 630 255 l 1
 630 370 l 1
 745 370 l 1
870 245 m 1
 870 130 l 1
 755 130 l 1
 755 245 l 1
 870 245 l 1
620 -255 m 1
 620 -370 l 1
 505 -370 l 1
 505 -255 l 1
 620 -255 l 1
370 -130 m 1
 370 -245 l 1
 255 -245 l 1
 255 -130 l 1
 370 -130 l 1
495 -255 m 1
 495 -370 l 1
 380 -370 l 1
 380 -255 l 1
 495 -255 l 1
495 370 m 1
 495 255 l 1
 380 255 l 1
 380 370 l 1
 495 370 l 1
620 120 m 1
 620 5 l 1
 505 5 l 1
 505 120 l 1
 620 120 l 1
370 370 m 1
 370 255 l 1
 255 255 l 1
 255 370 l 1
 370 370 l 1
245 370 m 1
 245 255 l 1
 130 255 l 1
 130 370 l 1
 245 370 l 1
870 370 m 1
 870 255 l 1
 755 255 l 1
 755 370 l 1
 870 370 l 1
995 370 m 1
 995 255 l 1
 880 255 l 1
 880 370 l 1
 995 370 l 1
1120 120 m 1
 1120 5 l 1
 1005 5 l 1
 1005 120 l 1
 1120 120 l 1
745 -255 m 1
 745 -370 l 1
 630 -370 l 1
 630 -255 l 1
 745 -255 l 1
370 -5 m 1
 370 -120 l 1
 255 -120 l 1
 255 -5 l 1
 370 -5 l 1
620 -5 m 1
 620 -120 l 1
 505 -120 l 1
 505 -5 l 1
 620 -5 l 1
EndSplineSet
EndChar

StartChar: uni066B
Encoding: 1643 1643 89
Width: 500
Flags: W
LayerCount: 2
Fore
SplineSet
370 245 m 1
 370 130 l 1
 255 130 l 1
 255 245 l 1
 370 245 l 1
370 120 m 1
 370 5 l 1
 255 5 l 1
 255 120 l 1
 370 120 l 1
370 -5 m 1
 370 -120 l 1
 255 -120 l 1
 255 -5 l 1
 370 -5 l 1
245 -130 m 1
 245 -245 l 1
 130 -245 l 1
 130 -130 l 1
 245 -130 l 1
120 -130 m 1
 120 -245 l 1
 5 -245 l 1
 5 -130 l 1
 120 -130 l 1
EndSplineSet
EndChar

StartChar: uni066C
Encoding: 1644 1644 90
Width: 500
Flags: W
LayerCount: 2
Fore
SplineSet
370 245 m 1
 370 130 l 1
 255 130 l 1
 255 245 l 1
 370 245 l 1
370 120 m 1
 370 5 l 1
 255 5 l 1
 255 120 l 1
 370 120 l 1
370 -5 m 1
 370 -120 l 1
 255 -120 l 1
 255 -5 l 1
 370 -5 l 1
245 -130 m 1
 245 -245 l 1
 130 -245 l 1
 130 -130 l 1
 245 -130 l 1
120 -130 m 1
 120 -245 l 1
 5 -245 l 1
 5 -130 l 1
 120 -130 l 1
245 245 m 1
 245 130 l 1
 130 130 l 1
 130 245 l 1
 245 245 l 1
EndSplineSet
EndChar

StartChar: uniFC60
Encoding: 64608 64608 91
Width: 0
Flags: W
LayerCount: 2
Fore
SplineSet
120 620 m 1
 120 505 l 1
 5 505 l 1
 5 620 l 1
 120 620 l 1
245 620 m 1
 245 505 l 1
 130 505 l 1
 130 620 l 1
 245 620 l 1
120 870 m 1
 120 755 l 1
 5 755 l 1
 5 870 l 1
 120 870 l 1
245 995 m 1
 245 880 l 1
 130 880 l 1
 130 995 l 1
 245 995 l 1
EndSplineSet
EndChar

StartChar: uniFC61
Encoding: 64609 64609 92
Width: 0
Flags: W
LayerCount: 2
Fore
SplineSet
120 620 m 1
 120 505 l 1
 5 505 l 1
 5 620 l 1
 120 620 l 1
245 620 m 1
 245 505 l 1
 130 505 l 1
 130 620 l 1
 245 620 l 1
120 870 m 1
 120 755 l 1
 5 755 l 1
 5 870 l 1
 120 870 l 1
245 870 m 1
 245 755 l 1
 130 755 l 1
 130 870 l 1
 245 870 l 1
245 995 m 1
 245 880 l 1
 130 880 l 1
 130 995 l 1
 245 995 l 1
EndSplineSet
EndChar

StartChar: uniFEF7
Encoding: 65271 65271 93
Width: 1000
Flags: W
LayerCount: 2
Fore
SplineSet
370 620 m 1
 370 505 l 1
 255 505 l 1
 255 620 l 1
 370 620 l 1
495 495 m 1
 495 380 l 1
 380 380 l 1
 380 495 l 1
 495 495 l 1
745 120 m 1
 745 5 l 1
 630 5 l 1
 630 120 l 1
 745 120 l 1
620 120 m 1
 620 5 l 1
 505 5 l 1
 505 120 l 1
 620 120 l 1
620 370 m 1
 620 255 l 1
 505 255 l 1
 505 370 l 1
 620 370 l 1
870 495 m 1
 870 380 l 1
 755 380 l 1
 755 495 l 1
 870 495 l 1
870 620 m 1
 870 505 l 1
 755 505 l 1
 755 620 l 1
 870 620 l 1
870 245 m 1
 870 130 l 1
 755 130 l 1
 755 245 l 1
 870 245 l 1
495 245 m 1
 495 130 l 1
 380 130 l 1
 380 245 l 1
 495 245 l 1
870 745 m 1
 870 630 l 1
 755 630 l 1
 755 745 l 1
 870 745 l 1
745 370 m 1
 745 255 l 1
 630 255 l 1
 630 370 l 1
 745 370 l 1
870 870 m 1
 870 755 l 1
 755 755 l 1
 755 870 l 1
 870 870 l 1
870 995 m 1
 870 880 l 1
 755 880 l 1
 755 995 l 1
 870 995 l 1
245 870 m 1
 245 755 l 1
 130 755 l 1
 130 870 l 1
 245 870 l 1
370 995 m 1
 370 880 l 1
 255 880 l 1
 255 995 l 1
 370 995 l 1
495 870 m 1
 495 755 l 1
 380 755 l 1
 380 870 l 1
 495 870 l 1
370 870 m 1
 370 755 l 1
 255 755 l 1
 255 870 l 1
 370 870 l 1
495 1120 m 1
 495 1005 l 1
 380 1005 l 1
 380 1120 l 1
 495 1120 l 1
EndSplineSet
EndChar

StartChar: uniFEA2
Encoding: 65186 65186 94
Width: 1000
Flags: W
LayerCount: 2
Fore
SplineSet
870 120 m 1
 870 5 l 1
 755 5 l 1
 755 120 l 1
 870 120 l 1
245 245 m 1
 245 130 l 1
 130 130 l 1
 130 245 l 1
 245 245 l 1
245 120 m 1
 245 5 l 1
 130 5 l 1
 130 120 l 1
 245 120 l 1
745 120 m 1
 745 5 l 1
 630 5 l 1
 630 120 l 1
 745 120 l 1
495 370 m 1
 495 255 l 1
 380 255 l 1
 380 370 l 1
 495 370 l 1
620 370 m 1
 620 255 l 1
 505 255 l 1
 505 370 l 1
 620 370 l 1
745 245 m 1
 745 130 l 1
 630 130 l 1
 630 245 l 1
 745 245 l 1
495 -255 m 1
 495 -370 l 1
 380 -370 l 1
 380 -255 l 1
 495 -255 l 1
245 -130 m 1
 245 -245 l 1
 130 -245 l 1
 130 -130 l 1
 245 -130 l 1
370 -255 m 1
 370 -370 l 1
 255 -370 l 1
 255 -255 l 1
 370 -255 l 1
370 370 m 1
 370 255 l 1
 255 255 l 1
 255 370 l 1
 370 370 l 1
245 370 m 1
 245 255 l 1
 130 255 l 1
 130 370 l 1
 245 370 l 1
120 370 m 1
 120 255 l 1
 5 255 l 1
 5 370 l 1
 120 370 l 1
745 370 m 1
 745 255 l 1
 630 255 l 1
 630 370 l 1
 745 370 l 1
870 370 m 1
 870 255 l 1
 755 255 l 1
 755 370 l 1
 870 370 l 1
995 120 m 1
 995 5 l 1
 880 5 l 1
 880 120 l 1
 995 120 l 1
620 -255 m 1
 620 -370 l 1
 505 -370 l 1
 505 -255 l 1
 620 -255 l 1
245 -5 m 1
 245 -120 l 1
 130 -120 l 1
 130 -5 l 1
 245 -5 l 1
EndSplineSet
EndChar

StartChar: uniFEA6
Encoding: 65190 65190 95
Width: 1125
Flags: W
LayerCount: 2
Fore
SplineSet
995 120 m 1
 995 5 l 1
 880 5 l 1
 880 120 l 1
 995 120 l 1
370 245 m 1
 370 130 l 1
 255 130 l 1
 255 245 l 1
 370 245 l 1
370 120 m 1
 370 5 l 1
 255 5 l 1
 255 120 l 1
 370 120 l 1
870 120 m 1
 870 5 l 1
 755 5 l 1
 755 120 l 1
 870 120 l 1
620 370 m 1
 620 255 l 1
 505 255 l 1
 505 370 l 1
 620 370 l 1
745 370 m 1
 745 255 l 1
 630 255 l 1
 630 370 l 1
 745 370 l 1
870 245 m 1
 870 130 l 1
 755 130 l 1
 755 245 l 1
 870 245 l 1
620 -255 m 1
 620 -370 l 1
 505 -370 l 1
 505 -255 l 1
 620 -255 l 1
370 -130 m 1
 370 -245 l 1
 255 -245 l 1
 255 -130 l 1
 370 -130 l 1
495 -255 m 1
 495 -370 l 1
 380 -370 l 1
 380 -255 l 1
 495 -255 l 1
495 370 m 1
 495 255 l 1
 380 255 l 1
 380 370 l 1
 495 370 l 1
620 870 m 1
 620 755 l 1
 505 755 l 1
 505 870 l 1
 620 870 l 1
370 370 m 1
 370 255 l 1
 255 255 l 1
 255 370 l 1
 370 370 l 1
245 370 m 1
 245 255 l 1
 130 255 l 1
 130 370 l 1
 245 370 l 1
870 370 m 1
 870 255 l 1
 755 255 l 1
 755 370 l 1
 870 370 l 1
995 370 m 1
 995 255 l 1
 880 255 l 1
 880 370 l 1
 995 370 l 1
1120 120 m 1
 1120 5 l 1
 1005 5 l 1
 1005 120 l 1
 1120 120 l 1
745 -255 m 1
 745 -370 l 1
 630 -370 l 1
 630 -255 l 1
 745 -255 l 1
370 -5 m 1
 370 -120 l 1
 255 -120 l 1
 255 -5 l 1
 370 -5 l 1
620 745 m 1
 620 630 l 1
 505 630 l 1
 505 745 l 1
 620 745 l 1
EndSplineSet
EndChar

StartChar: uniFEAA
Encoding: 65194 65194 96
Width: 875
Flags: W
LayerCount: 2
Fore
SplineSet
495 120 m 1
 495 5 l 1
 380 5 l 1
 380 120 l 1
 495 120 l 1
620 120 m 1
 620 5 l 1
 505 5 l 1
 505 120 l 1
 620 120 l 1
745 120 m 1
 745 5 l 1
 630 5 l 1
 630 120 l 1
 745 120 l 1
620 245 m 1
 620 130 l 1
 505 130 l 1
 505 245 l 1
 620 245 l 1
620 370 m 1
 620 255 l 1
 505 255 l 1
 505 370 l 1
 620 370 l 1
370 120 m 1
 370 5 l 1
 255 5 l 1
 255 120 l 1
 370 120 l 1
870 120 m 1
 870 5 l 1
 755 5 l 1
 755 120 l 1
 870 120 l 1
620 495 m 1
 620 380 l 1
 505 380 l 1
 505 495 l 1
 620 495 l 1
620 620 m 1
 620 505 l 1
 505 505 l 1
 505 620 l 1
 620 620 l 1
245 245 m 1
 245 130 l 1
 130 130 l 1
 130 245 l 1
 245 245 l 1
245 371 m 1
 245 256 l 1
 130 256 l 1
 130 371 l 1
 245 371 l 1
EndSplineSet
EndChar

StartChar: uniFEAC
Encoding: 65196 65196 97
Width: 875
Flags: W
LayerCount: 2
Fore
SplineSet
495 120 m 1
 495 5 l 1
 380 5 l 1
 380 120 l 1
 495 120 l 1
620 120 m 1
 620 5 l 1
 505 5 l 1
 505 120 l 1
 620 120 l 1
745 120 m 1
 745 5 l 1
 630 5 l 1
 630 120 l 1
 745 120 l 1
620 245 m 1
 620 130 l 1
 505 130 l 1
 505 245 l 1
 620 245 l 1
620 370 m 1
 620 255 l 1
 505 255 l 1
 505 370 l 1
 620 370 l 1
370 120 m 1
 370 5 l 1
 255 5 l 1
 255 120 l 1
 370 120 l 1
870 120 m 1
 870 5 l 1
 755 5 l 1
 755 120 l 1
 870 120 l 1
620 620 m 1
 620 505 l 1
 505 505 l 1
 505 620 l 1
 620 620 l 1
620 870 m 1
 620 755 l 1
 505 755 l 1
 505 870 l 1
 620 870 l 1
620 995 m 1
 620 880 l 1
 505 880 l 1
 505 995 l 1
 620 995 l 1
620 495 m 1
 620 380 l 1
 505 380 l 1
 505 495 l 1
 620 495 l 1
245 245 m 1
 245 130 l 1
 130 130 l 1
 130 245 l 1
 245 245 l 1
245 371 m 1
 245 256 l 1
 130 256 l 1
 130 371 l 1
 245 371 l 1
EndSplineSet
EndChar

StartChar: uniFEAE
Encoding: 65198 65198 98
Width: 875
Flags: W
LayerCount: 2
Fore
SplineSet
870 120 m 1
 870 5 l 1
 755 5 l 1
 755 120 l 1
 870 120 l 1
745 120 m 1
 745 5 l 1
 630 5 l 1
 630 120 l 1
 745 120 l 1
620 245 m 1
 620 130 l 1
 505 130 l 1
 505 245 l 1
 620 245 l 1
620 120 m 1
 620 5 l 1
 505 5 l 1
 505 120 l 1
 620 120 l 1
620 -5 m 1
 620 -120 l 1
 505 -120 l 1
 505 -5 l 1
 620 -5 l 1
370 -130 m 1
 370 -245 l 1
 255 -245 l 1
 255 -130 l 1
 370 -130 l 1
495 -130 m 1
 495 -245 l 1
 380 -245 l 1
 380 -130 l 1
 495 -130 l 1
245 -130 m 1
 245 -245 l 1
 130 -245 l 1
 130 -130 l 1
 245 -130 l 1
EndSplineSet
EndChar

StartChar: uniFEB0
Encoding: 65200 65200 99
Width: 875
Flags: W
LayerCount: 2
Fore
SplineSet
870 120 m 1
 870 5 l 1
 755 5 l 1
 755 120 l 1
 870 120 l 1
745 120 m 1
 745 5 l 1
 630 5 l 1
 630 120 l 1
 745 120 l 1
620 245 m 1
 620 130 l 1
 505 130 l 1
 505 245 l 1
 620 245 l 1
620 120 m 1
 620 5 l 1
 505 5 l 1
 505 120 l 1
 620 120 l 1
620 -5 m 1
 620 -120 l 1
 505 -120 l 1
 505 -5 l 1
 620 -5 l 1
370 -130 m 1
 370 -245 l 1
 255 -245 l 1
 255 -130 l 1
 370 -130 l 1
495 -130 m 1
 495 -245 l 1
 380 -245 l 1
 380 -130 l 1
 495 -130 l 1
245 -130 m 1
 245 -245 l 1
 130 -245 l 1
 130 -130 l 1
 245 -130 l 1
620 745 m 1
 620 630 l 1
 505 630 l 1
 505 745 l 1
 620 745 l 1
620 620 m 1
 620 505 l 1
 505 505 l 1
 505 620 l 1
 620 620 l 1
EndSplineSet
EndChar

StartChar: uniFEB2
Encoding: 65202 65202 100
Width: 1500
Flags: W
LayerCount: 2
Fore
SplineSet
995 120 m 1
 995 5 l 1
 880 5 l 1
 880 120 l 1
 995 120 l 1
870 245 m 1
 870 130 l 1
 755 130 l 1
 755 245 l 1
 870 245 l 1
870 120 m 1
 870 5 l 1
 755 5 l 1
 755 120 l 1
 870 120 l 1
870 -5 m 1
 870 -120 l 1
 755 -120 l 1
 755 -5 l 1
 870 -5 l 1
370 -130 m 1
 370 -245 l 1
 255 -245 l 1
 255 -130 l 1
 370 -130 l 1
745 -130 m 1
 745 -245 l 1
 630 -245 l 1
 630 -130 l 1
 745 -130 l 1
245 -5 m 1
 245 -120 l 1
 130 -120 l 1
 130 -5 l 1
 245 -5 l 1
870 370 m 1
 870 255 l 1
 755 255 l 1
 755 370 l 1
 870 370 l 1
245 120 m 1
 245 5 l 1
 130 5 l 1
 130 120 l 1
 245 120 l 1
1121 120 m 1
 1121 5 l 1
 1006 5 l 1
 1006 120 l 1
 1121 120 l 1
1246 120 m 1
 1246 5 l 1
 1131 5 l 1
 1131 120 l 1
 1246 120 l 1
1121 245 m 1
 1121 130 l 1
 1006 130 l 1
 1006 245 l 1
 1121 245 l 1
1121 370 m 1
 1121 255 l 1
 1006 255 l 1
 1006 370 l 1
 1121 370 l 1
1371 120 m 1
 1371 5 l 1
 1256 5 l 1
 1256 120 l 1
 1371 120 l 1
1495 120 m 1
 1495 5 l 1
 1380 5 l 1
 1380 120 l 1
 1495 120 l 1
1371 245 m 1
 1371 130 l 1
 1256 130 l 1
 1256 245 l 1
 1371 245 l 1
1371 370 m 1
 1371 255 l 1
 1256 255 l 1
 1256 370 l 1
 1371 370 l 1
620 -130 m 1
 620 -245 l 1
 505 -245 l 1
 505 -130 l 1
 620 -130 l 1
495 -130 m 1
 495 -245 l 1
 380 -245 l 1
 380 -130 l 1
 495 -130 l 1
EndSplineSet
EndChar

StartChar: uniFEB6
Encoding: 65206 65206 101
Width: 1500
Flags: W
LayerCount: 2
Fore
SplineSet
995 120 m 1
 995 5 l 1
 880 5 l 1
 880 120 l 1
 995 120 l 1
870 245 m 1
 870 130 l 1
 755 130 l 1
 755 245 l 1
 870 245 l 1
870 120 m 1
 870 5 l 1
 755 5 l 1
 755 120 l 1
 870 120 l 1
870 -5 m 1
 870 -120 l 1
 755 -120 l 1
 755 -5 l 1
 870 -5 l 1
370 -130 m 1
 370 -245 l 1
 255 -245 l 1
 255 -130 l 1
 370 -130 l 1
745 -130 m 1
 745 -245 l 1
 630 -245 l 1
 630 -130 l 1
 745 -130 l 1
245 -5 m 1
 245 -120 l 1
 130 -120 l 1
 130 -5 l 1
 245 -5 l 1
870 370 m 1
 870 255 l 1
 755 255 l 1
 755 370 l 1
 870 370 l 1
245 120 m 1
 245 5 l 1
 130 5 l 1
 130 120 l 1
 245 120 l 1
1121 120 m 1
 1121 5 l 1
 1006 5 l 1
 1006 120 l 1
 1121 120 l 1
1246 120 m 1
 1246 5 l 1
 1131 5 l 1
 1131 120 l 1
 1246 120 l 1
1121 245 m 1
 1121 130 l 1
 1006 130 l 1
 1006 245 l 1
 1121 245 l 1
1121 370 m 1
 1121 255 l 1
 1006 255 l 1
 1006 370 l 1
 1121 370 l 1
1371 120 m 1
 1371 5 l 1
 1256 5 l 1
 1256 120 l 1
 1371 120 l 1
1495 120 m 1
 1495 5 l 1
 1380 5 l 1
 1380 120 l 1
 1495 120 l 1
1371 245 m 1
 1371 130 l 1
 1256 130 l 1
 1256 245 l 1
 1371 245 l 1
1371 370 m 1
 1371 255 l 1
 1256 255 l 1
 1256 370 l 1
 1371 370 l 1
1120 995 m 1
 1120 880 l 1
 1005 880 l 1
 1005 995 l 1
 1120 995 l 1
995 870 m 1
 995 755 l 1
 880 755 l 1
 880 870 l 1
 995 870 l 1
995 745 m 1
 995 630 l 1
 880 630 l 1
 880 745 l 1
 995 745 l 1
1245 870 m 1
 1245 755 l 1
 1130 755 l 1
 1130 870 l 1
 1245 870 l 1
1245 745 m 1
 1245 630 l 1
 1130 630 l 1
 1130 745 l 1
 1245 745 l 1
620 -130 m 1
 620 -245 l 1
 505 -245 l 1
 505 -130 l 1
 620 -130 l 1
495 -130 m 1
 495 -245 l 1
 380 -245 l 1
 380 -130 l 1
 495 -130 l 1
EndSplineSet
EndChar

StartChar: uniFEBA
Encoding: 65210 65210 102
Width: 1625
Flags: W
LayerCount: 2
Fore
SplineSet
1120 120 m 1
 1120 5 l 1
 1005 5 l 1
 1005 120 l 1
 1120 120 l 1
870 120 m 1
 870 5 l 1
 755 5 l 1
 755 120 l 1
 870 120 l 1
870 -5 m 1
 870 -120 l 1
 755 -120 l 1
 755 -5 l 1
 870 -5 l 1
370 -130 m 1
 370 -245 l 1
 255 -245 l 1
 255 -130 l 1
 370 -130 l 1
745 -130 m 1
 745 -245 l 1
 630 -245 l 1
 630 -130 l 1
 745 -130 l 1
245 -5 m 1
 245 -120 l 1
 130 -120 l 1
 130 -5 l 1
 245 -5 l 1
245 120 m 1
 245 5 l 1
 130 5 l 1
 130 120 l 1
 245 120 l 1
1245 120 m 1
 1245 5 l 1
 1130 5 l 1
 1130 120 l 1
 1245 120 l 1
1370 120 m 1
 1370 5 l 1
 1255 5 l 1
 1255 120 l 1
 1370 120 l 1
1120 245 m 1
 1120 130 l 1
 1005 130 l 1
 1005 245 l 1
 1120 245 l 1
1120 370 m 1
 1120 255 l 1
 1005 255 l 1
 1005 370 l 1
 1120 370 l 1
1495 245 m 1
 1495 130 l 1
 1380 130 l 1
 1380 245 l 1
 1495 245 l 1
1495 370 m 1
 1495 255 l 1
 1380 255 l 1
 1380 370 l 1
 1495 370 l 1
620 -130 m 1
 620 -245 l 1
 505 -245 l 1
 505 -130 l 1
 620 -130 l 1
1245 495 m 1
 1245 380 l 1
 1130 380 l 1
 1130 495 l 1
 1245 495 l 1
1370 495 m 1
 1370 380 l 1
 1255 380 l 1
 1255 495 l 1
 1370 495 l 1
995 120 m 1
 995 5 l 1
 880 5 l 1
 880 120 l 1
 995 120 l 1
870 245 m 1
 870 130 l 1
 755 130 l 1
 755 245 l 1
 870 245 l 1
1495 120 m 1
 1495 5 l 1
 1380 5 l 1
 1380 120 l 1
 1495 120 l 1
1620 120 m 1
 1620 5 l 1
 1505 5 l 1
 1505 120 l 1
 1620 120 l 1
1120 -5 m 1
 1120 -120 l 1
 1005 -120 l 1
 1005 -5 l 1
 1120 -5 l 1
496 -130 m 1
 496 -245 l 1
 381 -245 l 1
 381 -130 l 1
 496 -130 l 1
EndSplineSet
EndChar

StartChar: uniFEBE
Encoding: 65214 65214 103
Width: 1625
Flags: W
LayerCount: 2
Fore
SplineSet
1120 120 m 1
 1120 5 l 1
 1005 5 l 1
 1005 120 l 1
 1120 120 l 1
870 120 m 1
 870 5 l 1
 755 5 l 1
 755 120 l 1
 870 120 l 1
870 -5 m 1
 870 -120 l 1
 755 -120 l 1
 755 -5 l 1
 870 -5 l 1
370 -130 m 1
 370 -245 l 1
 255 -245 l 1
 255 -130 l 1
 370 -130 l 1
745 -130 m 1
 745 -245 l 1
 630 -245 l 1
 630 -130 l 1
 745 -130 l 1
245 -5 m 1
 245 -120 l 1
 130 -120 l 1
 130 -5 l 1
 245 -5 l 1
245 120 m 1
 245 5 l 1
 130 5 l 1
 130 120 l 1
 245 120 l 1
1245 120 m 1
 1245 5 l 1
 1130 5 l 1
 1130 120 l 1
 1245 120 l 1
1370 120 m 1
 1370 5 l 1
 1255 5 l 1
 1255 120 l 1
 1370 120 l 1
1120 245 m 1
 1120 130 l 1
 1005 130 l 1
 1005 245 l 1
 1120 245 l 1
1120 370 m 1
 1120 255 l 1
 1005 255 l 1
 1005 370 l 1
 1120 370 l 1
1495 245 m 1
 1495 130 l 1
 1380 130 l 1
 1380 245 l 1
 1495 245 l 1
1495 370 m 1
 1495 255 l 1
 1380 255 l 1
 1380 370 l 1
 1495 370 l 1
620 -130 m 1
 620 -245 l 1
 505 -245 l 1
 505 -130 l 1
 620 -130 l 1
1245 495 m 1
 1245 380 l 1
 1130 380 l 1
 1130 495 l 1
 1245 495 l 1
1370 495 m 1
 1370 380 l 1
 1255 380 l 1
 1255 495 l 1
 1370 495 l 1
995 120 m 1
 995 5 l 1
 880 5 l 1
 880 120 l 1
 995 120 l 1
870 245 m 1
 870 130 l 1
 755 130 l 1
 755 245 l 1
 870 245 l 1
1495 120 m 1
 1495 5 l 1
 1380 5 l 1
 1380 120 l 1
 1495 120 l 1
1620 120 m 1
 1620 5 l 1
 1505 5 l 1
 1505 120 l 1
 1620 120 l 1
1245 745 m 1
 1245 630 l 1
 1130 630 l 1
 1130 745 l 1
 1245 745 l 1
1245 870 m 1
 1245 755 l 1
 1130 755 l 1
 1130 870 l 1
 1245 870 l 1
1120 -5 m 1
 1120 -120 l 1
 1005 -120 l 1
 1005 -5 l 1
 1120 -5 l 1
495 -130 m 1
 495 -245 l 1
 380 -245 l 1
 380 -130 l 1
 495 -130 l 1
EndSplineSet
EndChar

StartChar: uniFEC2
Encoding: 65218 65218 104
Width: 1000
Flags: W
LayerCount: 2
Fore
SplineSet
245 120 m 1
 245 5 l 1
 130 5 l 1
 130 120 l 1
 245 120 l 1
495 120 m 1
 495 5 l 1
 380 5 l 1
 380 120 l 1
 495 120 l 1
370 120 m 1
 370 5 l 1
 255 5 l 1
 255 120 l 1
 370 120 l 1
620 120 m 1
 620 5 l 1
 505 5 l 1
 505 120 l 1
 620 120 l 1
495 245 m 1
 495 130 l 1
 380 130 l 1
 380 245 l 1
 495 245 l 1
495 370 m 1
 495 255 l 1
 380 255 l 1
 380 370 l 1
 495 370 l 1
495 495 m 1
 495 380 l 1
 380 380 l 1
 380 495 l 1
 495 495 l 1
495 620 m 1
 495 505 l 1
 380 505 l 1
 380 620 l 1
 495 620 l 1
745 120 m 1
 745 5 l 1
 630 5 l 1
 630 120 l 1
 745 120 l 1
870 120 m 1
 870 5 l 1
 755 5 l 1
 755 120 l 1
 870 120 l 1
995 120 m 1
 995 5 l 1
 880 5 l 1
 880 120 l 1
 995 120 l 1
620 495 m 1
 620 380 l 1
 505 380 l 1
 505 495 l 1
 620 495 l 1
745 495 m 1
 745 380 l 1
 630 380 l 1
 630 495 l 1
 745 495 l 1
870 370 m 1
 870 255 l 1
 755 255 l 1
 755 370 l 1
 870 370 l 1
495 745 m 1
 495 630 l 1
 380 630 l 1
 380 745 l 1
 495 745 l 1
870 245 m 1
 870 130 l 1
 755 130 l 1
 755 245 l 1
 870 245 l 1
EndSplineSet
EndChar

StartChar: uniFEC6
Encoding: 65222 65222 105
Width: 1000
Flags: W
LayerCount: 2
Fore
SplineSet
245 120 m 1
 245 5 l 1
 130 5 l 1
 130 120 l 1
 245 120 l 1
495 120 m 1
 495 5 l 1
 380 5 l 1
 380 120 l 1
 495 120 l 1
370 120 m 1
 370 5 l 1
 255 5 l 1
 255 120 l 1
 370 120 l 1
620 120 m 1
 620 5 l 1
 505 5 l 1
 505 120 l 1
 620 120 l 1
495 245 m 1
 495 130 l 1
 380 130 l 1
 380 245 l 1
 495 245 l 1
495 370 m 1
 495 255 l 1
 380 255 l 1
 380 370 l 1
 495 370 l 1
495 495 m 1
 495 380 l 1
 380 380 l 1
 380 495 l 1
 495 495 l 1
495 620 m 1
 495 505 l 1
 380 505 l 1
 380 620 l 1
 495 620 l 1
745 120 m 1
 745 5 l 1
 630 5 l 1
 630 120 l 1
 745 120 l 1
870 120 m 1
 870 5 l 1
 755 5 l 1
 755 120 l 1
 870 120 l 1
995 120 m 1
 995 5 l 1
 880 5 l 1
 880 120 l 1
 995 120 l 1
620 495 m 1
 620 380 l 1
 505 380 l 1
 505 495 l 1
 620 495 l 1
745 495 m 1
 745 380 l 1
 630 380 l 1
 630 495 l 1
 745 495 l 1
870 370 m 1
 870 255 l 1
 755 255 l 1
 755 370 l 1
 870 370 l 1
495 745 m 1
 495 630 l 1
 380 630 l 1
 380 745 l 1
 495 745 l 1
870 245 m 1
 870 130 l 1
 755 130 l 1
 755 245 l 1
 870 245 l 1
745 995 m 1
 745 880 l 1
 630 880 l 1
 630 995 l 1
 745 995 l 1
745 870 m 1
 745 755 l 1
 630 755 l 1
 630 870 l 1
 745 870 l 1
EndSplineSet
EndChar

StartChar: uniFECA
Encoding: 65226 65226 106
Width: 750
Flags: W
LayerCount: 2
Fore
SplineSet
620 494 m 1
 620 379 l 1
 505 379 l 1
 505 494 l 1
 620 494 l 1
495 620 m 1
 495 505 l 1
 380 505 l 1
 380 620 l 1
 495 620 l 1
620 120 m 1
 620 5 l 1
 505 5 l 1
 505 120 l 1
 620 120 l 1
245 120 m 1
 245 5 l 1
 130 5 l 1
 130 120 l 1
 245 120 l 1
245 -5 m 1
 245 -120 l 1
 130 -120 l 1
 130 -5 l 1
 245 -5 l 1
245 494 m 1
 245 379 l 1
 130 379 l 1
 130 494 l 1
 245 494 l 1
495 245 m 1
 495 130 l 1
 380 130 l 1
 380 245 l 1
 495 245 l 1
745 120 m 1
 745 5 l 1
 630 5 l 1
 630 120 l 1
 745 120 l 1
370 245 m 1
 370 130 l 1
 255 130 l 1
 255 245 l 1
 370 245 l 1
370 620 m 1
 370 505 l 1
 255 505 l 1
 255 620 l 1
 370 620 l 1
245 -130 m 1
 245 -245 l 1
 130 -245 l 1
 130 -130 l 1
 245 -130 l 1
370 -255 m 1
 370 -370 l 1
 255 -370 l 1
 255 -255 l 1
 370 -255 l 1
495 -255 m 1
 495 -370 l 1
 380 -370 l 1
 380 -255 l 1
 495 -255 l 1
620 -255 m 1
 620 -370 l 1
 505 -370 l 1
 505 -255 l 1
 620 -255 l 1
620 370 m 1
 620 255 l 1
 505 255 l 1
 505 370 l 1
 620 370 l 1
245 370 m 1
 245 255 l 1
 130 255 l 1
 130 370 l 1
 245 370 l 1
EndSplineSet
EndChar

StartChar: uniFECE
Encoding: 65230 65230 107
Width: 750
Flags: W
LayerCount: 2
Fore
SplineSet
620 494 m 1
 620 379 l 1
 505 379 l 1
 505 494 l 1
 620 494 l 1
495 620 m 1
 495 505 l 1
 380 505 l 1
 380 620 l 1
 495 620 l 1
620 120 m 1
 620 5 l 1
 505 5 l 1
 505 120 l 1
 620 120 l 1
245 120 m 1
 245 5 l 1
 130 5 l 1
 130 120 l 1
 245 120 l 1
245 -5 m 1
 245 -120 l 1
 130 -120 l 1
 130 -5 l 1
 245 -5 l 1
245 494 m 1
 245 379 l 1
 130 379 l 1
 130 494 l 1
 245 494 l 1
495 245 m 1
 495 130 l 1
 380 130 l 1
 380 245 l 1
 495 245 l 1
745 120 m 1
 745 5 l 1
 630 5 l 1
 630 120 l 1
 745 120 l 1
370 245 m 1
 370 130 l 1
 255 130 l 1
 255 245 l 1
 370 245 l 1
370 620 m 1
 370 505 l 1
 255 505 l 1
 255 620 l 1
 370 620 l 1
245 -130 m 1
 245 -245 l 1
 130 -245 l 1
 130 -130 l 1
 245 -130 l 1
370 -255 m 1
 370 -370 l 1
 255 -370 l 1
 255 -255 l 1
 370 -255 l 1
495 -255 m 1
 495 -370 l 1
 380 -370 l 1
 380 -255 l 1
 495 -255 l 1
620 -255 m 1
 620 -370 l 1
 505 -370 l 1
 505 -255 l 1
 620 -255 l 1
620 370 m 1
 620 255 l 1
 505 255 l 1
 505 370 l 1
 620 370 l 1
245 370 m 1
 245 255 l 1
 130 255 l 1
 130 370 l 1
 245 370 l 1
370 995 m 1
 370 880 l 1
 255 880 l 1
 255 995 l 1
 370 995 l 1
370 870 m 1
 370 755 l 1
 255 755 l 1
 255 870 l 1
 370 870 l 1
EndSplineSet
EndChar

StartChar: uniFED2
Encoding: 65234 65234 108
Width: 1250
Flags: W
LayerCount: 2
Fore
SplineSet
1120 494 m 1
 1120 379 l 1
 1005 379 l 1
 1005 494 l 1
 1120 494 l 1
995 619 m 1
 995 504 l 1
 880 504 l 1
 880 619 l 1
 995 619 l 1
1120 120 m 1
 1120 5 l 1
 1005 5 l 1
 1005 120 l 1
 1120 120 l 1
745 120 m 1
 745 5 l 1
 630 5 l 1
 630 120 l 1
 745 120 l 1
745 494 m 1
 745 379 l 1
 630 379 l 1
 630 494 l 1
 745 494 l 1
995 245 m 1
 995 130 l 1
 880 130 l 1
 880 245 l 1
 995 245 l 1
1245 120 m 1
 1245 5 l 1
 1130 5 l 1
 1130 120 l 1
 1245 120 l 1
870 245 m 1
 870 130 l 1
 755 130 l 1
 755 245 l 1
 870 245 l 1
870 620 m 1
 870 505 l 1
 755 505 l 1
 755 620 l 1
 870 620 l 1
1120 370 m 1
 1120 255 l 1
 1005 255 l 1
 1005 370 l 1
 1120 370 l 1
745 370 m 1
 745 255 l 1
 630 255 l 1
 630 370 l 1
 745 370 l 1
620 -5 m 1
 620 -120 l 1
 505 -120 l 1
 505 -5 l 1
 620 -5 l 1
495 -5 m 1
 495 -120 l 1
 380 -120 l 1
 380 -5 l 1
 495 -5 l 1
370 -5 m 1
 370 -120 l 1
 255 -120 l 1
 255 -5 l 1
 370 -5 l 1
245 120 m 1
 245 5 l 1
 130 5 l 1
 130 120 l 1
 245 120 l 1
245 245 m 1
 245 130 l 1
 130 130 l 1
 130 245 l 1
 245 245 l 1
870 870 m 1
 870 755 l 1
 755 755 l 1
 755 870 l 1
 870 870 l 1
870 995 m 1
 870 880 l 1
 755 880 l 1
 755 995 l 1
 870 995 l 1
EndSplineSet
EndChar

StartChar: uniFED6
Encoding: 65238 65238 109
Width: 1250
Flags: W
LayerCount: 2
Fore
SplineSet
1120 494 m 1
 1120 379 l 1
 1005 379 l 1
 1005 494 l 1
 1120 494 l 1
995 619 m 1
 995 504 l 1
 880 504 l 1
 880 619 l 1
 995 619 l 1
1120 120 m 1
 1120 5 l 1
 1005 5 l 1
 1005 120 l 1
 1120 120 l 1
745 120 m 1
 745 5 l 1
 630 5 l 1
 630 120 l 1
 745 120 l 1
745 494 m 1
 745 379 l 1
 630 379 l 1
 630 494 l 1
 745 494 l 1
995 245 m 1
 995 130 l 1
 880 130 l 1
 880 245 l 1
 995 245 l 1
1245 120 m 1
 1245 5 l 1
 1130 5 l 1
 1130 120 l 1
 1245 120 l 1
870 245 m 1
 870 130 l 1
 755 130 l 1
 755 245 l 1
 870 245 l 1
870 620 m 1
 870 505 l 1
 755 505 l 1
 755 620 l 1
 870 620 l 1
1120 370 m 1
 1120 255 l 1
 1005 255 l 1
 1005 370 l 1
 1120 370 l 1
745 370 m 1
 745 255 l 1
 630 255 l 1
 630 370 l 1
 745 370 l 1
620 -5 m 1
 620 -120 l 1
 505 -120 l 1
 505 -5 l 1
 620 -5 l 1
495 -5 m 1
 495 -120 l 1
 380 -120 l 1
 380 -5 l 1
 495 -5 l 1
370 -5 m 1
 370 -120 l 1
 255 -120 l 1
 255 -5 l 1
 370 -5 l 1
245 120 m 1
 245 5 l 1
 130 5 l 1
 130 120 l 1
 245 120 l 1
245 245 m 1
 245 130 l 1
 130 130 l 1
 130 245 l 1
 245 245 l 1
745 870 m 1
 745 755 l 1
 630 755 l 1
 630 870 l 1
 745 870 l 1
745 995 m 1
 745 880 l 1
 630 880 l 1
 630 995 l 1
 745 995 l 1
995 870 m 1
 995 755 l 1
 880 755 l 1
 880 870 l 1
 995 870 l 1
995 995 m 1
 995 880 l 1
 880 880 l 1
 880 995 l 1
 995 995 l 1
EndSplineSet
EndChar

StartChar: uniFEDA
Encoding: 65242 65242 110
Width: 1000
Flags: W
LayerCount: 2
Fore
SplineSet
995 120 m 1
 995 5 l 1
 880 5 l 1
 880 120 l 1
 995 120 l 1
870 245 m 1
 870 130 l 1
 755 130 l 1
 755 245 l 1
 870 245 l 1
745 -5 m 1
 745 -120 l 1
 630 -120 l 1
 630 -5 l 1
 745 -5 l 1
370 -5 m 1
 370 -120 l 1
 255 -120 l 1
 255 -5 l 1
 370 -5 l 1
620 -5 m 1
 620 -120 l 1
 505 -120 l 1
 505 -5 l 1
 620 -5 l 1
245 120 m 1
 245 5 l 1
 130 5 l 1
 130 120 l 1
 245 120 l 1
495 -5 m 1
 495 -120 l 1
 380 -120 l 1
 380 -5 l 1
 495 -5 l 1
870 370 m 1
 870 255 l 1
 755 255 l 1
 755 370 l 1
 870 370 l 1
245 245 m 1
 245 130 l 1
 130 130 l 1
 130 245 l 1
 245 245 l 1
870 120 m 1
 870 5 l 1
 755 5 l 1
 755 120 l 1
 870 120 l 1
870 495 m 1
 870 380 l 1
 755 380 l 1
 755 495 l 1
 870 495 l 1
500 496 m 1
 500 381 l 1
 385 381 l 1
 385 496 l 1
 500 496 l 1
620 621 m 1
 620 506 l 1
 505 506 l 1
 505 621 l 1
 620 621 l 1
495 746 m 1
 495 631 l 1
 380 631 l 1
 380 746 l 1
 495 746 l 1
620 871 m 1
 620 756 l 1
 505 756 l 1
 505 871 l 1
 620 871 l 1
EndSplineSet
EndChar

StartChar: uniFEDE
Encoding: 65246 65246 111
Width: 875
Flags: W
LayerCount: 2
Fore
SplineSet
745 245 m 1
 745 130 l 1
 630 130 l 1
 630 245 l 1
 745 245 l 1
745 370 m 1
 745 255 l 1
 630 255 l 1
 630 370 l 1
 745 370 l 1
745 495 m 1
 745 380 l 1
 630 380 l 1
 630 495 l 1
 745 495 l 1
745 745 m 1
 745 630 l 1
 630 630 l 1
 630 745 l 1
 745 745 l 1
745 620 m 1
 745 505 l 1
 630 505 l 1
 630 620 l 1
 745 620 l 1
870 120 m 1
 870 5 l 1
 755 5 l 1
 755 120 l 1
 870 120 l 1
745 871 m 1
 745 756 l 1
 630 756 l 1
 630 871 l 1
 745 871 l 1
745 995 m 1
 745 880 l 1
 630 880 l 1
 630 995 l 1
 745 995 l 1
370 -130 m 1
 370 -245 l 1
 255 -245 l 1
 255 -130 l 1
 370 -130 l 1
620 -130 m 1
 620 -245 l 1
 505 -245 l 1
 505 -130 l 1
 620 -130 l 1
245 -5 m 1
 245 -120 l 1
 130 -120 l 1
 130 -5 l 1
 245 -5 l 1
245 120 m 1
 245 5 l 1
 130 5 l 1
 130 120 l 1
 245 120 l 1
495 -130 m 1
 495 -245 l 1
 380 -245 l 1
 380 -130 l 1
 495 -130 l 1
745 -5 m 1
 745 -120 l 1
 630 -120 l 1
 630 -5 l 1
 745 -5 l 1
745 120 m 1
 745 5 l 1
 630 5 l 1
 630 120 l 1
 745 120 l 1
EndSplineSet
EndChar

StartChar: uniFEE2
Encoding: 65250 65250 112
Width: 1000
Flags: W
LayerCount: 2
Fore
SplineSet
745 -5 m 1
 745 -120 l 1
 630 -120 l 1
 630 -5 l 1
 745 -5 l 1
745 370 m 1
 745 255 l 1
 630 255 l 1
 630 370 l 1
 745 370 l 1
620 370 m 1
 620 255 l 1
 505 255 l 1
 505 370 l 1
 620 370 l 1
870 120 m 1
 870 5 l 1
 755 5 l 1
 755 120 l 1
 870 120 l 1
495 120 m 1
 495 5 l 1
 380 5 l 1
 380 120 l 1
 495 120 l 1
620 -5 m 1
 620 -120 l 1
 505 -120 l 1
 505 -5 l 1
 620 -5 l 1
370 120 m 1
 370 5 l 1
 255 5 l 1
 255 120 l 1
 370 120 l 1
495 245 m 1
 495 130 l 1
 380 130 l 1
 380 245 l 1
 495 245 l 1
870 245 m 1
 870 130 l 1
 755 130 l 1
 755 245 l 1
 870 245 l 1
995 120 m 1
 995 5 l 1
 880 5 l 1
 880 120 l 1
 995 120 l 1
245 -130 m 1
 245 -245 l 1
 130 -245 l 1
 130 -130 l 1
 245 -130 l 1
245 -5 m 1
 245 -120 l 1
 130 -120 l 1
 130 -5 l 1
 245 -5 l 1
245 -255 m 1
 245 -370 l 1
 130 -370 l 1
 130 -255 l 1
 245 -255 l 1
EndSplineSet
EndChar

StartChar: uniFEE6
Encoding: 65254 65254 113
Width: 1125
Flags: W
LayerCount: 2
Fore
SplineSet
1120 120 m 1
 1120 5 l 1
 1005 5 l 1
 1005 120 l 1
 1120 120 l 1
995 245 m 1
 995 130 l 1
 880 130 l 1
 880 245 l 1
 995 245 l 1
995 120 m 1
 995 5 l 1
 880 5 l 1
 880 120 l 1
 995 120 l 1
995 -5 m 1
 995 -120 l 1
 880 -120 l 1
 880 -5 l 1
 995 -5 l 1
370 -130 m 1
 370 -245 l 1
 255 -245 l 1
 255 -130 l 1
 370 -130 l 1
870 -130 m 1
 870 -245 l 1
 755 -245 l 1
 755 -130 l 1
 870 -130 l 1
245 -5 m 1
 245 -120 l 1
 130 -120 l 1
 130 -5 l 1
 245 -5 l 1
245 120 m 1
 245 5 l 1
 130 5 l 1
 130 120 l 1
 245 120 l 1
495 -130 m 1
 495 -245 l 1
 380 -245 l 1
 380 -130 l 1
 495 -130 l 1
620 495 m 1
 620 380 l 1
 505 380 l 1
 505 495 l 1
 620 495 l 1
620 620 m 1
 620 505 l 1
 505 505 l 1
 505 620 l 1
 620 620 l 1
620 -130 m 1
 620 -245 l 1
 505 -245 l 1
 505 -130 l 1
 620 -130 l 1
745 -130 m 1
 745 -245 l 1
 630 -245 l 1
 630 -130 l 1
 745 -130 l 1
EndSplineSet
EndChar

StartChar: uniFEEA
Encoding: 65258 65258 114
Width: 750
Flags: W
LayerCount: 2
Fore
SplineSet
620 245 m 1
 620 130 l 1
 505 130 l 1
 505 245 l 1
 620 245 l 1
620 370 m 1
 620 255 l 1
 505 255 l 1
 505 370 l 1
 620 370 l 1
620 495 m 1
 620 380 l 1
 505 380 l 1
 505 495 l 1
 620 495 l 1
620 620 m 1
 620 505 l 1
 505 505 l 1
 505 620 l 1
 620 620 l 1
745 120 m 1
 745 5 l 1
 630 5 l 1
 630 120 l 1
 745 120 l 1
370 495 m 1
 370 380 l 1
 255 380 l 1
 255 495 l 1
 370 495 l 1
370 245 m 1
 370 130 l 1
 255 130 l 1
 255 245 l 1
 370 245 l 1
245 370 m 1
 245 255 l 1
 130 255 l 1
 130 370 l 1
 245 370 l 1
495 245 m 1
 495 130 l 1
 380 130 l 1
 380 245 l 1
 495 245 l 1
495 495 m 1
 495 380 l 1
 380 380 l 1
 380 495 l 1
 495 495 l 1
620 120 m 1
 620 5 l 1
 505 5 l 1
 505 120 l 1
 620 120 l 1
EndSplineSet
EndChar

StartChar: uniFEEE
Encoding: 65262 65262 115
Width: 875
Flags: W
LayerCount: 2
Fore
SplineSet
870 120 m 1
 870 5 l 1
 755 5 l 1
 755 120 l 1
 870 120 l 1
745 120 m 1
 745 5 l 1
 630 5 l 1
 630 120 l 1
 745 120 l 1
620 245 m 1
 620 130 l 1
 505 130 l 1
 505 245 l 1
 620 245 l 1
620 -130 m 1
 620 -245 l 1
 505 -245 l 1
 505 -130 l 1
 620 -130 l 1
370 -255 m 1
 370 -370 l 1
 255 -370 l 1
 255 -255 l 1
 370 -255 l 1
495 -255 m 1
 495 -370 l 1
 380 -370 l 1
 380 -255 l 1
 495 -255 l 1
245 -255 m 1
 245 -370 l 1
 130 -370 l 1
 130 -255 l 1
 245 -255 l 1
370 120 m 1
 370 5 l 1
 255 5 l 1
 255 120 l 1
 370 120 l 1
495 120 m 1
 495 5 l 1
 380 5 l 1
 380 120 l 1
 495 120 l 1
620 120 m 1
 620 5 l 1
 505 5 l 1
 505 120 l 1
 620 120 l 1
245 245 m 1
 245 130 l 1
 130 130 l 1
 130 245 l 1
 245 245 l 1
620 370 m 1
 620 255 l 1
 505 255 l 1
 505 370 l 1
 620 370 l 1
245 370 m 1
 245 255 l 1
 130 255 l 1
 130 370 l 1
 245 370 l 1
495 495 m 1
 495 380 l 1
 380 380 l 1
 380 495 l 1
 495 495 l 1
370 495 m 1
 370 380 l 1
 255 380 l 1
 255 495 l 1
 370 495 l 1
620 -5 m 1
 620 -120 l 1
 505 -120 l 1
 505 -5 l 1
 620 -5 l 1
EndSplineSet
EndChar

StartChar: uniFEF0
Encoding: 65264 65264 116
Width: 1375
Flags: W
LayerCount: 2
Fore
SplineSet
1245 120 m 1
 1245 5 l 1
 1130 5 l 1
 1130 120 l 1
 1245 120 l 1
1120 370 m 1
 1120 255 l 1
 1005 255 l 1
 1005 370 l 1
 1120 370 l 1
995 370 m 1
 995 255 l 1
 880 255 l 1
 880 370 l 1
 995 370 l 1
745 -5 m 1
 745 -120 l 1
 630 -120 l 1
 630 -5 l 1
 745 -5 l 1
370 -5 m 1
 370 -120 l 1
 255 -120 l 1
 255 -5 l 1
 370 -5 l 1
620 -5 m 1
 620 -120 l 1
 505 -120 l 1
 505 -5 l 1
 620 -5 l 1
245 120 m 1
 245 5 l 1
 130 5 l 1
 130 120 l 1
 245 120 l 1
870 120 m 1
 870 5 l 1
 755 5 l 1
 755 120 l 1
 870 120 l 1
870 245 m 1
 870 130 l 1
 755 130 l 1
 755 245 l 1
 870 245 l 1
245 245 m 1
 245 130 l 1
 130 130 l 1
 130 245 l 1
 245 245 l 1
1245 245 m 1
 1245 130 l 1
 1130 130 l 1
 1130 245 l 1
 1245 245 l 1
1370 120 m 1
 1370 5 l 1
 1255 5 l 1
 1255 120 l 1
 1370 120 l 1
495 -5 m 1
 495 -120 l 1
 380 -120 l 1
 380 -5 l 1
 495 -5 l 1
EndSplineSet
EndChar

StartChar: uniFEF2
Encoding: 65266 65266 117
Width: 1375
Flags: W
LayerCount: 2
Fore
SplineSet
1245 120 m 1
 1245 5 l 1
 1130 5 l 1
 1130 120 l 1
 1245 120 l 1
1120 370 m 1
 1120 255 l 1
 1005 255 l 1
 1005 370 l 1
 1120 370 l 1
995 370 m 1
 995 255 l 1
 880 255 l 1
 880 370 l 1
 995 370 l 1
745 -5 m 1
 745 -120 l 1
 630 -120 l 1
 630 -5 l 1
 745 -5 l 1
370 -5 m 1
 370 -120 l 1
 255 -120 l 1
 255 -5 l 1
 370 -5 l 1
620 -5 m 1
 620 -120 l 1
 505 -120 l 1
 505 -5 l 1
 620 -5 l 1
245 120 m 1
 245 5 l 1
 130 5 l 1
 130 120 l 1
 245 120 l 1
495 -255 m 1
 495 -370 l 1
 380 -370 l 1
 380 -255 l 1
 495 -255 l 1
745 -255 m 1
 745 -370 l 1
 630 -370 l 1
 630 -255 l 1
 745 -255 l 1
495 -380 m 1
 495 -495 l 1
 380 -495 l 1
 380 -380 l 1
 495 -380 l 1
745 -380 m 1
 745 -495 l 1
 630 -495 l 1
 630 -380 l 1
 745 -380 l 1
870 120 m 1
 870 5 l 1
 755 5 l 1
 755 120 l 1
 870 120 l 1
870 245 m 1
 870 130 l 1
 755 130 l 1
 755 245 l 1
 870 245 l 1
245 245 m 1
 245 130 l 1
 130 130 l 1
 130 245 l 1
 245 245 l 1
1245 245 m 1
 1245 130 l 1
 1130 130 l 1
 1130 245 l 1
 1245 245 l 1
1370 120 m 1
 1370 5 l 1
 1255 5 l 1
 1255 120 l 1
 1370 120 l 1
496 -5 m 1
 496 -120 l 1
 381 -120 l 1
 381 -5 l 1
 496 -5 l 1
EndSplineSet
EndChar

StartChar: uniFEF6
Encoding: 65270 65270 118
Width: 1000
Flags: W
LayerCount: 2
Fore
SplineSet
495 493 m 1
 495 378 l 1
 380 378 l 1
 380 493 l 1
 495 493 l 1
620 368 m 1
 620 253 l 1
 505 253 l 1
 505 368 l 1
 620 368 l 1
620 118 m 1
 620 3 l 1
 505 3 l 1
 505 118 l 1
 620 118 l 1
870 368 m 1
 870 253 l 1
 755 253 l 1
 755 368 l 1
 870 368 l 1
870 496 m 1
 870 381 l 1
 755 381 l 1
 755 496 l 1
 870 496 l 1
870 621 m 1
 870 506 l 1
 755 506 l 1
 755 621 l 1
 870 621 l 1
995 121 m 1
 995 6 l 1
 880 6 l 1
 880 121 l 1
 995 121 l 1
745 243 m 1
 745 128 l 1
 630 128 l 1
 630 243 l 1
 745 243 l 1
870 746 m 1
 870 631 l 1
 755 631 l 1
 755 746 l 1
 870 746 l 1
870 871 m 1
 870 756 l 1
 755 756 l 1
 755 871 l 1
 870 871 l 1
870 996 m 1
 870 881 l 1
 755 881 l 1
 755 996 l 1
 870 996 l 1
370 618 m 1
 370 503 l 1
 255 503 l 1
 255 618 l 1
 370 618 l 1
495 -7 m 1
 495 -122 l 1
 380 -122 l 1
 380 -7 l 1
 495 -7 l 1
870 243 m 1
 870 128 l 1
 755 128 l 1
 755 243 l 1
 870 243 l 1
245 870 m 1
 245 755 l 1
 130 755 l 1
 130 870 l 1
 245 870 l 1
370 995 m 1
 370 880 l 1
 255 880 l 1
 255 995 l 1
 370 995 l 1
495 870 m 1
 495 755 l 1
 380 755 l 1
 380 870 l 1
 495 870 l 1
620 995 m 1
 620 880 l 1
 505 880 l 1
 505 995 l 1
 620 995 l 1
EndSplineSet
EndChar

StartChar: uniFC5E
Encoding: 64606 64606 119
Width: 0
Flags: W
LayerCount: 2
Fore
SplineSet
245 620 m 1
 245 505 l 1
 130 505 l 1
 130 620 l 1
 245 620 l 1
120 620 m 1
 120 505 l 1
 5 505 l 1
 5 620 l 1
 120 620 l 1
245 870 m 1
 245 755 l 1
 130 755 l 1
 130 870 l 1
 245 870 l 1
120 870 m 1
 120 755 l 1
 5 755 l 1
 5 870 l 1
 120 870 l 1
EndSplineSet
EndChar

StartChar: uniFE8B
Encoding: 65163 65163 120
Width: 625
Flags: W
LayerCount: 2
Fore
SplineSet
495 370 m 1
 495 255 l 1
 380 255 l 1
 380 370 l 1
 495 370 l 1
495 245 m 1
 495 130 l 1
 380 130 l 1
 380 245 l 1
 495 245 l 1
370 120 m 1
 370 5 l 1
 255 5 l 1
 255 120 l 1
 370 120 l 1
245 120 m 1
 245 5 l 1
 130 5 l 1
 130 120 l 1
 245 120 l 1
120 120 m 1
 120 5 l 1
 5 5 l 1
 5 120 l 1
 120 120 l 1
370 619 m 1
 370 504 l 1
 255 504 l 1
 255 619 l 1
 370 619 l 1
495 620 m 1
 495 505 l 1
 380 505 l 1
 380 620 l 1
 495 620 l 1
370 745 m 1
 370 630 l 1
 255 630 l 1
 255 745 l 1
 370 745 l 1
245 620 m 1
 245 505 l 1
 130 505 l 1
 130 620 l 1
 245 620 l 1
495 870 m 1
 495 755 l 1
 380 755 l 1
 380 870 l 1
 495 870 l 1
EndSplineSet
EndChar

StartChar: uniFEBF
Encoding: 65215 65215 121
Width: 1000
Flags: W
LayerCount: 2
Fore
SplineSet
495 120 m 1
 495 5 l 1
 380 5 l 1
 380 120 l 1
 495 120 l 1
245 120 m 1
 245 5 l 1
 130 5 l 1
 130 120 l 1
 245 120 l 1
120 120 m 1
 120 5 l 1
 5 5 l 1
 5 120 l 1
 120 120 l 1
620 120 m 1
 620 5 l 1
 505 5 l 1
 505 120 l 1
 620 120 l 1
745 120 m 1
 745 5 l 1
 630 5 l 1
 630 120 l 1
 745 120 l 1
495 245 m 1
 495 130 l 1
 380 130 l 1
 380 245 l 1
 495 245 l 1
495 370 m 1
 495 255 l 1
 380 255 l 1
 380 370 l 1
 495 370 l 1
870 245 m 1
 870 130 l 1
 755 130 l 1
 755 245 l 1
 870 245 l 1
870 370 m 1
 870 255 l 1
 755 255 l 1
 755 370 l 1
 870 370 l 1
620 495 m 1
 620 380 l 1
 505 380 l 1
 505 495 l 1
 620 495 l 1
745 495 m 1
 745 380 l 1
 630 380 l 1
 630 495 l 1
 745 495 l 1
370 120 m 1
 370 5 l 1
 255 5 l 1
 255 120 l 1
 370 120 l 1
245 245 m 1
 245 130 l 1
 130 130 l 1
 130 245 l 1
 245 245 l 1
620 745 m 1
 620 630 l 1
 505 630 l 1
 505 745 l 1
 620 745 l 1
620 870 m 1
 620 755 l 1
 505 755 l 1
 505 870 l 1
 620 870 l 1
495 -5 m 1
 495 -120 l 1
 380 -120 l 1
 380 -5 l 1
 495 -5 l 1
EndSplineSet
EndChar

StartChar: dammalowarabic
Encoding: 65543 -1 122
Width: 0
Flags: W
LayerCount: 2
Fore
SplineSet
245 744 m 1
 245 629 l 1
 130 629 l 1
 130 744 l 1
 245 744 l 1
370 494 m 1
 370 379 l 1
 255 379 l 1
 255 494 l 1
 370 494 l 1
120 494 m 1
 120 379 l 1
 5 379 l 1
 5 494 l 1
 120 494 l 1
245 619 m 1
 245 504 l 1
 130 504 l 1
 130 619 l 1
 245 619 l 1
EndSplineSet
EndChar

StartChar: uniFBFF
Encoding: 64511 64511 123
Width: 625
Flags: W
LayerCount: 2
Fore
SplineSet
245 120 m 1
 245 5 l 1
 130 5 l 1
 130 120 l 1
 245 120 l 1
370 120 m 1
 370 5 l 1
 255 5 l 1
 255 120 l 1
 370 120 l 1
495 120 m 1
 495 5 l 1
 380 5 l 1
 380 120 l 1
 495 120 l 1
370 245 m 1
 370 130 l 1
 255 130 l 1
 255 245 l 1
 370 245 l 1
370 370 m 1
 370 255 l 1
 255 255 l 1
 255 370 l 1
 370 370 l 1
245 -255 m 1
 245 -370 l 1
 130 -370 l 1
 130 -255 l 1
 245 -255 l 1
495 -255 m 1
 495 -370 l 1
 380 -370 l 1
 380 -255 l 1
 495 -255 l 1
120 120 m 1
 120 5 l 1
 5 5 l 1
 5 120 l 1
 120 120 l 1
620 120 m 1
 620 5 l 1
 505 5 l 1
 505 120 l 1
 620 120 l 1
245 -380 m 1
 245 -495 l 1
 130 -495 l 1
 130 -380 l 1
 245 -380 l 1
495 -380 m 1
 495 -495 l 1
 380 -495 l 1
 380 -380 l 1
 495 -380 l 1
EndSplineSet
EndChar

StartChar: uniFB95
Encoding: 64405 64405 124
Width: 750
Flags: W
LayerCount: 2
Fore
SplineSet
495 370 m 1
 495 255 l 1
 380 255 l 1
 380 370 l 1
 495 370 l 1
495 120 m 1
 495 5 l 1
 380 5 l 1
 380 120 l 1
 495 120 l 1
370 120 m 1
 370 5 l 1
 255 5 l 1
 255 120 l 1
 370 120 l 1
620 245 m 1
 620 130 l 1
 505 130 l 1
 505 245 l 1
 620 245 l 1
370 495 m 1
 370 380 l 1
 255 380 l 1
 255 495 l 1
 370 495 l 1
245 120 m 1
 245 5 l 1
 130 5 l 1
 130 120 l 1
 245 120 l 1
495 620 m 1
 495 505 l 1
 380 505 l 1
 380 620 l 1
 495 620 l 1
620 745 m 1
 620 630 l 1
 505 630 l 1
 505 745 l 1
 620 745 l 1
745 120 m 1
 745 5 l 1
 630 5 l 1
 630 120 l 1
 745 120 l 1
245 745 m 1
 245 630 l 1
 130 630 l 1
 130 745 l 1
 245 745 l 1
370 870 m 1
 370 755 l 1
 255 755 l 1
 255 870 l 1
 370 870 l 1
495 995 m 1
 495 880 l 1
 380 880 l 1
 380 995 l 1
 495 995 l 1
120 120 m 1
 120 5 l 1
 5 5 l 1
 5 120 l 1
 120 120 l 1
EndSplineSet
EndChar

StartChar: uniFEBB
Encoding: 65211 65211 125
Width: 1000
Flags: W
LayerCount: 2
Fore
SplineSet
495 120 m 1
 495 5 l 1
 380 5 l 1
 380 120 l 1
 495 120 l 1
245 120 m 1
 245 5 l 1
 130 5 l 1
 130 120 l 1
 245 120 l 1
120 120 m 1
 120 5 l 1
 5 5 l 1
 5 120 l 1
 120 120 l 1
620 120 m 1
 620 5 l 1
 505 5 l 1
 505 120 l 1
 620 120 l 1
745 120 m 1
 745 5 l 1
 630 5 l 1
 630 120 l 1
 745 120 l 1
495 245 m 1
 495 130 l 1
 380 130 l 1
 380 245 l 1
 495 245 l 1
495 370 m 1
 495 255 l 1
 380 255 l 1
 380 370 l 1
 495 370 l 1
870 245 m 1
 870 130 l 1
 755 130 l 1
 755 245 l 1
 870 245 l 1
870 370 m 1
 870 255 l 1
 755 255 l 1
 755 370 l 1
 870 370 l 1
620 495 m 1
 620 380 l 1
 505 380 l 1
 505 495 l 1
 620 495 l 1
745 495 m 1
 745 380 l 1
 630 380 l 1
 630 495 l 1
 745 495 l 1
370 120 m 1
 370 5 l 1
 255 5 l 1
 255 120 l 1
 370 120 l 1
245 245 m 1
 245 130 l 1
 130 130 l 1
 130 245 l 1
 245 245 l 1
495 -5 m 1
 495 -120 l 1
 380 -120 l 1
 380 -5 l 1
 495 -5 l 1
EndSplineSet
EndChar

StartChar: uniFB58
Encoding: 64344 64344 126
Width: 625
Flags: W
LayerCount: 2
Fore
SplineSet
495 370 m 1
 495 255 l 1
 380 255 l 1
 380 370 l 1
 495 370 l 1
495 245 m 1
 495 130 l 1
 380 130 l 1
 380 245 l 1
 495 245 l 1
370 120 m 1
 370 5 l 1
 255 5 l 1
 255 120 l 1
 370 120 l 1
495 -129 m 5
 495 -244 l 5
 380 -244 l 5
 380 -129 l 5
 495 -129 l 5
245 -129 m 5
 245 -244 l 5
 130 -244 l 5
 130 -129 l 5
 245 -129 l 5
245 120 m 1
 245 5 l 1
 130 5 l 1
 130 120 l 1
 245 120 l 1
495 -254 m 5
 495 -369 l 5
 380 -369 l 5
 380 -254 l 5
 495 -254 l 5
245 -254 m 5
 245 -369 l 5
 130 -369 l 5
 130 -254 l 5
 245 -254 l 5
370 -379 m 5
 370 -494 l 5
 255 -494 l 5
 255 -379 l 5
 370 -379 l 5
120 120 m 1
 120 5 l 1
 5 5 l 1
 5 120 l 1
 120 120 l 1
EndSplineSet
EndChar

StartChar: uniFB7C
Encoding: 64380 64380 127
Width: 750
Flags: W
LayerCount: 2
Fore
SplineSet
245 -125 m 1
 245 -240 l 1
 130 -240 l 1
 130 -125 l 1
 245 -125 l 1
245 -250 m 1
 245 -365 l 1
 130 -365 l 1
 130 -250 l 1
 245 -250 l 1
620 120 m 1
 620 5 l 1
 505 5 l 1
 505 120 l 1
 620 120 l 1
120 120 m 1
 120 5 l 1
 5 5 l 1
 5 120 l 1
 120 120 l 1
245 120 m 1
 245 5 l 1
 130 5 l 1
 130 120 l 1
 245 120 l 1
370 120 m 1
 370 5 l 1
 255 5 l 1
 255 120 l 1
 370 120 l 1
495 120 m 1
 495 5 l 1
 380 5 l 1
 380 120 l 1
 495 120 l 1
245 495 m 1
 245 380 l 1
 130 380 l 1
 130 495 l 1
 245 495 l 1
370 495 m 1
 370 380 l 1
 255 380 l 1
 255 495 l 1
 370 495 l 1
495 370 m 1
 495 255 l 1
 380 255 l 1
 380 370 l 1
 495 370 l 1
495 245 m 1
 495 130 l 1
 380 130 l 1
 380 245 l 1
 495 245 l 1
495 -125 m 1
 495 -240 l 1
 380 -240 l 1
 380 -125 l 1
 495 -125 l 1
495 -250 m 1
 495 -365 l 1
 380 -365 l 1
 380 -250 l 1
 495 -250 l 1
370 -380 m 1
 370 -495 l 1
 255 -495 l 1
 255 -380 l 1
 370 -380 l 1
EndSplineSet
EndChar

StartChar: kashidaautonosidebearingarabic
Encoding: 65545 -1 128
Width: 250
Flags: W
LayerCount: 2
Fore
SplineSet
120 120 m 1
 120 5 l 1
 5 5 l 1
 5 120 l 1
 120 120 l 1
245 120 m 1
 245 5 l 1
 130 5 l 1
 130 120 l 1
 245 120 l 1
EndSplineSet
EndChar

StartChar: uniFB6C
Encoding: 64364 64364 129
Width: 750
Flags: W
LayerCount: 2
Fore
SplineSet
120 120 m 1
 120 5 l 1
 5 5 l 1
 5 120 l 1
 120 120 l 1
370 120 m 1
 370 5 l 1
 255 5 l 1
 255 120 l 1
 370 120 l 1
245 120 m 1
 245 5 l 1
 130 5 l 1
 130 120 l 1
 245 120 l 1
495 120 m 1
 495 5 l 1
 380 5 l 1
 380 120 l 1
 495 120 l 1
620 245 m 1
 620 130 l 1
 505 130 l 1
 505 245 l 1
 620 245 l 1
620 370 m 1
 620 255 l 1
 505 255 l 1
 505 370 l 1
 620 370 l 1
620 495 m 1
 620 380 l 1
 505 380 l 1
 505 495 l 1
 620 495 l 1
495 370 m 1
 495 255 l 1
 380 255 l 1
 380 370 l 1
 495 370 l 1
370 370 m 1
 370 255 l 1
 255 255 l 1
 255 370 l 1
 370 370 l 1
245 495 m 1
 245 380 l 1
 130 380 l 1
 130 495 l 1
 245 495 l 1
370 620 m 1
 370 505 l 1
 255 505 l 1
 255 620 l 1
 370 620 l 1
495 620 m 1
 495 505 l 1
 380 505 l 1
 380 620 l 1
 495 620 l 1
245 870 m 1
 245 755 l 1
 130 755 l 1
 130 870 l 1
 245 870 l 1
245 995 m 1
 245 880 l 1
 130 880 l 1
 130 995 l 1
 245 995 l 1
495 870 m 1
 495 755 l 1
 380 755 l 1
 380 870 l 1
 495 870 l 1
495 995 m 1
 495 880 l 1
 380 880 l 1
 380 995 l 1
 495 995 l 1
370 1120 m 1
 370 1005 l 1
 255 1005 l 1
 255 1120 l 1
 370 1120 l 1
EndSplineSet
EndChar

StartChar: uniFB94
Encoding: 64404 64404 130
Width: 750
Flags: W
LayerCount: 2
Fore
SplineSet
495 370 m 1
 495 255 l 1
 380 255 l 1
 380 370 l 1
 495 370 l 1
495 120 m 1
 495 5 l 1
 380 5 l 1
 380 120 l 1
 495 120 l 1
370 120 m 1
 370 5 l 1
 255 5 l 1
 255 120 l 1
 370 120 l 1
620 245 m 1
 620 130 l 1
 505 130 l 1
 505 245 l 1
 620 245 l 1
370 495 m 1
 370 380 l 1
 255 380 l 1
 255 495 l 1
 370 495 l 1
245 120 m 1
 245 5 l 1
 130 5 l 1
 130 120 l 1
 245 120 l 1
495 620 m 1
 495 505 l 1
 380 505 l 1
 380 620 l 1
 495 620 l 1
620 745 m 1
 620 630 l 1
 505 630 l 1
 505 745 l 1
 620 745 l 1
245 745 m 1
 245 630 l 1
 130 630 l 1
 130 745 l 1
 245 745 l 1
370 870 m 1
 370 755 l 1
 255 755 l 1
 255 870 l 1
 370 870 l 1
495 995 m 1
 495 880 l 1
 380 880 l 1
 380 995 l 1
 495 995 l 1
120 120 m 1
 120 5 l 1
 5 5 l 1
 5 120 l 1
 120 120 l 1
EndSplineSet
EndChar

StartChar: uniFB9F
Encoding: 64415 64415 131
Width: 1000
Flags: W
LayerCount: 2
Fore
SplineSet
995 120 m 1
 995 5 l 1
 880 5 l 1
 880 120 l 1
 995 120 l 1
870 245 m 1
 870 130 l 1
 755 130 l 1
 755 245 l 1
 870 245 l 1
870 120 m 1
 870 5 l 1
 755 5 l 1
 755 120 l 1
 870 120 l 1
870 -5 m 1
 870 -120 l 1
 755 -120 l 1
 755 -5 l 1
 870 -5 l 1
370 -130 m 1
 370 -245 l 1
 255 -245 l 1
 255 -130 l 1
 370 -130 l 1
745 -130 m 1
 745 -245 l 1
 630 -245 l 1
 630 -130 l 1
 745 -130 l 1
245 -5 m 1
 245 -120 l 1
 130 -120 l 1
 130 -5 l 1
 245 -5 l 1
245 120 m 1
 245 5 l 1
 130 5 l 1
 130 120 l 1
 245 120 l 1
620 -130 m 1
 620 -245 l 1
 505 -245 l 1
 505 -130 l 1
 620 -130 l 1
495 -130 m 1
 495 -245 l 1
 380 -245 l 1
 380 -130 l 1
 495 -130 l 1
EndSplineSet
EndChar

StartChar: uniFB59
Encoding: 64345 64345 132
Width: 625
Flags: W
LayerCount: 2
Fore
SplineSet
245 120 m 1
 245 5 l 1
 130 5 l 1
 130 120 l 1
 245 120 l 1
370 120 m 1
 370 5 l 1
 255 5 l 1
 255 120 l 1
 370 120 l 1
495 120 m 1
 495 5 l 1
 380 5 l 1
 380 120 l 1
 495 120 l 1
370 245 m 1
 370 130 l 1
 255 130 l 1
 255 245 l 1
 370 245 l 1
370 370 m 1
 370 255 l 1
 255 255 l 1
 255 370 l 1
 370 370 l 1
120 120 m 1
 120 5 l 1
 5 5 l 1
 5 120 l 1
 120 120 l 1
620 120 m 1
 620 5 l 1
 505 5 l 1
 505 120 l 1
 620 120 l 1
495 -129 m 1
 495 -244 l 1
 380 -244 l 1
 380 -129 l 1
 495 -129 l 1
245 -129 m 1
 245 -244 l 1
 130 -244 l 1
 130 -129 l 1
 245 -129 l 1
495 -254 m 1
 495 -369 l 1
 380 -369 l 1
 380 -254 l 1
 495 -254 l 1
245 -254 m 1
 245 -369 l 1
 130 -369 l 1
 130 -254 l 1
 245 -254 l 1
370 -379 m 1
 370 -494 l 1
 255 -494 l 1
 255 -379 l 1
 370 -379 l 1
EndSplineSet
EndChar

StartChar: uniFB69
Encoding: 64361 64361 133
Width: 625
Flags: W
LayerCount: 2
Fore
SplineSet
370 505 m 1
 255 505 l 1
 255 620 l 1
 370 620 l 1
 370 505 l 1
495 505 m 1
 380 505 l 1
 380 620 l 1
 495 620 l 1
 495 505 l 1
370 630 m 1
 255 630 l 1
 255 745 l 1
 370 745 l 1
 370 630 l 1
370 755 m 1
 255 755 l 1
 255 870 l 1
 370 870 l 1
 370 755 l 1
245 120 m 1
 245 5 l 1
 130 5 l 1
 130 120 l 1
 245 120 l 1
370 120 m 1
 370 5 l 1
 255 5 l 1
 255 120 l 1
 370 120 l 1
495 120 m 1
 495 5 l 1
 380 5 l 1
 380 120 l 1
 495 120 l 1
370 245 m 1
 370 130 l 1
 255 130 l 1
 255 245 l 1
 370 245 l 1
370 370 m 1
 370 255 l 1
 255 255 l 1
 255 370 l 1
 370 370 l 1
120 120 m 1
 120 5 l 1
 5 5 l 1
 5 120 l 1
 120 120 l 1
620 120 m 1
 620 5 l 1
 505 5 l 1
 505 120 l 1
 620 120 l 1
EndSplineSet
EndChar

StartChar: uniFB7D
Encoding: 64381 64381 134
Width: 625
Flags: W
LayerCount: 2
Fore
SplineSet
620 120 m 1
 620 5 l 1
 505 5 l 1
 505 120 l 1
 620 120 l 1
120 120 m 1
 120 5 l 1
 5 5 l 1
 5 120 l 1
 120 120 l 1
245 120 m 1
 245 5 l 1
 130 5 l 1
 130 120 l 1
 245 120 l 1
370 120 m 1
 370 5 l 1
 255 5 l 1
 255 120 l 1
 370 120 l 1
495 120 m 1
 495 5 l 1
 380 5 l 1
 380 120 l 1
 495 120 l 1
245 495 m 1
 245 380 l 1
 130 380 l 1
 130 495 l 1
 245 495 l 1
370 495 m 1
 370 380 l 1
 255 380 l 1
 255 495 l 1
 370 495 l 1
495 370 m 1
 495 255 l 1
 380 255 l 1
 380 370 l 1
 495 370 l 1
495 245 m 1
 495 130 l 1
 380 130 l 1
 380 245 l 1
 495 245 l 1
245 -125 m 1
 245 -240 l 1
 130 -240 l 1
 130 -125 l 1
 245 -125 l 1
245 -250 m 1
 245 -365 l 1
 130 -365 l 1
 130 -250 l 1
 245 -250 l 1
495 -125 m 1
 495 -240 l 1
 380 -240 l 1
 380 -125 l 1
 495 -125 l 1
495 -250 m 1
 495 -365 l 1
 380 -365 l 1
 380 -250 l 1
 495 -250 l 1
370 -380 m 1
 370 -495 l 1
 255 -495 l 1
 255 -380 l 1
 370 -380 l 1
EndSplineSet
EndChar

StartChar: uni06BA
Encoding: 1722 1722 135
Width: 1125
Flags: W
LayerCount: 2
Fore
SplineSet
245 5 m 1
 130 5 l 1
 130 120 l 1
 245 120 l 1
 245 5 l 1
370 -120 m 1
 255 -120 l 1
 255 -5 l 1
 370 -5 l 1
 370 -120 l 1
495 -120 m 1
 380 -120 l 1
 380 -5 l 1
 495 -5 l 1
 495 -120 l 1
620 -120 m 1
 505 -120 l 1
 505 -5 l 1
 620 -5 l 1
 620 -120 l 1
995 5 m 1
 880 5 l 1
 880 120 l 1
 995 120 l 1
 995 5 l 1
995 255 m 1
 880 255 l 1
 880 370 l 1
 995 370 l 1
 995 255 l 1
245 255 m 1
 130 255 l 1
 130 370 l 1
 245 370 l 1
 245 255 l 1
995 130 m 1
 880 130 l 1
 880 245 l 1
 995 245 l 1
 995 130 l 1
245 130 m 1
 130 130 l 1
 130 245 l 1
 245 245 l 1
 245 130 l 1
745 -120 m 1
 630 -120 l 1
 630 -5 l 1
 745 -5 l 1
 745 -120 l 1
870 -120 m 1
 755 -120 l 1
 755 -5 l 1
 870 -5 l 1
 870 -120 l 1
EndSplineSet
EndChar

StartChar: uniFB6D
Encoding: 64365 64365 136
Width: 750
Flags: W
LayerCount: 2
Fore
SplineSet
495 870 m 1
 495 755 l 1
 380 755 l 1
 380 870 l 1
 495 870 l 1
495 995 m 1
 495 880 l 1
 380 880 l 1
 380 995 l 1
 495 995 l 1
620 494 m 1
 620 379 l 1
 505 379 l 1
 505 494 l 1
 620 494 l 1
495 619 m 1
 495 504 l 1
 380 504 l 1
 380 619 l 1
 495 619 l 1
620 120 m 1
 620 5 l 1
 505 5 l 1
 505 120 l 1
 620 120 l 1
245 120 m 1
 245 5 l 1
 130 5 l 1
 130 120 l 1
 245 120 l 1
120 120 m 1
 120 5 l 1
 5 5 l 1
 5 120 l 1
 120 120 l 1
245 494 m 1
 245 379 l 1
 130 379 l 1
 130 494 l 1
 245 494 l 1
495 245 m 1
 495 130 l 1
 380 130 l 1
 380 245 l 1
 495 245 l 1
745 120 m 1
 745 5 l 1
 630 5 l 1
 630 120 l 1
 745 120 l 1
370 245 m 1
 370 130 l 1
 255 130 l 1
 255 245 l 1
 370 245 l 1
370 620 m 1
 370 505 l 1
 255 505 l 1
 255 620 l 1
 370 620 l 1
620 370 m 1
 620 255 l 1
 505 255 l 1
 505 370 l 1
 620 370 l 1
245 370 m 1
 245 255 l 1
 130 255 l 1
 130 370 l 1
 245 370 l 1
245 870 m 1
 245 755 l 1
 130 755 l 1
 130 870 l 1
 245 870 l 1
245 995 m 1
 245 880 l 1
 130 880 l 1
 130 995 l 1
 245 995 l 1
370 1120 m 1
 370 1005 l 1
 255 1005 l 1
 255 1120 l 1
 370 1120 l 1
EndSplineSet
EndChar

StartChar: uniFB57
Encoding: 64343 64343 137
Width: 1125
Flags: W
LayerCount: 2
Fore
SplineSet
745 -129 m 1
 745 -244 l 1
 630 -244 l 1
 630 -129 l 1
 745 -129 l 1
495 -129 m 1
 495 -244 l 1
 380 -244 l 1
 380 -129 l 1
 495 -129 l 1
745 -254 m 1
 745 -369 l 1
 630 -369 l 1
 630 -254 l 1
 745 -254 l 1
495 -254 m 1
 495 -369 l 1
 380 -369 l 1
 380 -254 l 1
 495 -254 l 1
620 -379 m 1
 620 -494 l 1
 505 -494 l 1
 505 -379 l 1
 620 -379 l 1
1120 120 m 1
 1120 5 l 1
 1005 5 l 1
 1005 120 l 1
 1120 120 l 1
995 245 m 1
 995 130 l 1
 880 130 l 1
 880 245 l 1
 995 245 l 1
620 120 m 1
 620 5 l 1
 505 5 l 1
 505 120 l 1
 620 120 l 1
370 120 m 1
 370 5 l 1
 255 5 l 1
 255 120 l 1
 370 120 l 1
495 120 m 1
 495 5 l 1
 380 5 l 1
 380 120 l 1
 495 120 l 1
245 245 m 1
 245 130 l 1
 130 130 l 1
 130 245 l 1
 245 245 l 1
995 370 m 1
 995 255 l 1
 880 255 l 1
 880 370 l 1
 995 370 l 1
245 370 m 1
 245 255 l 1
 130 255 l 1
 130 370 l 1
 245 370 l 1
995 120 m 1
 995 5 l 1
 880 5 l 1
 880 120 l 1
 995 120 l 1
871 120 m 1
 871 5 l 1
 756 5 l 1
 756 120 l 1
 871 120 l 1
746 120 m 1
 746 5 l 1
 631 5 l 1
 631 120 l 1
 746 120 l 1
EndSplineSet
EndChar

StartChar: uniFB67
Encoding: 64359 64359 138
Width: 1125
Flags: W
LayerCount: 2
Fore
SplineSet
1120 120 m 1
 1120 5 l 1
 1005 5 l 1
 1005 120 l 1
 1120 120 l 1
995 245 m 1
 995 130 l 1
 880 130 l 1
 880 245 l 1
 995 245 l 1
620 120 m 1
 620 5 l 1
 505 5 l 1
 505 120 l 1
 620 120 l 1
370 120 m 1
 370 5 l 1
 255 5 l 1
 255 120 l 1
 370 120 l 1
495 120 m 1
 495 5 l 1
 380 5 l 1
 380 120 l 1
 495 120 l 1
245 245 m 1
 245 130 l 1
 130 130 l 1
 130 245 l 1
 245 245 l 1
995 370 m 1
 995 255 l 1
 880 255 l 1
 880 370 l 1
 995 370 l 1
245 370 m 1
 245 255 l 1
 130 255 l 1
 130 370 l 1
 245 370 l 1
995 120 m 1
 995 5 l 1
 880 5 l 1
 880 120 l 1
 995 120 l 1
621 380 m 1
 506 380 l 1
 506 495 l 1
 621 495 l 1
 621 380 l 1
746 380 m 1
 631 380 l 1
 631 495 l 1
 746 495 l 1
 746 380 l 1
621 505 m 1
 506 505 l 1
 506 620 l 1
 621 620 l 1
 621 505 l 1
621 630 m 1
 506 630 l 1
 506 745 l 1
 621 745 l 1
 621 630 l 1
871 120 m 1
 871 5 l 1
 756 5 l 1
 756 120 l 1
 871 120 l 1
746 120 m 1
 746 5 l 1
 631 5 l 1
 631 120 l 1
 746 120 l 1
EndSplineSet
EndChar

StartChar: uniFB7B
Encoding: 64379 64379 139
Width: 1375
Flags: W
LayerCount: 2
Fore
SplineSet
1245 120 m 1
 1245 5 l 1
 1130 5 l 1
 1130 120 l 1
 1245 120 l 1
370 245 m 1
 370 130 l 1
 255 130 l 1
 255 245 l 1
 370 245 l 1
370 120 m 1
 370 5 l 1
 255 5 l 1
 255 120 l 1
 370 120 l 1
1120 120 m 1
 1120 5 l 1
 1005 5 l 1
 1005 120 l 1
 1120 120 l 1
870 370 m 1
 870 255 l 1
 755 255 l 1
 755 370 l 1
 870 370 l 1
995 370 m 1
 995 255 l 1
 880 255 l 1
 880 370 l 1
 995 370 l 1
1120 245 m 1
 1120 130 l 1
 1005 130 l 1
 1005 245 l 1
 1120 245 l 1
620 -255 m 1
 620 -370 l 1
 505 -370 l 1
 505 -255 l 1
 620 -255 l 1
370 -130 m 1
 370 -245 l 1
 255 -245 l 1
 255 -130 l 1
 370 -130 l 1
495 -255 m 1
 495 -370 l 1
 380 -370 l 1
 380 -255 l 1
 495 -255 l 1
495 370 m 1
 495 255 l 1
 380 255 l 1
 380 370 l 1
 495 370 l 1
870 120 m 1
 870 5 l 1
 755 5 l 1
 755 120 l 1
 870 120 l 1
370 370 m 1
 370 255 l 1
 255 255 l 1
 255 370 l 1
 370 370 l 1
245 370 m 1
 245 255 l 1
 130 255 l 1
 130 370 l 1
 245 370 l 1
1120 370 m 1
 1120 255 l 1
 1005 255 l 1
 1005 370 l 1
 1120 370 l 1
1245 370 m 1
 1245 255 l 1
 1130 255 l 1
 1130 370 l 1
 1245 370 l 1
1370 120 m 1
 1370 5 l 1
 1255 5 l 1
 1255 120 l 1
 1370 120 l 1
745 -255 m 1
 745 -370 l 1
 630 -370 l 1
 630 -255 l 1
 745 -255 l 1
370 -5 m 1
 370 -120 l 1
 255 -120 l 1
 255 -5 l 1
 370 -5 l 1
745 -5 m 1
 745 -120 l 1
 630 -120 l 1
 630 -5 l 1
 745 -5 l 1
745 370 m 1
 745 255 l 1
 630 255 l 1
 630 370 l 1
 745 370 l 1
620 370 m 1
 620 255 l 1
 505 255 l 1
 505 370 l 1
 620 370 l 1
620 120 m 1
 620 5 l 1
 505 5 l 1
 505 120 l 1
 620 120 l 1
EndSplineSet
EndChar

StartChar: uniFB6B
Encoding: 64363 64363 140
Width: 1375
Flags: W
LayerCount: 2
Fore
SplineSet
1245 494 m 1
 1245 379 l 1
 1130 379 l 1
 1130 494 l 1
 1245 494 l 1
1120 619 m 1
 1120 504 l 1
 1005 504 l 1
 1005 619 l 1
 1120 619 l 1
1245 120 m 1
 1245 5 l 1
 1130 5 l 1
 1130 120 l 1
 1245 120 l 1
870 120 m 1
 870 5 l 1
 755 5 l 1
 755 120 l 1
 870 120 l 1
870 494 m 1
 870 379 l 1
 755 379 l 1
 755 494 l 1
 870 494 l 1
1120 245 m 1
 1120 130 l 1
 1005 130 l 1
 1005 245 l 1
 1120 245 l 1
1370 120 m 1
 1370 5 l 1
 1255 5 l 1
 1255 120 l 1
 1370 120 l 1
995 245 m 1
 995 130 l 1
 880 130 l 1
 880 245 l 1
 995 245 l 1
995 620 m 1
 995 505 l 1
 880 505 l 1
 880 620 l 1
 995 620 l 1
1245 370 m 1
 1245 255 l 1
 1130 255 l 1
 1130 370 l 1
 1245 370 l 1
870 370 m 1
 870 255 l 1
 755 255 l 1
 755 370 l 1
 870 370 l 1
745 -5 m 1
 745 -120 l 1
 630 -120 l 1
 630 -5 l 1
 745 -5 l 1
620 -5 m 1
 620 -120 l 1
 505 -120 l 1
 505 -5 l 1
 620 -5 l 1
370 -5 m 1
 370 -120 l 1
 255 -120 l 1
 255 -5 l 1
 370 -5 l 1
245 120 m 1
 245 5 l 1
 130 5 l 1
 130 120 l 1
 245 120 l 1
245 245 m 1
 245 130 l 1
 130 130 l 1
 130 245 l 1
 245 245 l 1
870 870 m 1
 870 755 l 1
 755 755 l 1
 755 870 l 1
 870 870 l 1
870 995 m 1
 870 880 l 1
 755 880 l 1
 755 995 l 1
 870 995 l 1
1120 870 m 1
 1120 755 l 1
 1005 755 l 1
 1005 870 l 1
 1120 870 l 1
1120 995 m 1
 1120 880 l 1
 1005 880 l 1
 1005 995 l 1
 1120 995 l 1
995 1120 m 1
 995 1005 l 1
 880 1005 l 1
 880 1120 l 1
 995 1120 l 1
495 -5 m 1
 495 -120 l 1
 380 -120 l 1
 380 -5 l 1
 495 -5 l 1
EndSplineSet
EndChar

StartChar: uni06D1
Encoding: 1745 1745 141
Width: 1500
Flags: W
LayerCount: 2
Fore
SplineSet
1370 120 m 1
 1370 5 l 1
 1255 5 l 1
 1255 120 l 1
 1370 120 l 1
1245 370 m 1
 1245 255 l 1
 1130 255 l 1
 1130 370 l 1
 1245 370 l 1
1120 370 m 1
 1120 255 l 1
 1005 255 l 1
 1005 370 l 1
 1120 370 l 1
620 -5 m 1
 620 -120 l 1
 505 -120 l 1
 505 -5 l 1
 620 -5 l 1
370 -5 m 1
 370 -120 l 1
 255 -120 l 1
 255 -5 l 1
 370 -5 l 1
495 -5 m 1
 495 -120 l 1
 380 -120 l 1
 380 -5 l 1
 495 -5 l 1
245 120 m 1
 245 5 l 1
 130 5 l 1
 130 120 l 1
 245 120 l 1
495 -255 m 1
 495 -370 l 1
 380 -370 l 1
 380 -255 l 1
 495 -255 l 1
745 -255 m 1
 745 -370 l 1
 630 -370 l 1
 630 -255 l 1
 745 -255 l 1
495 -380 m 1
 495 -495 l 1
 380 -495 l 1
 380 -380 l 1
 495 -380 l 1
745 -380 m 1
 745 -495 l 1
 630 -495 l 1
 630 -380 l 1
 745 -380 l 1
995 120 m 1
 995 5 l 1
 880 5 l 1
 880 120 l 1
 995 120 l 1
995 245 m 1
 995 130 l 1
 880 130 l 1
 880 245 l 1
 995 245 l 1
245 245 m 1
 245 130 l 1
 130 130 l 1
 130 245 l 1
 245 245 l 1
1370 245 m 1
 1370 130 l 1
 1255 130 l 1
 1255 245 l 1
 1370 245 l 1
1495 120 m 1
 1495 5 l 1
 1380 5 l 1
 1380 120 l 1
 1495 120 l 1
620 -505 m 1
 620 -620 l 1
 505 -620 l 1
 505 -505 l 1
 620 -505 l 1
871 -5 m 1
 871 -120 l 1
 756 -120 l 1
 756 -5 l 1
 871 -5 l 1
746 -5 m 1
 746 -120 l 1
 631 -120 l 1
 631 -5 l 1
 746 -5 l 1
EndSplineSet
EndChar

StartChar: uniFB89
Encoding: 64393 64393 142
Width: 1000
Flags: W
LayerCount: 2
Fore
SplineSet
995 120 m 1
 995 5 l 1
 880 5 l 1
 880 120 l 1
 995 120 l 1
870 120 m 1
 870 5 l 1
 755 5 l 1
 755 120 l 1
 870 120 l 1
745 495 m 1
 745 380 l 1
 630 380 l 1
 630 495 l 1
 745 495 l 1
745 370 m 1
 745 255 l 1
 630 255 l 1
 630 370 l 1
 745 370 l 1
745 245 m 1
 745 130 l 1
 630 130 l 1
 630 245 l 1
 745 245 l 1
495 121 m 1
 495 6 l 1
 380 6 l 1
 380 121 l 1
 495 121 l 1
620 121 m 1
 620 6 l 1
 505 6 l 1
 505 121 l 1
 620 121 l 1
370 121 m 1
 370 6 l 1
 255 6 l 1
 255 121 l 1
 370 121 l 1
745 120 m 1
 745 5 l 1
 630 5 l 1
 630 120 l 1
 745 120 l 1
245 245 m 1
 245 130 l 1
 130 130 l 1
 130 245 l 1
 245 245 l 1
245 371 m 1
 245 256 l 1
 130 256 l 1
 130 371 l 1
 245 371 l 1
746 630 m 1
 631 630 l 1
 631 745 l 1
 746 745 l 1
 746 630 l 1
871 630 m 1
 756 630 l 1
 756 745 l 1
 871 745 l 1
 871 630 l 1
746 755 m 1
 631 755 l 1
 631 870 l 1
 746 870 l 1
 746 755 l 1
746 880 m 1
 631 880 l 1
 631 995 l 1
 746 995 l 1
 746 880 l 1
EndSplineSet
EndChar

StartChar: uniFB8D
Encoding: 64397 64397 143
Width: 875
Flags: W
LayerCount: 2
Fore
SplineSet
870 120 m 1
 870 5 l 1
 755 5 l 1
 755 120 l 1
 870 120 l 1
745 120 m 1
 745 5 l 1
 630 5 l 1
 630 120 l 1
 745 120 l 1
620 245 m 1
 620 130 l 1
 505 130 l 1
 505 245 l 1
 620 245 l 1
620 120 m 1
 620 5 l 1
 505 5 l 1
 505 120 l 1
 620 120 l 1
620 -5 m 1
 620 -120 l 1
 505 -120 l 1
 505 -5 l 1
 620 -5 l 1
370 -130 m 1
 370 -245 l 1
 255 -245 l 1
 255 -130 l 1
 370 -130 l 1
495 -130 m 1
 495 -245 l 1
 380 -245 l 1
 380 -130 l 1
 495 -130 l 1
245 -130 m 1
 245 -245 l 1
 130 -245 l 1
 130 -130 l 1
 245 -130 l 1
621 379 m 1
 506 379 l 1
 506 494 l 1
 621 494 l 1
 621 379 l 1
746 379 m 1
 631 379 l 1
 631 494 l 1
 746 494 l 1
 746 379 l 1
621 504 m 1
 506 504 l 1
 506 619 l 1
 621 619 l 1
 621 504 l 1
621 629 m 1
 506 629 l 1
 506 744 l 1
 621 744 l 1
 621 629 l 1
EndSplineSet
EndChar

StartChar: uniFB8B
Encoding: 64395 64395 144
Width: 875
Flags: W
LayerCount: 2
Fore
SplineSet
870 120 m 1
 870 5 l 1
 755 5 l 1
 755 120 l 1
 870 120 l 1
745 120 m 1
 745 5 l 1
 630 5 l 1
 630 120 l 1
 745 120 l 1
620 245 m 1
 620 130 l 1
 505 130 l 1
 505 245 l 1
 620 245 l 1
620 120 m 1
 620 5 l 1
 505 5 l 1
 505 120 l 1
 620 120 l 1
620 -5 m 1
 620 -120 l 1
 505 -120 l 1
 505 -5 l 1
 620 -5 l 1
370 -130 m 1
 370 -245 l 1
 255 -245 l 1
 255 -130 l 1
 370 -130 l 1
495 -130 m 1
 495 -245 l 1
 380 -245 l 1
 380 -130 l 1
 495 -130 l 1
245 -130 m 1
 245 -245 l 1
 130 -245 l 1
 130 -130 l 1
 245 -130 l 1
620 745 m 1
 620 630 l 1
 505 630 l 1
 505 745 l 1
 620 745 l 1
495 620 m 1
 495 505 l 1
 380 505 l 1
 380 620 l 1
 495 620 l 1
495 495 m 1
 495 380 l 1
 380 380 l 1
 380 495 l 1
 495 495 l 1
745 620 m 1
 745 505 l 1
 630 505 l 1
 630 620 l 1
 745 620 l 1
745 495 m 1
 745 380 l 1
 630 380 l 1
 630 495 l 1
 745 495 l 1
EndSplineSet
EndChar

StartChar: uniFEFB
Encoding: 65275 65275 145
Width: 1000
Flags: W
LayerCount: 2
Fore
SplineSet
370 620 m 1
 370 505 l 1
 255 505 l 1
 255 620 l 1
 370 620 l 1
495 495 m 1
 495 380 l 1
 380 380 l 1
 380 495 l 1
 495 495 l 1
745 120 m 1
 745 5 l 1
 630 5 l 1
 630 120 l 1
 745 120 l 1
620 120 m 1
 620 5 l 1
 505 5 l 1
 505 120 l 1
 620 120 l 1
620 370 m 1
 620 255 l 1
 505 255 l 1
 505 370 l 1
 620 370 l 1
870 495 m 1
 870 380 l 1
 755 380 l 1
 755 495 l 1
 870 495 l 1
870 620 m 1
 870 505 l 1
 755 505 l 1
 755 620 l 1
 870 620 l 1
870 245 m 1
 870 130 l 1
 755 130 l 1
 755 245 l 1
 870 245 l 1
495 245 m 1
 495 130 l 1
 380 130 l 1
 380 245 l 1
 495 245 l 1
870 745 m 1
 870 630 l 1
 755 630 l 1
 755 745 l 1
 870 745 l 1
745 370 m 1
 745 255 l 1
 630 255 l 1
 630 370 l 1
 745 370 l 1
870 870 m 1
 870 755 l 1
 755 755 l 1
 755 870 l 1
 870 870 l 1
870 995 m 1
 870 880 l 1
 755 880 l 1
 755 995 l 1
 870 995 l 1
245 745 m 1
 245 630 l 1
 130 630 l 1
 130 745 l 1
 245 745 l 1
EndSplineSet
EndChar

StartChar: uniFEFC
Encoding: 65276 65276 146
Width: 875
Flags: W
LayerCount: 2
Fore
SplineSet
370 495 m 1
 370 380 l 1
 255 380 l 1
 255 495 l 1
 370 495 l 1
495 370 m 1
 495 255 l 1
 380 255 l 1
 380 370 l 1
 495 370 l 1
495 120 m 1
 495 5 l 1
 380 5 l 1
 380 120 l 1
 495 120 l 1
745 370 m 1
 745 255 l 1
 630 255 l 1
 630 370 l 1
 745 370 l 1
745 498 m 1
 745 383 l 1
 630 383 l 1
 630 498 l 1
 745 498 l 1
745 623 m 1
 745 508 l 1
 630 508 l 1
 630 623 l 1
 745 623 l 1
870 123 m 1
 870 8 l 1
 755 8 l 1
 755 123 l 1
 870 123 l 1
620 245 m 1
 620 130 l 1
 505 130 l 1
 505 245 l 1
 620 245 l 1
745 748 m 1
 745 633 l 1
 630 633 l 1
 630 748 l 1
 745 748 l 1
745 873 m 1
 745 758 l 1
 630 758 l 1
 630 873 l 1
 745 873 l 1
745 998 m 1
 745 883 l 1
 630 883 l 1
 630 998 l 1
 745 998 l 1
245 620 m 1
 245 505 l 1
 130 505 l 1
 130 620 l 1
 245 620 l 1
370 -5 m 1
 370 -120 l 1
 255 -120 l 1
 255 -5 l 1
 370 -5 l 1
745 245 m 1
 745 130 l 1
 630 130 l 1
 630 245 l 1
 745 245 l 1
EndSplineSet
EndChar

StartChar: divide
Encoding: 247 247 147
Width: 875
Flags: W
LayerCount: 2
Fore
SplineSet
495 745 m 1
 495 630 l 1
 380 630 l 1
 380 745 l 1
 495 745 l 1
745 495 m 1
 745 380 l 1
 630 380 l 1
 630 495 l 1
 745 495 l 1
620 495 m 1
 620 380 l 1
 505 380 l 1
 505 495 l 1
 620 495 l 1
495 495 m 1
 495 380 l 1
 380 380 l 1
 380 495 l 1
 495 495 l 1
370 495 m 1
 370 380 l 1
 255 380 l 1
 255 495 l 1
 370 495 l 1
245 495 m 1
 245 380 l 1
 130 380 l 1
 130 495 l 1
 245 495 l 1
495 245 m 1
 495 130 l 1
 380 130 l 1
 380 245 l 1
 495 245 l 1
EndSplineSet
EndChar

StartChar: uniFEF8
Encoding: 65272 65272 148
Width: 1000
Flags: W
LayerCount: 2
Fore
SplineSet
495 493 m 1
 495 378 l 1
 380 378 l 1
 380 493 l 1
 495 493 l 1
620 368 m 1
 620 253 l 1
 505 253 l 1
 505 368 l 1
 620 368 l 1
620 118 m 1
 620 3 l 1
 505 3 l 1
 505 118 l 1
 620 118 l 1
870 368 m 1
 870 253 l 1
 755 253 l 1
 755 368 l 1
 870 368 l 1
870 496 m 1
 870 381 l 1
 755 381 l 1
 755 496 l 1
 870 496 l 1
870 621 m 1
 870 506 l 1
 755 506 l 1
 755 621 l 1
 870 621 l 1
995 121 m 1
 995 6 l 1
 880 6 l 1
 880 121 l 1
 995 121 l 1
745 243 m 1
 745 128 l 1
 630 128 l 1
 630 243 l 1
 745 243 l 1
870 746 m 1
 870 631 l 1
 755 631 l 1
 755 746 l 1
 870 746 l 1
870 871 m 1
 870 756 l 1
 755 756 l 1
 755 871 l 1
 870 871 l 1
870 996 m 1
 870 881 l 1
 755 881 l 1
 755 996 l 1
 870 996 l 1
370 618 m 1
 370 503 l 1
 255 503 l 1
 255 618 l 1
 370 618 l 1
495 -7 m 1
 495 -122 l 1
 380 -122 l 1
 380 -7 l 1
 495 -7 l 1
870 243 m 1
 870 128 l 1
 755 128 l 1
 755 243 l 1
 870 243 l 1
245 870 m 1
 245 755 l 1
 130 755 l 1
 130 870 l 1
 245 870 l 1
370 995 m 1
 370 880 l 1
 255 880 l 1
 255 995 l 1
 370 995 l 1
495 870 m 1
 495 755 l 1
 380 755 l 1
 380 870 l 1
 495 870 l 1
370 870 m 1
 370 755 l 1
 255 755 l 1
 255 870 l 1
 370 870 l 1
495 1120 m 1
 495 1005 l 1
 380 1005 l 1
 380 1120 l 1
 495 1120 l 1
EndSplineSet
EndChar

StartChar: uniFEF9
Encoding: 65273 65273 149
Width: 1125
Flags: W
LayerCount: 2
Fore
SplineSet
495 620 m 1
 495 505 l 1
 380 505 l 1
 380 620 l 1
 495 620 l 1
620 495 m 1
 620 380 l 1
 505 380 l 1
 505 495 l 1
 620 495 l 1
870 120 m 1
 870 5 l 1
 755 5 l 1
 755 120 l 1
 870 120 l 1
745 120 m 1
 745 5 l 1
 630 5 l 1
 630 120 l 1
 745 120 l 1
745 370 m 1
 745 255 l 1
 630 255 l 1
 630 370 l 1
 745 370 l 1
995 495 m 1
 995 380 l 1
 880 380 l 1
 880 495 l 1
 995 495 l 1
995 620 m 1
 995 505 l 1
 880 505 l 1
 880 620 l 1
 995 620 l 1
995 245 m 1
 995 130 l 1
 880 130 l 1
 880 245 l 1
 995 245 l 1
620 245 m 1
 620 130 l 1
 505 130 l 1
 505 245 l 1
 620 245 l 1
995 745 m 1
 995 630 l 1
 880 630 l 1
 880 745 l 1
 995 745 l 1
870 370 m 1
 870 255 l 1
 755 255 l 1
 755 370 l 1
 870 370 l 1
995 870 m 1
 995 755 l 1
 880 755 l 1
 880 870 l 1
 995 870 l 1
995 995 m 1
 995 880 l 1
 880 880 l 1
 880 995 l 1
 995 995 l 1
370 745 m 1
 370 630 l 1
 255 630 l 1
 255 745 l 1
 370 745 l 1
245 -255 m 1
 245 -370 l 1
 130 -370 l 1
 130 -255 l 1
 245 -255 l 1
370 -130 m 1
 370 -245 l 1
 255 -245 l 1
 255 -130 l 1
 370 -130 l 1
495 -255 m 1
 495 -370 l 1
 380 -370 l 1
 380 -255 l 1
 495 -255 l 1
370 -255 m 1
 370 -370 l 1
 255 -370 l 1
 255 -255 l 1
 370 -255 l 1
495 -5 m 1
 495 -120 l 1
 380 -120 l 1
 380 -5 l 1
 495 -5 l 1
EndSplineSet
EndChar

StartChar: uniFEFA
Encoding: 65274 65274 150
Width: 1125
Flags: W
LayerCount: 2
Fore
SplineSet
620 495 m 1
 620 380 l 1
 505 380 l 1
 505 495 l 1
 620 495 l 1
745 370 m 1
 745 255 l 1
 630 255 l 1
 630 370 l 1
 745 370 l 1
745 120 m 1
 745 5 l 1
 630 5 l 1
 630 120 l 1
 745 120 l 1
995 370 m 1
 995 255 l 1
 880 255 l 1
 880 370 l 1
 995 370 l 1
995 498 m 1
 995 383 l 1
 880 383 l 1
 880 498 l 1
 995 498 l 1
995 623 m 1
 995 508 l 1
 880 508 l 1
 880 623 l 1
 995 623 l 1
1120 123 m 1
 1120 8 l 1
 1005 8 l 1
 1005 123 l 1
 1120 123 l 1
870 245 m 1
 870 130 l 1
 755 130 l 1
 755 245 l 1
 870 245 l 1
995 748 m 1
 995 633 l 1
 880 633 l 1
 880 748 l 1
 995 748 l 1
995 873 m 1
 995 758 l 1
 880 758 l 1
 880 873 l 1
 995 873 l 1
995 998 m 1
 995 883 l 1
 880 883 l 1
 880 998 l 1
 995 998 l 1
495 620 m 1
 495 505 l 1
 380 505 l 1
 380 620 l 1
 495 620 l 1
995 245 m 1
 995 130 l 1
 880 130 l 1
 880 245 l 1
 995 245 l 1
245 -255 m 1
 245 -370 l 1
 130 -370 l 1
 130 -255 l 1
 245 -255 l 1
370 -130 m 1
 370 -245 l 1
 255 -245 l 1
 255 -130 l 1
 370 -130 l 1
495 -255 m 1
 495 -370 l 1
 380 -370 l 1
 380 -255 l 1
 495 -255 l 1
370 -255 m 1
 370 -370 l 1
 255 -370 l 1
 255 -255 l 1
 370 -255 l 1
495 -5 m 1
 495 -120 l 1
 380 -120 l 1
 380 -5 l 1
 495 -5 l 1
EndSplineSet
EndChar

StartChar: uniFEF5
Encoding: 65269 65269 151
Width: 1000
Flags: W
LayerCount: 2
Fore
SplineSet
370 620 m 1
 370 505 l 1
 255 505 l 1
 255 620 l 1
 370 620 l 1
495 495 m 1
 495 380 l 1
 380 380 l 1
 380 495 l 1
 495 495 l 1
745 120 m 1
 745 5 l 1
 630 5 l 1
 630 120 l 1
 745 120 l 1
620 120 m 1
 620 5 l 1
 505 5 l 1
 505 120 l 1
 620 120 l 1
620 370 m 1
 620 255 l 1
 505 255 l 1
 505 370 l 1
 620 370 l 1
870 495 m 1
 870 380 l 1
 755 380 l 1
 755 495 l 1
 870 495 l 1
870 620 m 1
 870 505 l 1
 755 505 l 1
 755 620 l 1
 870 620 l 1
870 245 m 1
 870 130 l 1
 755 130 l 1
 755 245 l 1
 870 245 l 1
495 245 m 1
 495 130 l 1
 380 130 l 1
 380 245 l 1
 495 245 l 1
870 745 m 1
 870 630 l 1
 755 630 l 1
 755 745 l 1
 870 745 l 1
745 370 m 1
 745 255 l 1
 630 255 l 1
 630 370 l 1
 745 370 l 1
870 870 m 1
 870 755 l 1
 755 755 l 1
 755 870 l 1
 870 870 l 1
870 995 m 1
 870 880 l 1
 755 880 l 1
 755 995 l 1
 870 995 l 1
245 870 m 1
 245 755 l 1
 130 755 l 1
 130 870 l 1
 245 870 l 1
370 995 m 1
 370 880 l 1
 255 880 l 1
 255 995 l 1
 370 995 l 1
495 870 m 1
 495 755 l 1
 380 755 l 1
 380 870 l 1
 495 870 l 1
620 995 m 1
 620 880 l 1
 505 880 l 1
 505 995 l 1
 620 995 l 1
EndSplineSet
EndChar

StartChar: uniFB68
Encoding: 64360 64360 152
Width: 625
Flags: W
LayerCount: 2
Fore
SplineSet
495 370 m 1
 495 255 l 1
 380 255 l 1
 380 370 l 1
 495 370 l 1
495 245 m 1
 495 130 l 1
 380 130 l 1
 380 245 l 1
 495 245 l 1
370 120 m 1
 370 5 l 1
 255 5 l 1
 255 120 l 1
 370 120 l 1
245 120 m 1
 245 5 l 1
 130 5 l 1
 130 120 l 1
 245 120 l 1
120 120 m 1
 120 5 l 1
 5 5 l 1
 5 120 l 1
 120 120 l 1
370 505 m 1
 255 505 l 1
 255 620 l 1
 370 620 l 1
 370 505 l 1
495 505 m 1
 380 505 l 1
 380 620 l 1
 495 620 l 1
 495 505 l 1
370 630 m 1
 255 630 l 1
 255 745 l 1
 370 745 l 1
 370 630 l 1
370 755 m 1
 255 755 l 1
 255 870 l 1
 370 870 l 1
 370 755 l 1
EndSplineSet
EndChar

StartChar: uniFDF2
Encoding: 65010 65010 153
Width: 1250
Flags: W
LayerCount: 2
Fore
SplineSet
620 245 m 1
 620 130 l 1
 505 130 l 1
 505 245 l 1
 620 245 l 1
620 370 m 1
 620 255 l 1
 505 255 l 1
 505 370 l 1
 620 370 l 1
620 495 m 1
 620 380 l 1
 505 380 l 1
 505 495 l 1
 620 495 l 1
620 620 m 1
 620 505 l 1
 505 505 l 1
 505 620 l 1
 620 620 l 1
745 120 m 1
 745 5 l 1
 630 5 l 1
 630 120 l 1
 745 120 l 1
370 495 m 1
 370 380 l 1
 255 380 l 1
 255 495 l 1
 370 495 l 1
370 245 m 1
 370 130 l 1
 255 130 l 1
 255 245 l 1
 370 245 l 1
245 370 m 1
 245 255 l 1
 130 255 l 1
 130 370 l 1
 245 370 l 1
495 245 m 1
 495 130 l 1
 380 130 l 1
 380 245 l 1
 495 245 l 1
495 495 m 1
 495 380 l 1
 380 380 l 1
 380 495 l 1
 495 495 l 1
620 120 m 1
 620 5 l 1
 505 5 l 1
 505 120 l 1
 620 120 l 1
870 120 m 1
 870 5 l 1
 755 5 l 1
 755 120 l 1
 870 120 l 1
870 245 m 1
 870 130 l 1
 755 130 l 1
 755 245 l 1
 870 245 l 1
870 370 m 1
 870 255 l 1
 755 255 l 1
 755 370 l 1
 870 370 l 1
870 496 m 1
 870 381 l 1
 755 381 l 1
 755 496 l 1
 870 496 l 1
870 620 m 1
 870 505 l 1
 755 505 l 1
 755 620 l 1
 870 620 l 1
1120 245 m 1
 1120 130 l 1
 1005 130 l 1
 1005 245 l 1
 1120 245 l 1
1120 370 m 1
 1120 255 l 1
 1005 255 l 1
 1005 370 l 1
 1120 370 l 1
1120 496 m 1
 1120 381 l 1
 1005 381 l 1
 1005 496 l 1
 1120 496 l 1
1120 620 m 1
 1120 505 l 1
 1005 505 l 1
 1005 620 l 1
 1120 620 l 1
995 120 m 1
 995 5 l 1
 880 5 l 1
 880 120 l 1
 995 120 l 1
745 870 m 1
 745 755 l 1
 630 755 l 1
 630 870 l 1
 745 870 l 1
870 870 m 1
 870 755 l 1
 755 755 l 1
 755 870 l 1
 870 870 l 1
745 1120 m 1
 745 1005 l 1
 630 1005 l 1
 630 1120 l 1
 745 1120 l 1
EndSplineSet
EndChar

StartChar: uni066A
Encoding: 1642 1642 154
Width: 875
Flags: W
LayerCount: 2
Fore
SplineSet
745 870 m 1
 745 755 l 1
 630 755 l 1
 630 870 l 1
 745 870 l 1
745 745 m 1
 745 630 l 1
 630 630 l 1
 630 745 l 1
 745 745 l 1
370 870 m 1
 370 755 l 1
 255 755 l 1
 255 870 l 1
 370 870 l 1
620 620 m 1
 620 505 l 1
 505 505 l 1
 505 620 l 1
 620 620 l 1
245 870 m 1
 245 755 l 1
 130 755 l 1
 130 870 l 1
 245 870 l 1
245 745 m 1
 245 630 l 1
 130 630 l 1
 130 745 l 1
 245 745 l 1
495 495 m 1
 495 380 l 1
 380 380 l 1
 380 495 l 1
 495 495 l 1
745 245 m 1
 745 130 l 1
 630 130 l 1
 630 245 l 1
 745 245 l 1
745 120 m 1
 745 5 l 1
 630 5 l 1
 630 120 l 1
 745 120 l 1
370 370 m 1
 370 255 l 1
 255 255 l 1
 255 370 l 1
 370 370 l 1
620 120 m 1
 620 5 l 1
 505 5 l 1
 505 120 l 1
 620 120 l 1
245 245 m 1
 245 130 l 1
 130 130 l 1
 130 245 l 1
 245 245 l 1
245 120 m 1
 245 5 l 1
 130 5 l 1
 130 120 l 1
 245 120 l 1
EndSplineSet
EndChar

StartChar: multiply
Encoding: 215 215 155
Width: 875
Flags: W
LayerCount: 2
Fore
SplineSet
745 745 m 1
 745 630 l 1
 630 630 l 1
 630 745 l 1
 745 745 l 1
620 620 m 1
 620 505 l 1
 505 505 l 1
 505 620 l 1
 620 620 l 1
245 745 m 1
 245 630 l 1
 130 630 l 1
 130 745 l 1
 245 745 l 1
370 620 m 1
 370 505 l 1
 255 505 l 1
 255 620 l 1
 370 620 l 1
495 495 m 1
 495 380 l 1
 380 380 l 1
 380 495 l 1
 495 495 l 1
620 370 m 1
 620 255 l 1
 505 255 l 1
 505 370 l 1
 620 370 l 1
745 245 m 1
 745 130 l 1
 630 130 l 1
 630 245 l 1
 745 245 l 1
245 245 m 1
 245 130 l 1
 130 130 l 1
 130 245 l 1
 245 245 l 1
370 370 m 1
 370 255 l 1
 255 255 l 1
 255 370 l 1
 370 370 l 1
EndSplineSet
EndChar

StartChar: uni060C
Encoding: 1548 1548 156
Width: 625
Flags: W
LayerCount: 2
Fore
SplineSet
130 245 m 1
 245 245 l 1
 245 130 l 1
 130 130 l 1
 130 245 l 1
130 120 m 1
 245 120 l 1
 245 5 l 1
 130 5 l 1
 130 120 l 1
255 -5 m 1
 370 -5 l 1
 370 -120 l 1
 255 -120 l 1
 255 -5 l 1
380 -5 m 1
 495 -5 l 1
 495 -120 l 1
 380 -120 l 1
 380 -5 l 1
EndSplineSet
EndChar

StartChar: hyphen
Encoding: 45 45 157
Width: 750
Flags: W
LayerCount: 2
Fore
SplineSet
620 370 m 1
 620 255 l 1
 505 255 l 1
 505 370 l 1
 620 370 l 1
495 370 m 1
 495 255 l 1
 380 255 l 1
 380 370 l 1
 495 370 l 1
370 370 m 1
 370 255 l 1
 255 255 l 1
 255 370 l 1
 370 370 l 1
245 370 m 1
 245 255 l 1
 130 255 l 1
 130 370 l 1
 245 370 l 1
EndSplineSet
EndChar

StartChar: period
Encoding: 46 46 158
Width: 500
Flags: W
LayerCount: 2
Fore
SplineSet
370 245 m 1
 370 130 l 1
 255 130 l 1
 255 245 l 1
 370 245 l 1
370 120 m 1
 370 5 l 1
 255 5 l 1
 255 120 l 1
 370 120 l 1
EndSplineSet
EndChar

StartChar: slash
Encoding: 47 47 159
Width: 875
Flags: W
LayerCount: 2
Fore
SplineSet
745 870 m 1
 745 755 l 1
 630 755 l 1
 630 870 l 1
 745 870 l 1
745 745 m 1
 745 630 l 1
 630 630 l 1
 630 745 l 1
 745 745 l 1
620 620 m 1
 620 505 l 1
 505 505 l 1
 505 620 l 1
 620 620 l 1
495 495 m 1
 495 380 l 1
 380 380 l 1
 380 495 l 1
 495 495 l 1
370 370 m 1
 370 255 l 1
 255 255 l 1
 255 370 l 1
 370 370 l 1
245 245 m 1
 245 130 l 1
 130 130 l 1
 130 245 l 1
 245 245 l 1
245 120 m 1
 245 5 l 1
 130 5 l 1
 130 120 l 1
 245 120 l 1
EndSplineSet
EndChar

StartChar: uni0660
Encoding: 1632 1632 160
Width: 625
Flags: W
LayerCount: 2
Fore
SplineSet
370 370 m 1
 370 255 l 1
 255 255 l 1
 255 370 l 1
 370 370 l 1
370 495 m 1
 370 380 l 1
 255 380 l 1
 255 495 l 1
 370 495 l 1
EndSplineSet
EndChar

StartChar: uni0661
Encoding: 1633 1633 161
Width: 625
Flags: W
LayerCount: 2
Fore
SplineSet
370 495 m 1
 370 380 l 1
 255 380 l 1
 255 495 l 1
 370 495 l 1
370 370 m 1
 370 255 l 1
 255 255 l 1
 255 370 l 1
 370 370 l 1
370 245 m 1
 370 130 l 1
 255 130 l 1
 255 245 l 1
 370 245 l 1
370 120 m 1
 370 5 l 1
 255 5 l 1
 255 120 l 1
 370 120 l 1
370 620 m 1
 370 505 l 1
 255 505 l 1
 255 620 l 1
 370 620 l 1
370 745 m 1
 370 630 l 1
 255 630 l 1
 255 745 l 1
 370 745 l 1
EndSplineSet
EndChar

StartChar: uni0662
Encoding: 1634 1634 162
Width: 875
Flags: W
LayerCount: 2
Fore
SplineSet
245 620 m 1
 245 505 l 1
 130 505 l 1
 130 620 l 1
 245 620 l 1
245 495 m 1
 245 380 l 1
 130 380 l 1
 130 495 l 1
 245 495 l 1
245 370 m 1
 245 255 l 1
 130 255 l 1
 130 370 l 1
 245 370 l 1
245 245 m 1
 245 130 l 1
 130 130 l 1
 130 245 l 1
 245 245 l 1
620 495 m 1
 620 380 l 1
 505 380 l 1
 505 495 l 1
 620 495 l 1
245 120 m 1
 245 5 l 1
 130 5 l 1
 130 120 l 1
 245 120 l 1
745 745 m 1
 745 630 l 1
 630 630 l 1
 630 745 l 1
 745 745 l 1
745 620 m 1
 745 505 l 1
 630 505 l 1
 630 620 l 1
 745 620 l 1
495 495 m 1
 495 380 l 1
 380 380 l 1
 380 495 l 1
 495 495 l 1
245 745 m 1
 245 630 l 1
 130 630 l 1
 130 745 l 1
 245 745 l 1
370 495 m 1
 370 380 l 1
 255 380 l 1
 255 495 l 1
 370 495 l 1
EndSplineSet
EndChar

StartChar: uni0663
Encoding: 1635 1635 163
Width: 875
Flags: W
LayerCount: 2
Fore
SplineSet
245 620 m 1
 245 505 l 1
 130 505 l 1
 130 620 l 1
 245 620 l 1
245 495 m 1
 245 380 l 1
 130 380 l 1
 130 495 l 1
 245 495 l 1
245 370 m 1
 245 255 l 1
 130 255 l 1
 130 370 l 1
 245 370 l 1
245 245 m 1
 245 130 l 1
 130 130 l 1
 130 245 l 1
 245 245 l 1
370 495 m 1
 370 380 l 1
 255 380 l 1
 255 495 l 1
 370 495 l 1
245 120 m 1
 245 5 l 1
 130 5 l 1
 130 120 l 1
 245 120 l 1
495 745 m 1
 495 630 l 1
 380 630 l 1
 380 745 l 1
 495 745 l 1
495 620 m 1
 495 505 l 1
 380 505 l 1
 380 620 l 1
 495 620 l 1
620 495 m 1
 620 380 l 1
 505 380 l 1
 505 495 l 1
 620 495 l 1
745 745 m 1
 745 630 l 1
 630 630 l 1
 630 745 l 1
 745 745 l 1
745 620 m 1
 745 505 l 1
 630 505 l 1
 630 620 l 1
 745 620 l 1
495 495 m 1
 495 380 l 1
 380 380 l 1
 380 495 l 1
 495 495 l 1
245 745 m 1
 245 630 l 1
 130 630 l 1
 130 745 l 1
 245 745 l 1
EndSplineSet
EndChar

StartChar: uni0664
Encoding: 1636 1636 164
Width: 750
Flags: W
LayerCount: 2
Fore
SplineSet
245 620 m 1
 245 505 l 1
 130 505 l 1
 130 620 l 1
 245 620 l 1
370 495 m 1
 370 380 l 1
 255 380 l 1
 255 495 l 1
 370 495 l 1
245 245 m 1
 245 130 l 1
 130 130 l 1
 130 245 l 1
 245 245 l 1
370 120 m 1
 370 5 l 1
 255 5 l 1
 255 120 l 1
 370 120 l 1
370 745 m 1
 370 630 l 1
 255 630 l 1
 255 745 l 1
 370 745 l 1
495 495 m 1
 495 380 l 1
 380 380 l 1
 380 495 l 1
 495 495 l 1
495 120 m 1
 495 5 l 1
 380 5 l 1
 380 120 l 1
 495 120 l 1
495 745 m 1
 495 630 l 1
 380 630 l 1
 380 745 l 1
 495 745 l 1
245 370 m 1
 245 255 l 1
 130 255 l 1
 130 370 l 1
 245 370 l 1
620 495 m 1
 620 380 l 1
 505 380 l 1
 505 495 l 1
 620 495 l 1
620 120 m 1
 620 5 l 1
 505 5 l 1
 505 120 l 1
 620 120 l 1
620 745 m 1
 620 630 l 1
 505 630 l 1
 505 745 l 1
 620 745 l 1
EndSplineSet
EndChar

StartChar: uni0665
Encoding: 1637 1637 165
Width: 875
Flags: W
LayerCount: 2
Fore
SplineSet
245 245 m 1
 245 130 l 1
 130 130 l 1
 130 245 l 1
 245 245 l 1
745 245 m 1
 745 130 l 1
 630 130 l 1
 630 245 l 1
 745 245 l 1
245 620 m 1
 245 505 l 1
 130 505 l 1
 130 620 l 1
 245 620 l 1
745 620 m 1
 745 505 l 1
 630 505 l 1
 630 620 l 1
 745 620 l 1
370 120 m 1
 370 5 l 1
 255 5 l 1
 255 120 l 1
 370 120 l 1
370 745 m 1
 370 630 l 1
 255 630 l 1
 255 745 l 1
 370 745 l 1
620 120 m 1
 620 5 l 1
 505 5 l 1
 505 120 l 1
 620 120 l 1
620 745 m 1
 620 630 l 1
 505 630 l 1
 505 745 l 1
 620 745 l 1
245 370 m 1
 245 255 l 1
 130 255 l 1
 130 370 l 1
 245 370 l 1
745 370 m 1
 745 255 l 1
 630 255 l 1
 630 370 l 1
 745 370 l 1
495 120 m 1
 495 5 l 1
 380 5 l 1
 380 120 l 1
 495 120 l 1
495 745 m 1
 495 630 l 1
 380 630 l 1
 380 745 l 1
 495 745 l 1
245 495 m 1
 245 380 l 1
 130 380 l 1
 130 495 l 1
 245 495 l 1
745 495 m 1
 745 380 l 1
 630 380 l 1
 630 495 l 1
 745 495 l 1
EndSplineSet
EndChar

StartChar: uni0666
Encoding: 1638 1638 166
Width: 750
Flags: W
LayerCount: 2
Fore
SplineSet
505 620 m 1
 620 620 l 1
 620 505 l 1
 505 505 l 1
 505 620 l 1
505 495 m 1
 620 495 l 1
 620 380 l 1
 505 380 l 1
 505 495 l 1
505 370 m 1
 620 370 l 1
 620 255 l 1
 505 255 l 1
 505 370 l 1
505 245 m 1
 620 245 l 1
 620 130 l 1
 505 130 l 1
 505 245 l 1
255 745 m 1
 370 745 l 1
 370 630 l 1
 255 630 l 1
 255 745 l 1
130 745 m 1
 245 745 l 1
 245 630 l 1
 130 630 l 1
 130 745 l 1
505 120 m 1
 620 120 l 1
 620 5 l 1
 505 5 l 1
 505 120 l 1
380 745 m 1
 495 745 l 1
 495 630 l 1
 380 630 l 1
 380 745 l 1
505 745 m 1
 620 745 l 1
 620 630 l 1
 505 630 l 1
 505 745 l 1
EndSplineSet
EndChar

StartChar: uni0667
Encoding: 1639 1639 167
Width: 875
Flags: W
LayerCount: 2
Fore
SplineSet
620 246 m 1
 620 131 l 1
 505 131 l 1
 505 246 l 1
 620 246 l 1
495 122 m 1
 495 7 l 1
 380 7 l 1
 380 122 l 1
 495 122 l 1
245 621 m 1
 245 506 l 1
 130 506 l 1
 130 621 l 1
 245 621 l 1
245 746 m 1
 245 631 l 1
 130 631 l 1
 130 746 l 1
 245 746 l 1
245 496 m 1
 245 381 l 1
 130 381 l 1
 130 496 l 1
 245 496 l 1
245 371 m 1
 245 256 l 1
 130 256 l 1
 130 371 l 1
 245 371 l 1
745 621 m 1
 745 506 l 1
 630 506 l 1
 630 621 l 1
 745 621 l 1
745 746 m 1
 745 631 l 1
 630 631 l 1
 630 746 l 1
 745 746 l 1
745 496 m 1
 745 381 l 1
 630 381 l 1
 630 496 l 1
 745 496 l 1
745 371 m 1
 745 256 l 1
 630 256 l 1
 630 371 l 1
 745 371 l 1
370 246 m 1
 370 131 l 1
 255 131 l 1
 255 246 l 1
 370 246 l 1
EndSplineSet
EndChar

StartChar: uni0668
Encoding: 1640 1640 168
Width: 875
Flags: W
LayerCount: 2
Fore
SplineSet
255 506 m 1
 255 621 l 1
 370 621 l 1
 370 506 l 1
 255 506 l 1
380 630 m 1
 380 745 l 1
 495 745 l 1
 495 630 l 1
 380 630 l 1
630 131 m 1
 630 246 l 1
 745 246 l 1
 745 131 l 1
 630 131 l 1
630 6 m 1
 630 121 l 1
 745 121 l 1
 745 6 l 1
 630 6 l 1
630 256 m 1
 630 371 l 1
 745 371 l 1
 745 256 l 1
 630 256 l 1
630 381 m 1
 630 496 l 1
 745 496 l 1
 745 381 l 1
 630 381 l 1
130 131 m 1
 130 246 l 1
 245 246 l 1
 245 131 l 1
 130 131 l 1
130 6 m 1
 130 121 l 1
 245 121 l 1
 245 6 l 1
 130 6 l 1
130 256 m 1
 130 371 l 1
 245 371 l 1
 245 256 l 1
 130 256 l 1
130 381 m 1
 130 496 l 1
 245 496 l 1
 245 381 l 1
 130 381 l 1
505 506 m 1
 505 621 l 1
 620 621 l 1
 620 506 l 1
 505 506 l 1
EndSplineSet
EndChar

StartChar: uni0669
Encoding: 1641 1641 169
Width: 875
Flags: W
LayerCount: 2
Fore
SplineSet
370 745 m 1
 370 630 l 1
 255 630 l 1
 255 745 l 1
 370 745 l 1
370 370 m 1
 370 255 l 1
 255 255 l 1
 255 370 l 1
 370 370 l 1
745 370 m 1
 745 255 l 1
 630 255 l 1
 630 370 l 1
 745 370 l 1
745 245 m 1
 745 130 l 1
 630 130 l 1
 630 245 l 1
 745 245 l 1
745 620 m 1
 745 505 l 1
 630 505 l 1
 630 620 l 1
 745 620 l 1
245 620 m 1
 245 505 l 1
 130 505 l 1
 130 620 l 1
 245 620 l 1
745 120 m 1
 745 5 l 1
 630 5 l 1
 630 120 l 1
 745 120 l 1
620 745 m 1
 620 630 l 1
 505 630 l 1
 505 745 l 1
 620 745 l 1
620 370 m 1
 620 255 l 1
 505 255 l 1
 505 370 l 1
 620 370 l 1
495 745 m 1
 495 630 l 1
 380 630 l 1
 380 745 l 1
 495 745 l 1
495 370 m 1
 495 255 l 1
 380 255 l 1
 380 370 l 1
 495 370 l 1
745 495 m 1
 745 380 l 1
 630 380 l 1
 630 495 l 1
 745 495 l 1
245 495 m 1
 245 380 l 1
 130 380 l 1
 130 495 l 1
 245 495 l 1
EndSplineSet
EndChar

StartChar: colon
Encoding: 58 58 170
Width: 500
Flags: W
LayerCount: 2
Fore
SplineSet
370 620 m 1
 370 505 l 1
 255 505 l 1
 255 620 l 1
 370 620 l 1
370 495 m 1
 370 380 l 1
 255 380 l 1
 255 495 l 1
 370 495 l 1
370 245 m 1
 370 130 l 1
 255 130 l 1
 255 245 l 1
 370 245 l 1
370 120 m 1
 370 5 l 1
 255 5 l 1
 255 120 l 1
 370 120 l 1
EndSplineSet
EndChar

StartChar: uni061B
Encoding: 1563 1563 171
Width: 500
Flags: W
LayerCount: 2
Fore
SplineSet
130 -120 m 1
 130 -5 l 1
 245 -5 l 1
 245 -120 l 1
 130 -120 l 1
130 5 m 1
 130 120 l 1
 245 120 l 1
 245 5 l 1
 130 5 l 1
130 254 m 1
 130 369 l 1
 245 369 l 1
 245 254 l 1
 130 254 l 1
130 379 m 1
 130 494 l 1
 245 494 l 1
 245 379 l 1
 130 379 l 1
255 504 m 1
 255 619 l 1
 370 619 l 1
 370 504 l 1
 255 504 l 1
380 504 m 1
 380 619 l 1
 495 619 l 1
 495 504 l 1
 380 504 l 1
EndSplineSet
EndChar

StartChar: greater
Encoding: 62 62 172
Width: 875
Flags: W
LayerCount: 2
Fore
SplineSet
370 870 m 1
 370 755 l 1
 255 755 l 1
 255 870 l 1
 370 870 l 1
495 745 m 1
 495 630 l 1
 380 630 l 1
 380 745 l 1
 495 745 l 1
620 620 m 1
 620 505 l 1
 505 505 l 1
 505 620 l 1
 620 620 l 1
745 495 m 1
 745 380 l 1
 630 380 l 1
 630 495 l 1
 745 495 l 1
620 370 m 1
 620 255 l 1
 505 255 l 1
 505 370 l 1
 620 370 l 1
495 245 m 1
 495 130 l 1
 380 130 l 1
 380 245 l 1
 495 245 l 1
370 120 m 1
 370 5 l 1
 255 5 l 1
 255 120 l 1
 370 120 l 1
245 870 m 1
 245 755 l 1
 130 755 l 1
 130 870 l 1
 245 870 l 1
245 120 m 1
 245 5 l 1
 130 5 l 1
 130 120 l 1
 245 120 l 1
EndSplineSet
EndChar

StartChar: equal
Encoding: 61 61 173
Width: 875
Flags: W
LayerCount: 2
Fore
SplineSet
745 620 m 1
 745 505 l 1
 630 505 l 1
 630 620 l 1
 745 620 l 1
620 620 m 1
 620 505 l 1
 505 505 l 1
 505 620 l 1
 620 620 l 1
495 620 m 1
 495 505 l 1
 380 505 l 1
 380 620 l 1
 495 620 l 1
745 370 m 1
 745 255 l 1
 630 255 l 1
 630 370 l 1
 745 370 l 1
370 620 m 1
 370 505 l 1
 255 505 l 1
 255 620 l 1
 370 620 l 1
620 370 m 1
 620 255 l 1
 505 255 l 1
 505 370 l 1
 620 370 l 1
245 620 m 1
 245 505 l 1
 130 505 l 1
 130 620 l 1
 245 620 l 1
495 370 m 1
 495 255 l 1
 380 255 l 1
 380 370 l 1
 495 370 l 1
370 370 m 1
 370 255 l 1
 255 255 l 1
 255 370 l 1
 370 370 l 1
245 370 m 1
 245 255 l 1
 130 255 l 1
 130 370 l 1
 245 370 l 1
EndSplineSet
EndChar

StartChar: less
Encoding: 60 60 174
Width: 875
Flags: W
LayerCount: 2
Fore
SplineSet
620 870 m 1
 620 755 l 1
 505 755 l 1
 505 870 l 1
 620 870 l 1
495 745 m 1
 495 630 l 1
 380 630 l 1
 380 745 l 1
 495 745 l 1
370 620 m 1
 370 505 l 1
 255 505 l 1
 255 620 l 1
 370 620 l 1
245 495 m 1
 245 380 l 1
 130 380 l 1
 130 495 l 1
 245 495 l 1
370 370 m 1
 370 255 l 1
 255 255 l 1
 255 370 l 1
 370 370 l 1
495 245 m 1
 495 130 l 1
 380 130 l 1
 380 245 l 1
 495 245 l 1
620 120 m 1
 620 5 l 1
 505 5 l 1
 505 120 l 1
 620 120 l 1
745 870 m 1
 745 755 l 1
 630 755 l 1
 630 870 l 1
 745 870 l 1
745 120 m 1
 745 5 l 1
 630 5 l 1
 630 120 l 1
 745 120 l 1
EndSplineSet
EndChar

StartChar: uni061F
Encoding: 1567 1567 175
Width: 750
Flags: W
LayerCount: 2
Fore
SplineSet
255 870 m 1
 370 870 l 1
 370 755 l 1
 255 755 l 1
 255 870 l 1
130 745 m 1
 245 745 l 1
 245 630 l 1
 130 630 l 1
 130 745 l 1
380 870 m 1
 495 870 l 1
 495 755 l 1
 380 755 l 1
 380 870 l 1
130 620 m 1
 245 620 l 1
 245 505 l 1
 130 505 l 1
 130 620 l 1
505 870 m 1
 620 870 l 1
 620 755 l 1
 505 755 l 1
 505 870 l 1
255 495 m 1
 370 495 l 1
 370 380 l 1
 255 380 l 1
 255 495 l 1
380 370 m 1
 495 370 l 1
 495 255 l 1
 380 255 l 1
 380 370 l 1
380 120 m 1
 495 120 l 1
 495 5 l 1
 380 5 l 1
 380 120 l 1
380 -5 m 1
 495 -5 l 1
 495 -120 l 1
 380 -120 l 1
 380 -5 l 1
EndSplineSet
EndChar

StartChar: uni066D
Encoding: 1645 1645 176
Width: 1125
Flags: W
LayerCount: 2
Fore
SplineSet
995 745 m 1
 995 630 l 1
 880 630 l 1
 880 745 l 1
 995 745 l 1
620 995 m 1
 620 880 l 1
 505 880 l 1
 505 995 l 1
 620 995 l 1
870 745 m 1
 870 630 l 1
 755 630 l 1
 755 745 l 1
 870 745 l 1
620 870 m 1
 620 755 l 1
 505 755 l 1
 505 870 l 1
 620 870 l 1
745 745 m 1
 745 630 l 1
 630 630 l 1
 630 745 l 1
 745 745 l 1
620 745 m 1
 620 630 l 1
 505 630 l 1
 505 745 l 1
 620 745 l 1
745 620 m 1
 745 505 l 1
 630 505 l 1
 630 620 l 1
 745 620 l 1
495 745 m 1
 495 630 l 1
 380 630 l 1
 380 745 l 1
 495 745 l 1
620 620 m 1
 620 505 l 1
 505 505 l 1
 505 620 l 1
 620 620 l 1
745 495 m 1
 745 380 l 1
 630 380 l 1
 630 495 l 1
 745 495 l 1
870 370 m 1
 870 255 l 1
 755 255 l 1
 755 370 l 1
 870 370 l 1
370 745 m 1
 370 630 l 1
 255 630 l 1
 255 745 l 1
 370 745 l 1
495 620 m 1
 495 505 l 1
 380 505 l 1
 380 620 l 1
 495 620 l 1
245 745 m 1
 245 630 l 1
 130 630 l 1
 130 745 l 1
 245 745 l 1
495 495 m 1
 495 380 l 1
 380 380 l 1
 380 495 l 1
 495 495 l 1
370 370 m 1
 370 255 l 1
 255 255 l 1
 255 370 l 1
 370 370 l 1
EndSplineSet
EndChar

StartChar: uni0621
Encoding: 1569 1569 177
Width: 625
Flags: W
LayerCount: 2
Fore
SplineSet
245 120 m 1
 245 5 l 1
 130 5 l 1
 130 120 l 1
 245 120 l 1
370 120 m 1
 370 5 l 1
 255 5 l 1
 255 120 l 1
 370 120 l 1
495 120 m 1
 495 5 l 1
 380 5 l 1
 380 120 l 1
 495 120 l 1
370 245 m 1
 370 130 l 1
 255 130 l 1
 255 245 l 1
 370 245 l 1
495 370 m 1
 495 255 l 1
 380 255 l 1
 380 370 l 1
 495 370 l 1
EndSplineSet
EndChar

StartChar: uni0622
Encoding: 1570 1570 178
Width: 625
Flags: W
LayerCount: 2
Fore
SplineSet
370 245 m 1
 370 130 l 1
 255 130 l 1
 255 245 l 1
 370 245 l 1
370 370 m 1
 370 255 l 1
 255 255 l 1
 255 370 l 1
 370 370 l 1
370 495 m 1
 370 380 l 1
 255 380 l 1
 255 495 l 1
 370 495 l 1
370 120 m 1
 370 5 l 1
 255 5 l 1
 255 120 l 1
 370 120 l 1
370 620 m 1
 370 505 l 1
 255 505 l 1
 255 620 l 1
 370 620 l 1
245 995 m 1
 245 880 l 1
 130 880 l 1
 130 995 l 1
 245 995 l 1
370 870 m 1
 370 755 l 1
 255 755 l 1
 255 870 l 1
 370 870 l 1
495 995 m 1
 495 880 l 1
 380 880 l 1
 380 995 l 1
 495 995 l 1
120 870 m 1
 120 755 l 1
 5 755 l 1
 5 870 l 1
 120 870 l 1
EndSplineSet
EndChar

StartChar: uni0623
Encoding: 1571 1571 179
Width: 625
Flags: W
LayerCount: 2
Fore
SplineSet
370 245 m 1
 370 130 l 1
 255 130 l 1
 255 245 l 1
 370 245 l 1
370 370 m 1
 370 255 l 1
 255 255 l 1
 255 370 l 1
 370 370 l 1
370 495 m 1
 370 380 l 1
 255 380 l 1
 255 495 l 1
 370 495 l 1
370 120 m 1
 370 5 l 1
 255 5 l 1
 255 120 l 1
 370 120 l 1
370 744 m 1
 370 629 l 1
 255 629 l 1
 255 744 l 1
 370 744 l 1
495 745 m 1
 495 630 l 1
 380 630 l 1
 380 745 l 1
 495 745 l 1
370 870 m 1
 370 755 l 1
 255 755 l 1
 255 870 l 1
 370 870 l 1
245 745 m 1
 245 630 l 1
 130 630 l 1
 130 745 l 1
 245 745 l 1
495 995 m 1
 495 880 l 1
 380 880 l 1
 380 995 l 1
 495 995 l 1
EndSplineSet
EndChar

StartChar: uni0624
Encoding: 1572 1572 180
Width: 750
Flags: W
LayerCount: 2
Fore
SplineSet
620 245 m 1
 620 130 l 1
 505 130 l 1
 505 245 l 1
 620 245 l 1
620 -130 m 1
 620 -245 l 1
 505 -245 l 1
 505 -130 l 1
 620 -130 l 1
370 -255 m 1
 370 -370 l 1
 255 -370 l 1
 255 -255 l 1
 370 -255 l 1
495 -255 m 1
 495 -370 l 1
 380 -370 l 1
 380 -255 l 1
 495 -255 l 1
245 -255 m 1
 245 -370 l 1
 130 -370 l 1
 130 -255 l 1
 245 -255 l 1
370 120 m 1
 370 5 l 1
 255 5 l 1
 255 120 l 1
 370 120 l 1
495 120 m 1
 495 5 l 1
 380 5 l 1
 380 120 l 1
 495 120 l 1
620 120 m 1
 620 5 l 1
 505 5 l 1
 505 120 l 1
 620 120 l 1
245 245 m 1
 245 130 l 1
 130 130 l 1
 130 245 l 1
 245 245 l 1
620 370 m 1
 620 255 l 1
 505 255 l 1
 505 370 l 1
 620 370 l 1
245 370 m 1
 245 255 l 1
 130 255 l 1
 130 370 l 1
 245 370 l 1
495 495 m 1
 495 380 l 1
 380 380 l 1
 380 495 l 1
 495 495 l 1
370 495 m 1
 370 380 l 1
 255 380 l 1
 255 495 l 1
 370 495 l 1
620 -5 m 1
 620 -120 l 1
 505 -120 l 1
 505 -5 l 1
 620 -5 l 1
370 744 m 1
 370 629 l 1
 255 629 l 1
 255 744 l 1
 370 744 l 1
495 745 m 1
 495 630 l 1
 380 630 l 1
 380 745 l 1
 495 745 l 1
370 870 m 1
 370 755 l 1
 255 755 l 1
 255 870 l 1
 370 870 l 1
245 745 m 1
 245 630 l 1
 130 630 l 1
 130 745 l 1
 245 745 l 1
495 995 m 1
 495 880 l 1
 380 880 l 1
 380 995 l 1
 495 995 l 1
EndSplineSet
EndChar

StartChar: uni0625
Encoding: 1573 1573 181
Width: 625
Flags: W
LayerCount: 2
Fore
SplineSet
370 245 m 1
 370 130 l 1
 255 130 l 1
 255 245 l 1
 370 245 l 1
370 370 m 1
 370 255 l 1
 255 255 l 1
 255 370 l 1
 370 370 l 1
370 495 m 1
 370 380 l 1
 255 380 l 1
 255 495 l 1
 370 495 l 1
370 745 m 1
 370 630 l 1
 255 630 l 1
 255 745 l 1
 370 745 l 1
370 620 m 1
 370 505 l 1
 255 505 l 1
 255 620 l 1
 370 620 l 1
370 120 m 1
 370 5 l 1
 255 5 l 1
 255 120 l 1
 370 120 l 1
370 870 m 1
 370 755 l 1
 255 755 l 1
 255 870 l 1
 370 870 l 1
370 -381 m 1
 370 -496 l 1
 255 -496 l 1
 255 -381 l 1
 370 -381 l 1
495 -380 m 1
 495 -495 l 1
 380 -495 l 1
 380 -380 l 1
 495 -380 l 1
370 -255 m 1
 370 -370 l 1
 255 -370 l 1
 255 -255 l 1
 370 -255 l 1
245 -380 m 1
 245 -495 l 1
 130 -495 l 1
 130 -380 l 1
 245 -380 l 1
495 -130 m 1
 495 -245 l 1
 380 -245 l 1
 380 -130 l 1
 495 -130 l 1
EndSplineSet
EndChar

StartChar: uni0626
Encoding: 1574 1574 182
Width: 1375
Flags: W
LayerCount: 2
Fore
SplineSet
1245 120 m 1
 1245 5 l 1
 1130 5 l 1
 1130 120 l 1
 1245 120 l 1
1120 370 m 1
 1120 255 l 1
 1005 255 l 1
 1005 370 l 1
 1120 370 l 1
995 370 m 1
 995 255 l 1
 880 255 l 1
 880 370 l 1
 995 370 l 1
745 -5 m 1
 745 -120 l 1
 630 -120 l 1
 630 -5 l 1
 745 -5 l 1
370 -5 m 1
 370 -120 l 1
 255 -120 l 1
 255 -5 l 1
 370 -5 l 1
495 -5 m 1
 495 -120 l 1
 380 -120 l 1
 380 -5 l 1
 495 -5 l 1
245 120 m 1
 245 5 l 1
 130 5 l 1
 130 120 l 1
 245 120 l 1
870 120 m 1
 870 5 l 1
 755 5 l 1
 755 120 l 1
 870 120 l 1
870 245 m 1
 870 130 l 1
 755 130 l 1
 755 245 l 1
 870 245 l 1
245 245 m 1
 245 130 l 1
 130 130 l 1
 130 245 l 1
 245 245 l 1
1245 245 m 1
 1245 130 l 1
 1130 130 l 1
 1130 245 l 1
 1245 245 l 1
370 494 m 1
 370 379 l 1
 255 379 l 1
 255 494 l 1
 370 494 l 1
495 495 m 1
 495 380 l 1
 380 380 l 1
 380 495 l 1
 495 495 l 1
370 620 m 1
 370 505 l 1
 255 505 l 1
 255 620 l 1
 370 620 l 1
245 495 m 1
 245 380 l 1
 130 380 l 1
 130 495 l 1
 245 495 l 1
495 745 m 1
 495 630 l 1
 380 630 l 1
 380 745 l 1
 495 745 l 1
620 -5 m 1
 620 -120 l 1
 505 -120 l 1
 505 -5 l 1
 620 -5 l 1
EndSplineSet
EndChar

StartChar: uni0627
Encoding: 1575 1575 183
Width: 375
Flags: W
LayerCount: 2
Fore
SplineSet
245 245 m 1
 245 130 l 1
 130 130 l 1
 130 245 l 1
 245 245 l 1
245 370 m 1
 245 255 l 1
 130 255 l 1
 130 370 l 1
 245 370 l 1
245 495 m 1
 245 380 l 1
 130 380 l 1
 130 495 l 1
 245 495 l 1
245 120 m 1
 245 5 l 1
 130 5 l 1
 130 120 l 1
 245 120 l 1
245 745 m 1
 245 630 l 1
 130 630 l 1
 130 745 l 1
 245 745 l 1
245 620 m 1
 245 505 l 1
 130 505 l 1
 130 620 l 1
 245 620 l 1
245 870 m 1
 245 755 l 1
 130 755 l 1
 130 870 l 1
 245 870 l 1
EndSplineSet
EndChar

StartChar: uni0628
Encoding: 1576 1576 184
Width: 1125
Flags: W
LayerCount: 2
Fore
SplineSet
245 5 m 1
 130 5 l 1
 130 120 l 1
 245 120 l 1
 245 5 l 1
370 -120 m 1
 255 -120 l 1
 255 -5 l 1
 370 -5 l 1
 370 -120 l 1
495 -120 m 1
 380 -120 l 1
 380 -5 l 1
 495 -5 l 1
 495 -120 l 1
620 -120 m 1
 505 -120 l 1
 505 -5 l 1
 620 -5 l 1
 620 -120 l 1
995 5 m 1
 880 5 l 1
 880 120 l 1
 995 120 l 1
 995 5 l 1
995 255 m 1
 880 255 l 1
 880 370 l 1
 995 370 l 1
 995 255 l 1
245 255 m 1
 130 255 l 1
 130 370 l 1
 245 370 l 1
 245 255 l 1
620 -495 m 1
 505 -495 l 1
 505 -380 l 1
 620 -380 l 1
 620 -495 l 1
620 -370 m 1
 505 -370 l 1
 505 -255 l 1
 620 -255 l 1
 620 -370 l 1
995 130 m 1
 880 130 l 1
 880 245 l 1
 995 245 l 1
 995 130 l 1
245 130 m 1
 130 130 l 1
 130 245 l 1
 245 245 l 1
 245 130 l 1
745 -120 m 1
 630 -120 l 1
 630 -5 l 1
 745 -5 l 1
 745 -120 l 1
870 -120 m 1
 755 -120 l 1
 755 -5 l 1
 870 -5 l 1
 870 -120 l 1
EndSplineSet
EndChar

StartChar: uni0629
Encoding: 1577 1577 185
Width: 875
Flags: W
LayerCount: 2
Fore
SplineSet
245 245 m 1
 245 130 l 1
 130 130 l 1
 130 245 l 1
 245 245 l 1
621 120 m 1
 621 5 l 1
 506 5 l 1
 506 120 l 1
 621 120 l 1
745 245 m 1
 745 130 l 1
 630 130 l 1
 630 245 l 1
 745 245 l 1
245 370 m 1
 245 255 l 1
 130 255 l 1
 130 370 l 1
 245 370 l 1
745 370 m 1
 745 255 l 1
 630 255 l 1
 630 370 l 1
 745 370 l 1
621 495 m 1
 621 380 l 1
 506 380 l 1
 506 495 l 1
 621 495 l 1
370 120 m 1
 370 5 l 1
 255 5 l 1
 255 120 l 1
 370 120 l 1
370 495 m 1
 370 380 l 1
 255 380 l 1
 255 495 l 1
 370 495 l 1
495 120 m 1
 495 5 l 1
 380 5 l 1
 380 120 l 1
 495 120 l 1
495 495 m 1
 495 380 l 1
 380 380 l 1
 380 495 l 1
 495 495 l 1
620 745 m 1
 620 630 l 1
 505 630 l 1
 505 745 l 1
 620 745 l 1
370 745 m 1
 370 630 l 1
 255 630 l 1
 255 745 l 1
 370 745 l 1
370 870 m 1
 370 755 l 1
 255 755 l 1
 255 870 l 1
 370 870 l 1
620 870 m 1
 620 755 l 1
 505 755 l 1
 505 870 l 1
 620 870 l 1
EndSplineSet
EndChar

StartChar: uni062A
Encoding: 1578 1578 186
Width: 1125
Flags: W
LayerCount: 2
Fore
SplineSet
245 5 m 1
 130 5 l 1
 130 120 l 1
 245 120 l 1
 245 5 l 1
370 -120 m 1
 255 -120 l 1
 255 -5 l 1
 370 -5 l 1
 370 -120 l 1
495 -120 m 1
 380 -120 l 1
 380 -5 l 1
 495 -5 l 1
 495 -120 l 1
620 -120 m 1
 505 -120 l 1
 505 -5 l 1
 620 -5 l 1
 620 -120 l 1
995 5 m 1
 880 5 l 1
 880 120 l 1
 995 120 l 1
 995 5 l 1
995 255 m 1
 880 255 l 1
 880 370 l 1
 995 370 l 1
 995 255 l 1
245 255 m 1
 130 255 l 1
 130 370 l 1
 245 370 l 1
 245 255 l 1
495 505 m 1
 380 505 l 1
 380 620 l 1
 495 620 l 1
 495 505 l 1
495 630 m 1
 380 630 l 1
 380 745 l 1
 495 745 l 1
 495 630 l 1
995 130 m 1
 880 130 l 1
 880 245 l 1
 995 245 l 1
 995 130 l 1
245 130 m 1
 130 130 l 1
 130 245 l 1
 245 245 l 1
 245 130 l 1
745 -120 m 1
 630 -120 l 1
 630 -5 l 1
 745 -5 l 1
 745 -120 l 1
870 -120 m 1
 755 -120 l 1
 755 -5 l 1
 870 -5 l 1
 870 -120 l 1
745 505 m 1
 630 505 l 1
 630 620 l 1
 745 620 l 1
 745 505 l 1
745 630 m 1
 630 630 l 1
 630 745 l 1
 745 745 l 1
 745 630 l 1
EndSplineSet
EndChar

StartChar: uni062B
Encoding: 1579 1579 187
Width: 1125
Flags: W
LayerCount: 2
Fore
SplineSet
245 5 m 1
 130 5 l 1
 130 120 l 1
 245 120 l 1
 245 5 l 1
370 -120 m 1
 255 -120 l 1
 255 -5 l 1
 370 -5 l 1
 370 -120 l 1
495 -120 m 1
 380 -120 l 1
 380 -5 l 1
 495 -5 l 1
 495 -120 l 1
620 -120 m 1
 505 -120 l 1
 505 -5 l 1
 620 -5 l 1
 620 -120 l 1
995 5 m 1
 880 5 l 1
 880 120 l 1
 995 120 l 1
 995 5 l 1
995 255 m 1
 880 255 l 1
 880 370 l 1
 995 370 l 1
 995 255 l 1
245 255 m 1
 130 255 l 1
 130 370 l 1
 245 370 l 1
 245 255 l 1
495 505 m 1
 380 505 l 1
 380 620 l 1
 495 620 l 1
 495 505 l 1
495 630 m 1
 380 630 l 1
 380 745 l 1
 495 745 l 1
 495 630 l 1
995 130 m 1
 880 130 l 1
 880 245 l 1
 995 245 l 1
 995 130 l 1
245 130 m 1
 130 130 l 1
 130 245 l 1
 245 245 l 1
 245 130 l 1
745 -120 m 1
 630 -120 l 1
 630 -5 l 1
 745 -5 l 1
 745 -120 l 1
870 -120 m 1
 755 -120 l 1
 755 -5 l 1
 870 -5 l 1
 870 -120 l 1
745 505 m 1
 630 505 l 1
 630 620 l 1
 745 620 l 1
 745 505 l 1
745 630 m 1
 630 630 l 1
 630 745 l 1
 745 745 l 1
 745 630 l 1
620 755 m 1
 505 755 l 1
 505 870 l 1
 620 870 l 1
 620 755 l 1
EndSplineSet
EndChar

StartChar: uni062C
Encoding: 1580 1580 188
Width: 1000
Flags: W
LayerCount: 2
Fore
SplineSet
370 245 m 1
 370 130 l 1
 255 130 l 1
 255 245 l 1
 370 245 l 1
370 120 m 1
 370 5 l 1
 255 5 l 1
 255 120 l 1
 370 120 l 1
620 370 m 1
 620 255 l 1
 505 255 l 1
 505 370 l 1
 620 370 l 1
745 370 m 1
 745 255 l 1
 630 255 l 1
 630 370 l 1
 745 370 l 1
620 -255 m 1
 620 -370 l 1
 505 -370 l 1
 505 -255 l 1
 620 -255 l 1
370 -130 m 1
 370 -245 l 1
 255 -245 l 1
 255 -130 l 1
 370 -130 l 1
495 -255 m 1
 495 -370 l 1
 380 -370 l 1
 380 -255 l 1
 495 -255 l 1
495 370 m 1
 495 255 l 1
 380 255 l 1
 380 370 l 1
 495 370 l 1
620 120 m 1
 620 5 l 1
 505 5 l 1
 505 120 l 1
 620 120 l 1
370 370 m 1
 370 255 l 1
 255 255 l 1
 255 370 l 1
 370 370 l 1
245 370 m 1
 245 255 l 1
 130 255 l 1
 130 370 l 1
 245 370 l 1
870 370 m 1
 870 255 l 1
 755 255 l 1
 755 370 l 1
 870 370 l 1
745 -255 m 1
 745 -370 l 1
 630 -370 l 1
 630 -255 l 1
 745 -255 l 1
370 -5 m 1
 370 -120 l 1
 255 -120 l 1
 255 -5 l 1
 370 -5 l 1
620 -5 m 1
 620 -120 l 1
 505 -120 l 1
 505 -5 l 1
 620 -5 l 1
EndSplineSet
EndChar

StartChar: uni062D
Encoding: 1581 1581 189
Width: 1000
Flags: W
LayerCount: 2
Fore
SplineSet
370 245 m 1
 370 130 l 1
 255 130 l 1
 255 245 l 1
 370 245 l 1
370 120 m 1
 370 5 l 1
 255 5 l 1
 255 120 l 1
 370 120 l 1
620 370 m 1
 620 255 l 1
 505 255 l 1
 505 370 l 1
 620 370 l 1
745 370 m 1
 745 255 l 1
 630 255 l 1
 630 370 l 1
 745 370 l 1
620 -255 m 1
 620 -370 l 1
 505 -370 l 1
 505 -255 l 1
 620 -255 l 1
370 -130 m 1
 370 -245 l 1
 255 -245 l 1
 255 -130 l 1
 370 -130 l 1
495 -255 m 1
 495 -370 l 1
 380 -370 l 1
 380 -255 l 1
 495 -255 l 1
495 370 m 1
 495 255 l 1
 380 255 l 1
 380 370 l 1
 495 370 l 1
370 370 m 1
 370 255 l 1
 255 255 l 1
 255 370 l 1
 370 370 l 1
245 370 m 1
 245 255 l 1
 130 255 l 1
 130 370 l 1
 245 370 l 1
870 370 m 1
 870 255 l 1
 755 255 l 1
 755 370 l 1
 870 370 l 1
745 -255 m 1
 745 -370 l 1
 630 -370 l 1
 630 -255 l 1
 745 -255 l 1
370 -5 m 1
 370 -120 l 1
 255 -120 l 1
 255 -5 l 1
 370 -5 l 1
EndSplineSet
EndChar

StartChar: uni062E
Encoding: 1582 1582 190
Width: 1000
Flags: W
LayerCount: 2
Fore
SplineSet
370 245 m 1
 370 130 l 1
 255 130 l 1
 255 245 l 1
 370 245 l 1
370 120 m 1
 370 5 l 1
 255 5 l 1
 255 120 l 1
 370 120 l 1
620 370 m 1
 620 255 l 1
 505 255 l 1
 505 370 l 1
 620 370 l 1
745 370 m 1
 745 255 l 1
 630 255 l 1
 630 370 l 1
 745 370 l 1
620 -255 m 1
 620 -370 l 1
 505 -370 l 1
 505 -255 l 1
 620 -255 l 1
370 -130 m 1
 370 -245 l 1
 255 -245 l 1
 255 -130 l 1
 370 -130 l 1
495 -255 m 1
 495 -370 l 1
 380 -370 l 1
 380 -255 l 1
 495 -255 l 1
495 370 m 1
 495 255 l 1
 380 255 l 1
 380 370 l 1
 495 370 l 1
620 870 m 1
 620 755 l 1
 505 755 l 1
 505 870 l 1
 620 870 l 1
370 370 m 1
 370 255 l 1
 255 255 l 1
 255 370 l 1
 370 370 l 1
245 370 m 1
 245 255 l 1
 130 255 l 1
 130 370 l 1
 245 370 l 1
870 370 m 1
 870 255 l 1
 755 255 l 1
 755 370 l 1
 870 370 l 1
745 -255 m 1
 745 -370 l 1
 630 -370 l 1
 630 -255 l 1
 745 -255 l 1
370 -5 m 1
 370 -120 l 1
 255 -120 l 1
 255 -5 l 1
 370 -5 l 1
620 745 m 1
 620 630 l 1
 505 630 l 1
 505 745 l 1
 620 745 l 1
EndSplineSet
EndChar

StartChar: uni062F
Encoding: 1583 1583 191
Width: 750
Flags: W
LayerCount: 2
Fore
SplineSet
370 495 m 1
 370 380 l 1
 255 380 l 1
 255 495 l 1
 370 495 l 1
495 370 m 1
 495 255 l 1
 380 255 l 1
 380 370 l 1
 495 370 l 1
620 245 m 1
 620 130 l 1
 505 130 l 1
 505 245 l 1
 620 245 l 1
370 120 m 1
 370 5 l 1
 255 5 l 1
 255 120 l 1
 370 120 l 1
495 120 m 1
 495 5 l 1
 380 5 l 1
 380 120 l 1
 495 120 l 1
245 120 m 1
 245 5 l 1
 130 5 l 1
 130 120 l 1
 245 120 l 1
EndSplineSet
EndChar

StartChar: uni0630
Encoding: 1584 1584 192
Width: 750
Flags: W
LayerCount: 2
Fore
SplineSet
370 495 m 1
 370 380 l 1
 255 380 l 1
 255 495 l 1
 370 495 l 1
495 370 m 1
 495 255 l 1
 380 255 l 1
 380 370 l 1
 495 370 l 1
620 245 m 1
 620 130 l 1
 505 130 l 1
 505 245 l 1
 620 245 l 1
370 120 m 1
 370 5 l 1
 255 5 l 1
 255 120 l 1
 370 120 l 1
495 120 m 1
 495 5 l 1
 380 5 l 1
 380 120 l 1
 495 120 l 1
245 120 m 1
 245 5 l 1
 130 5 l 1
 130 120 l 1
 245 120 l 1
370 870 m 1
 370 755 l 1
 255 755 l 1
 255 870 l 1
 370 870 l 1
370 745 m 1
 370 630 l 1
 255 630 l 1
 255 745 l 1
 370 745 l 1
EndSplineSet
EndChar

StartChar: uni0631
Encoding: 1585 1585 193
Width: 750
Flags: W
LayerCount: 2
Fore
SplineSet
620 245 m 1
 620 130 l 1
 505 130 l 1
 505 245 l 1
 620 245 l 1
620 120 m 1
 620 5 l 1
 505 5 l 1
 505 120 l 1
 620 120 l 1
620 -5 m 1
 620 -120 l 1
 505 -120 l 1
 505 -5 l 1
 620 -5 l 1
370 -130 m 1
 370 -245 l 1
 255 -245 l 1
 255 -130 l 1
 370 -130 l 1
495 -130 m 1
 495 -245 l 1
 380 -245 l 1
 380 -130 l 1
 495 -130 l 1
245 -130 m 1
 245 -245 l 1
 130 -245 l 1
 130 -130 l 1
 245 -130 l 1
620 370 m 1
 620 255 l 1
 505 255 l 1
 505 370 l 1
 620 370 l 1
EndSplineSet
EndChar

StartChar: uni0632
Encoding: 1586 1586 194
Width: 750
Flags: W
LayerCount: 2
Fore
SplineSet
620 245 m 1
 620 130 l 1
 505 130 l 1
 505 245 l 1
 620 245 l 1
620 120 m 1
 620 5 l 1
 505 5 l 1
 505 120 l 1
 620 120 l 1
620 -5 m 1
 620 -120 l 1
 505 -120 l 1
 505 -5 l 1
 620 -5 l 1
370 -130 m 1
 370 -245 l 1
 255 -245 l 1
 255 -130 l 1
 370 -130 l 1
495 -130 m 1
 495 -245 l 1
 380 -245 l 1
 380 -130 l 1
 495 -130 l 1
245 -130 m 1
 245 -245 l 1
 130 -245 l 1
 130 -130 l 1
 245 -130 l 1
620 370 m 1
 620 255 l 1
 505 255 l 1
 505 370 l 1
 620 370 l 1
620 745 m 1
 620 630 l 1
 505 630 l 1
 505 745 l 1
 620 745 l 1
620 870 m 1
 620 755 l 1
 505 755 l 1
 505 870 l 1
 620 870 l 1
EndSplineSet
EndChar

StartChar: uni0633
Encoding: 1587 1587 195
Width: 1500
Flags: W
LayerCount: 2
Fore
SplineSet
995 120 m 1
 995 5 l 1
 880 5 l 1
 880 120 l 1
 995 120 l 1
870 245 m 1
 870 130 l 1
 755 130 l 1
 755 245 l 1
 870 245 l 1
870 120 m 1
 870 5 l 1
 755 5 l 1
 755 120 l 1
 870 120 l 1
870 -5 m 1
 870 -120 l 1
 755 -120 l 1
 755 -5 l 1
 870 -5 l 1
370 -130 m 1
 370 -245 l 1
 255 -245 l 1
 255 -130 l 1
 370 -130 l 1
495 -130 m 1
 495 -245 l 1
 380 -245 l 1
 380 -130 l 1
 495 -130 l 1
245 -5 m 1
 245 -120 l 1
 130 -120 l 1
 130 -5 l 1
 245 -5 l 1
870 370 m 1
 870 255 l 1
 755 255 l 1
 755 370 l 1
 870 370 l 1
245 120 m 1
 245 5 l 1
 130 5 l 1
 130 120 l 1
 245 120 l 1
1120 120 m 1
 1120 5 l 1
 1005 5 l 1
 1005 120 l 1
 1120 120 l 1
1245 120 m 1
 1245 5 l 1
 1130 5 l 1
 1130 120 l 1
 1245 120 l 1
1120 245 m 1
 1120 130 l 1
 1005 130 l 1
 1005 245 l 1
 1120 245 l 1
1120 370 m 1
 1120 255 l 1
 1005 255 l 1
 1005 370 l 1
 1120 370 l 1
1370 245 m 1
 1370 130 l 1
 1255 130 l 1
 1255 245 l 1
 1370 245 l 1
1370 370 m 1
 1370 255 l 1
 1255 255 l 1
 1255 370 l 1
 1370 370 l 1
745 -130 m 1
 745 -245 l 1
 630 -245 l 1
 630 -130 l 1
 745 -130 l 1
620 -130 m 1
 620 -245 l 1
 505 -245 l 1
 505 -130 l 1
 620 -130 l 1
EndSplineSet
EndChar

StartChar: uni0634
Encoding: 1588 1588 196
Width: 1500
Flags: W
LayerCount: 2
Fore
SplineSet
995 120 m 1
 995 5 l 1
 880 5 l 1
 880 120 l 1
 995 120 l 1
870 245 m 1
 870 130 l 1
 755 130 l 1
 755 245 l 1
 870 245 l 1
870 120 m 1
 870 5 l 1
 755 5 l 1
 755 120 l 1
 870 120 l 1
870 -5 m 1
 870 -120 l 1
 755 -120 l 1
 755 -5 l 1
 870 -5 l 1
870 370 m 1
 870 255 l 1
 755 255 l 1
 755 370 l 1
 870 370 l 1
1120 120 m 1
 1120 5 l 1
 1005 5 l 1
 1005 120 l 1
 1120 120 l 1
1245 120 m 1
 1245 5 l 1
 1130 5 l 1
 1130 120 l 1
 1245 120 l 1
1120 245 m 1
 1120 130 l 1
 1005 130 l 1
 1005 245 l 1
 1120 245 l 1
1120 370 m 1
 1120 255 l 1
 1005 255 l 1
 1005 370 l 1
 1120 370 l 1
1370 245 m 1
 1370 130 l 1
 1255 130 l 1
 1255 245 l 1
 1370 245 l 1
1370 370 m 1
 1370 255 l 1
 1255 255 l 1
 1255 370 l 1
 1370 370 l 1
1120 995 m 1
 1120 880 l 1
 1005 880 l 1
 1005 995 l 1
 1120 995 l 1
994 870 m 1
 994 755 l 1
 879 755 l 1
 879 870 l 1
 994 870 l 1
994 745 m 1
 994 630 l 1
 879 630 l 1
 879 745 l 1
 994 745 l 1
1245 870 m 1
 1245 755 l 1
 1130 755 l 1
 1130 870 l 1
 1245 870 l 1
1245 745 m 1
 1245 630 l 1
 1130 630 l 1
 1130 745 l 1
 1245 745 l 1
370 -130 m 1
 370 -245 l 1
 255 -245 l 1
 255 -130 l 1
 370 -130 l 1
495 -130 m 1
 495 -245 l 1
 380 -245 l 1
 380 -130 l 1
 495 -130 l 1
245 -5 m 1
 245 -120 l 1
 130 -120 l 1
 130 -5 l 1
 245 -5 l 1
245 120 m 1
 245 5 l 1
 130 5 l 1
 130 120 l 1
 245 120 l 1
745 -130 m 1
 745 -245 l 1
 630 -245 l 1
 630 -130 l 1
 745 -130 l 1
620 -130 m 1
 620 -245 l 1
 505 -245 l 1
 505 -130 l 1
 620 -130 l 1
EndSplineSet
EndChar

StartChar: uni0635
Encoding: 1589 1589 197
Width: 1625
Flags: W
LayerCount: 2
Fore
SplineSet
1120 120 m 1
 1120 5 l 1
 1005 5 l 1
 1005 120 l 1
 1120 120 l 1
870 120 m 1
 870 5 l 1
 755 5 l 1
 755 120 l 1
 870 120 l 1
870 -5 m 1
 870 -120 l 1
 755 -120 l 1
 755 -5 l 1
 870 -5 l 1
1245 120 m 1
 1245 5 l 1
 1130 5 l 1
 1130 120 l 1
 1245 120 l 1
1370 120 m 1
 1370 5 l 1
 1255 5 l 1
 1255 120 l 1
 1370 120 l 1
1120 245 m 1
 1120 130 l 1
 1005 130 l 1
 1005 245 l 1
 1120 245 l 1
1120 370 m 1
 1120 255 l 1
 1005 255 l 1
 1005 370 l 1
 1120 370 l 1
1495 245 m 1
 1495 130 l 1
 1380 130 l 1
 1380 245 l 1
 1495 245 l 1
1495 370 m 1
 1495 255 l 1
 1380 255 l 1
 1380 370 l 1
 1495 370 l 1
1245 495 m 1
 1245 380 l 1
 1130 380 l 1
 1130 495 l 1
 1245 495 l 1
1370 495 m 1
 1370 380 l 1
 1255 380 l 1
 1255 495 l 1
 1370 495 l 1
995 120 m 1
 995 5 l 1
 880 5 l 1
 880 120 l 1
 995 120 l 1
870 245 m 1
 870 130 l 1
 755 130 l 1
 755 245 l 1
 870 245 l 1
370 -130 m 1
 370 -245 l 1
 255 -245 l 1
 255 -130 l 1
 370 -130 l 1
245 -5 m 1
 245 -120 l 1
 130 -120 l 1
 130 -5 l 1
 245 -5 l 1
245 120 m 1
 245 5 l 1
 130 5 l 1
 130 120 l 1
 245 120 l 1
495 -130 m 1
 495 -245 l 1
 380 -245 l 1
 380 -130 l 1
 495 -130 l 1
745 -130 m 1
 745 -245 l 1
 630 -245 l 1
 630 -130 l 1
 745 -130 l 1
620 -130 m 1
 620 -245 l 1
 505 -245 l 1
 505 -130 l 1
 620 -130 l 1
EndSplineSet
EndChar

StartChar: uni0636
Encoding: 1590 1590 198
Width: 1625
Flags: W
LayerCount: 2
Fore
SplineSet
1120 120 m 1
 1120 5 l 1
 1005 5 l 1
 1005 120 l 1
 1120 120 l 1
870 120 m 1
 870 5 l 1
 755 5 l 1
 755 120 l 1
 870 120 l 1
870 -5 m 1
 870 -120 l 1
 755 -120 l 1
 755 -5 l 1
 870 -5 l 1
1245 120 m 1
 1245 5 l 1
 1130 5 l 1
 1130 120 l 1
 1245 120 l 1
1370 120 m 1
 1370 5 l 1
 1255 5 l 1
 1255 120 l 1
 1370 120 l 1
1120 245 m 1
 1120 130 l 1
 1005 130 l 1
 1005 245 l 1
 1120 245 l 1
1120 370 m 1
 1120 255 l 1
 1005 255 l 1
 1005 370 l 1
 1120 370 l 1
1495 245 m 1
 1495 130 l 1
 1380 130 l 1
 1380 245 l 1
 1495 245 l 1
1495 370 m 1
 1495 255 l 1
 1380 255 l 1
 1380 370 l 1
 1495 370 l 1
1245 495 m 1
 1245 380 l 1
 1130 380 l 1
 1130 495 l 1
 1245 495 l 1
1370 495 m 1
 1370 380 l 1
 1255 380 l 1
 1255 495 l 1
 1370 495 l 1
995 120 m 1
 995 5 l 1
 880 5 l 1
 880 120 l 1
 995 120 l 1
1245 745 m 1
 1245 630 l 1
 1130 630 l 1
 1130 745 l 1
 1245 745 l 1
1245 870 m 1
 1245 755 l 1
 1130 755 l 1
 1130 870 l 1
 1245 870 l 1
870 245 m 1
 870 130 l 1
 755 130 l 1
 755 245 l 1
 870 245 l 1
370 -130 m 1
 370 -245 l 1
 255 -245 l 1
 255 -130 l 1
 370 -130 l 1
495 -130 m 1
 495 -245 l 1
 380 -245 l 1
 380 -130 l 1
 495 -130 l 1
245 -5 m 1
 245 -120 l 1
 130 -120 l 1
 130 -5 l 1
 245 -5 l 1
245 120 m 1
 245 5 l 1
 130 5 l 1
 130 120 l 1
 245 120 l 1
745 -130 m 1
 745 -245 l 1
 630 -245 l 1
 630 -130 l 1
 745 -130 l 1
620 -130 m 1
 620 -245 l 1
 505 -245 l 1
 505 -130 l 1
 620 -130 l 1
EndSplineSet
EndChar

StartChar: uni0637
Encoding: 1591 1591 199
Width: 1000
Flags: W
LayerCount: 2
Fore
SplineSet
245 120 m 1
 245 5 l 1
 130 5 l 1
 130 120 l 1
 245 120 l 1
495 120 m 1
 495 5 l 1
 380 5 l 1
 380 120 l 1
 495 120 l 1
370 120 m 1
 370 5 l 1
 255 5 l 1
 255 120 l 1
 370 120 l 1
620 120 m 1
 620 5 l 1
 505 5 l 1
 505 120 l 1
 620 120 l 1
495 245 m 1
 495 130 l 1
 380 130 l 1
 380 245 l 1
 495 245 l 1
495 370 m 1
 495 255 l 1
 380 255 l 1
 380 370 l 1
 495 370 l 1
495 495 m 1
 495 380 l 1
 380 380 l 1
 380 495 l 1
 495 495 l 1
495 620 m 1
 495 505 l 1
 380 505 l 1
 380 620 l 1
 495 620 l 1
745 120 m 1
 745 5 l 1
 630 5 l 1
 630 120 l 1
 745 120 l 1
620 495 m 1
 620 380 l 1
 505 380 l 1
 505 495 l 1
 620 495 l 1
745 495 m 1
 745 380 l 1
 630 380 l 1
 630 495 l 1
 745 495 l 1
870 370 m 1
 870 255 l 1
 755 255 l 1
 755 370 l 1
 870 370 l 1
495 745 m 1
 495 630 l 1
 380 630 l 1
 380 745 l 1
 495 745 l 1
870 245 m 1
 870 130 l 1
 755 130 l 1
 755 245 l 1
 870 245 l 1
EndSplineSet
EndChar

StartChar: uni0638
Encoding: 1592 1592 200
Width: 1000
Flags: W
LayerCount: 2
Fore
SplineSet
245 120 m 1
 245 5 l 1
 130 5 l 1
 130 120 l 1
 245 120 l 1
495 120 m 1
 495 5 l 1
 380 5 l 1
 380 120 l 1
 495 120 l 1
370 120 m 1
 370 5 l 1
 255 5 l 1
 255 120 l 1
 370 120 l 1
620 120 m 1
 620 5 l 1
 505 5 l 1
 505 120 l 1
 620 120 l 1
495 245 m 1
 495 130 l 1
 380 130 l 1
 380 245 l 1
 495 245 l 1
495 370 m 1
 495 255 l 1
 380 255 l 1
 380 370 l 1
 495 370 l 1
495 495 m 1
 495 380 l 1
 380 380 l 1
 380 495 l 1
 495 495 l 1
495 620 m 1
 495 505 l 1
 380 505 l 1
 380 620 l 1
 495 620 l 1
745 120 m 1
 745 5 l 1
 630 5 l 1
 630 120 l 1
 745 120 l 1
620 495 m 1
 620 380 l 1
 505 380 l 1
 505 495 l 1
 620 495 l 1
745 495 m 1
 745 380 l 1
 630 380 l 1
 630 495 l 1
 745 495 l 1
870 370 m 1
 870 255 l 1
 755 255 l 1
 755 370 l 1
 870 370 l 1
495 745 m 1
 495 630 l 1
 380 630 l 1
 380 745 l 1
 495 745 l 1
870 245 m 1
 870 130 l 1
 755 130 l 1
 755 245 l 1
 870 245 l 1
745 995 m 1
 745 880 l 1
 630 880 l 1
 630 995 l 1
 745 995 l 1
745 870 m 1
 745 755 l 1
 630 755 l 1
 630 870 l 1
 745 870 l 1
EndSplineSet
EndChar

StartChar: uni0639
Encoding: 1593 1593 201
Width: 750
Flags: W
LayerCount: 2
Fore
SplineSet
495 620 m 1
 495 505 l 1
 380 505 l 1
 380 620 l 1
 495 620 l 1
245 120 m 1
 245 5 l 1
 130 5 l 1
 130 120 l 1
 245 120 l 1
245 -5 m 1
 245 -120 l 1
 130 -120 l 1
 130 -5 l 1
 245 -5 l 1
245 494 m 1
 245 379 l 1
 130 379 l 1
 130 494 l 1
 245 494 l 1
495 245 m 1
 495 130 l 1
 380 130 l 1
 380 245 l 1
 495 245 l 1
370 245 m 1
 370 130 l 1
 255 130 l 1
 255 245 l 1
 370 245 l 1
370 620 m 1
 370 505 l 1
 255 505 l 1
 255 620 l 1
 370 620 l 1
245 -130 m 1
 245 -245 l 1
 130 -245 l 1
 130 -130 l 1
 245 -130 l 1
370 -255 m 1
 370 -370 l 1
 255 -370 l 1
 255 -255 l 1
 370 -255 l 1
495 -255 m 1
 495 -370 l 1
 380 -370 l 1
 380 -255 l 1
 495 -255 l 1
620 -255 m 1
 620 -370 l 1
 505 -370 l 1
 505 -255 l 1
 620 -255 l 1
245 370 m 1
 245 255 l 1
 130 255 l 1
 130 370 l 1
 245 370 l 1
EndSplineSet
EndChar

StartChar: uni063A
Encoding: 1594 1594 202
Width: 750
Flags: W
LayerCount: 2
Fore
SplineSet
495 620 m 1
 495 505 l 1
 380 505 l 1
 380 620 l 1
 495 620 l 1
245 120 m 1
 245 5 l 1
 130 5 l 1
 130 120 l 1
 245 120 l 1
245 -5 m 1
 245 -120 l 1
 130 -120 l 1
 130 -5 l 1
 245 -5 l 1
245 494 m 1
 245 379 l 1
 130 379 l 1
 130 494 l 1
 245 494 l 1
495 245 m 1
 495 130 l 1
 380 130 l 1
 380 245 l 1
 495 245 l 1
370 245 m 1
 370 130 l 1
 255 130 l 1
 255 245 l 1
 370 245 l 1
370 620 m 1
 370 505 l 1
 255 505 l 1
 255 620 l 1
 370 620 l 1
245 -130 m 1
 245 -245 l 1
 130 -245 l 1
 130 -130 l 1
 245 -130 l 1
370 -255 m 1
 370 -370 l 1
 255 -370 l 1
 255 -255 l 1
 370 -255 l 1
495 -255 m 1
 495 -370 l 1
 380 -370 l 1
 380 -255 l 1
 495 -255 l 1
620 -255 m 1
 620 -370 l 1
 505 -370 l 1
 505 -255 l 1
 620 -255 l 1
245 370 m 1
 245 255 l 1
 130 255 l 1
 130 370 l 1
 245 370 l 1
370 995 m 1
 370 880 l 1
 255 880 l 1
 255 995 l 1
 370 995 l 1
370 871 m 1
 370 756 l 1
 255 756 l 1
 255 871 l 1
 370 871 l 1
EndSplineSet
EndChar

StartChar: bracketright
Encoding: 93 93 203
Width: 750
Flags: W
LayerCount: 2
Fore
SplineSet
620 995 m 1
 620 880 l 1
 505 880 l 1
 505 995 l 1
 620 995 l 1
620 870 m 1
 620 755 l 1
 505 755 l 1
 505 870 l 1
 620 870 l 1
495 995 m 1
 495 880 l 1
 380 880 l 1
 380 995 l 1
 495 995 l 1
370 995 m 1
 370 880 l 1
 255 880 l 1
 255 995 l 1
 370 995 l 1
620 745 m 1
 620 630 l 1
 505 630 l 1
 505 745 l 1
 620 745 l 1
245 995 m 1
 245 880 l 1
 130 880 l 1
 130 995 l 1
 245 995 l 1
620 620 m 1
 620 505 l 1
 505 505 l 1
 505 620 l 1
 620 620 l 1
620 495 m 1
 620 380 l 1
 505 380 l 1
 505 495 l 1
 620 495 l 1
620 370 m 1
 620 255 l 1
 505 255 l 1
 505 370 l 1
 620 370 l 1
620 245 m 1
 620 130 l 1
 505 130 l 1
 505 245 l 1
 620 245 l 1
620 120 m 1
 620 5 l 1
 505 5 l 1
 505 120 l 1
 620 120 l 1
620 -5 m 1
 620 -120 l 1
 505 -120 l 1
 505 -5 l 1
 620 -5 l 1
620 -130 m 1
 620 -245 l 1
 505 -245 l 1
 505 -130 l 1
 620 -130 l 1
495 -130 m 1
 495 -245 l 1
 380 -245 l 1
 380 -130 l 1
 495 -130 l 1
370 -130 m 1
 370 -245 l 1
 255 -245 l 1
 255 -130 l 1
 370 -130 l 1
245 -130 m 1
 245 -245 l 1
 130 -245 l 1
 130 -130 l 1
 245 -130 l 1
EndSplineSet
EndChar

StartChar: bullet
Encoding: 8226 8226 204
Width: 1000
Flags: W
LayerCount: 2
Fore
SplineSet
745 495 m 1
 745 380 l 1
 630 380 l 1
 630 495 l 1
 745 495 l 1
620 495 m 1
 620 380 l 1
 505 380 l 1
 505 495 l 1
 620 495 l 1
745 370 m 1
 745 255 l 1
 630 255 l 1
 630 370 l 1
 745 370 l 1
495 495 m 1
 495 380 l 1
 380 380 l 1
 380 495 l 1
 495 495 l 1
620 370 m 1
 620 255 l 1
 505 255 l 1
 505 370 l 1
 620 370 l 1
745 245 m 1
 745 130 l 1
 630 130 l 1
 630 245 l 1
 745 245 l 1
495 370 m 1
 495 255 l 1
 380 255 l 1
 380 370 l 1
 495 370 l 1
620 245 m 1
 620 130 l 1
 505 130 l 1
 505 245 l 1
 620 245 l 1
495 245 m 1
 495 130 l 1
 380 130 l 1
 380 245 l 1
 495 245 l 1
370 245 m 1
 370 130 l 1
 255 130 l 1
 255 245 l 1
 370 245 l 1
370 370 m 1
 370 255 l 1
 255 255 l 1
 255 370 l 1
 370 370 l 1
370 495 m 1
 370 380 l 1
 255 380 l 1
 255 495 l 1
 370 495 l 1
EndSplineSet
EndChar

StartChar: bracketleft
Encoding: 91 91 205
Width: 750
Flags: W
LayerCount: 2
Fore
SplineSet
620 995 m 1
 620 880 l 1
 505 880 l 1
 505 995 l 1
 620 995 l 1
495 995 m 1
 495 880 l 1
 380 880 l 1
 380 995 l 1
 495 995 l 1
370 995 m 1
 370 880 l 1
 255 880 l 1
 255 995 l 1
 370 995 l 1
245 995 m 1
 245 880 l 1
 130 880 l 1
 130 995 l 1
 245 995 l 1
245 870 m 1
 245 755 l 1
 130 755 l 1
 130 870 l 1
 245 870 l 1
245 745 m 1
 245 630 l 1
 130 630 l 1
 130 745 l 1
 245 745 l 1
245 620 m 1
 245 505 l 1
 130 505 l 1
 130 620 l 1
 245 620 l 1
245 495 m 1
 245 380 l 1
 130 380 l 1
 130 495 l 1
 245 495 l 1
245 370 m 1
 245 255 l 1
 130 255 l 1
 130 370 l 1
 245 370 l 1
245 245 m 1
 245 130 l 1
 130 130 l 1
 130 245 l 1
 245 245 l 1
620 -130 m 1
 620 -245 l 1
 505 -245 l 1
 505 -130 l 1
 620 -130 l 1
245 120 m 1
 245 5 l 1
 130 5 l 1
 130 120 l 1
 245 120 l 1
495 -130 m 1
 495 -245 l 1
 380 -245 l 1
 380 -130 l 1
 495 -130 l 1
245 -5 m 1
 245 -120 l 1
 130 -120 l 1
 130 -5 l 1
 245 -5 l 1
370 -130 m 1
 370 -245 l 1
 255 -245 l 1
 255 -130 l 1
 370 -130 l 1
245 -130 m 1
 245 -245 l 1
 130 -245 l 1
 130 -130 l 1
 245 -130 l 1
EndSplineSet
EndChar

StartChar: asciicircum
Encoding: 94 94 206
Width: 875
Flags: W
LayerCount: 2
Fore
SplineSet
495 995 m 1
 495 880 l 1
 380 880 l 1
 380 995 l 1
 495 995 l 1
620 870 m 1
 620 755 l 1
 505 755 l 1
 505 870 l 1
 620 870 l 1
745 745 m 1
 745 630 l 1
 630 630 l 1
 630 745 l 1
 745 745 l 1
370 870 m 1
 370 755 l 1
 255 755 l 1
 255 870 l 1
 370 870 l 1
245 745 m 1
 245 630 l 1
 130 630 l 1
 130 745 l 1
 245 745 l 1
EndSplineSet
EndChar

StartChar: underscore
Encoding: 95 95 207
Width: 625
Flags: W
LayerCount: 2
Fore
SplineSet
620 120 m 1
 620 5 l 1
 505 5 l 1
 505 120 l 1
 620 120 l 1
495 120 m 1
 495 5 l 1
 380 5 l 1
 380 120 l 1
 495 120 l 1
370 120 m 1
 370 5 l 1
 255 5 l 1
 255 120 l 1
 370 120 l 1
245 120 m 1
 245 5 l 1
 130 5 l 1
 130 120 l 1
 245 120 l 1
120 120 m 1
 120 5 l 1
 5 5 l 1
 5 120 l 1
 120 120 l 1
EndSplineSet
EndChar

StartChar: uni0640
Encoding: 1600 1600 208
Width: 250
Flags: W
LayerCount: 2
Fore
SplineSet
120 120 m 1
 120 5 l 1
 5 5 l 1
 5 120 l 1
 120 120 l 1
245 120 m 1
 245 5 l 1
 130 5 l 1
 130 120 l 1
 245 120 l 1
EndSplineSet
EndChar

StartChar: uni0641
Encoding: 1601 1601 209
Width: 1250
Flags: W
LayerCount: 2
Fore
SplineSet
620 -5 m 1
 620 -120 l 1
 505 -120 l 1
 505 -5 l 1
 620 -5 l 1
870 -5 m 1
 870 -120 l 1
 755 -120 l 1
 755 -5 l 1
 870 -5 l 1
745 -5 m 1
 745 -120 l 1
 630 -120 l 1
 630 -5 l 1
 745 -5 l 1
995 -5 m 1
 995 -120 l 1
 880 -120 l 1
 880 -5 l 1
 995 -5 l 1
1120 120 m 1
 1120 5 l 1
 1005 5 l 1
 1005 120 l 1
 1120 120 l 1
1120 245 m 1
 1120 130 l 1
 1005 130 l 1
 1005 245 l 1
 1120 245 l 1
1120 495 m 1
 1120 380 l 1
 1005 380 l 1
 1005 495 l 1
 1120 495 l 1
995 245 m 1
 995 130 l 1
 880 130 l 1
 880 245 l 1
 995 245 l 1
870 245 m 1
 870 130 l 1
 755 130 l 1
 755 245 l 1
 870 245 l 1
745 495 m 1
 745 380 l 1
 630 380 l 1
 630 495 l 1
 745 495 l 1
870 620 m 1
 870 505 l 1
 755 505 l 1
 755 620 l 1
 870 620 l 1
995 620 m 1
 995 505 l 1
 880 505 l 1
 880 620 l 1
 995 620 l 1
870 870 m 1
 870 755 l 1
 755 755 l 1
 755 870 l 1
 870 870 l 1
870 995 m 1
 870 880 l 1
 755 880 l 1
 755 995 l 1
 870 995 l 1
1120 370 m 1
 1120 255 l 1
 1005 255 l 1
 1005 370 l 1
 1120 370 l 1
745 370 m 1
 745 255 l 1
 630 255 l 1
 630 370 l 1
 745 370 l 1
495 -5 m 1
 495 -120 l 1
 380 -120 l 1
 380 -5 l 1
 495 -5 l 1
370 -5 m 1
 370 -120 l 1
 255 -120 l 1
 255 -5 l 1
 370 -5 l 1
245 120 m 1
 245 5 l 1
 130 5 l 1
 130 120 l 1
 245 120 l 1
245 245 m 1
 245 130 l 1
 130 130 l 1
 130 245 l 1
 245 245 l 1
EndSplineSet
EndChar

StartChar: uni0642
Encoding: 1602 1602 210
Width: 1125
Flags: W
LayerCount: 2
Fore
SplineSet
495 -5 m 1
 495 -120 l 1
 380 -120 l 1
 380 -5 l 1
 495 -5 l 1
745 -5 m 1
 745 -120 l 1
 630 -120 l 1
 630 -5 l 1
 745 -5 l 1
620 -5 m 1
 620 -120 l 1
 505 -120 l 1
 505 -5 l 1
 620 -5 l 1
870 -5 m 1
 870 -120 l 1
 755 -120 l 1
 755 -5 l 1
 870 -5 l 1
995 120 m 1
 995 5 l 1
 880 5 l 1
 880 120 l 1
 995 120 l 1
995 245 m 1
 995 130 l 1
 880 130 l 1
 880 245 l 1
 995 245 l 1
995 495 m 1
 995 380 l 1
 880 380 l 1
 880 495 l 1
 995 495 l 1
870 245 m 1
 870 130 l 1
 755 130 l 1
 755 245 l 1
 870 245 l 1
745 245 m 1
 745 130 l 1
 630 130 l 1
 630 245 l 1
 745 245 l 1
620 495 m 1
 620 380 l 1
 505 380 l 1
 505 495 l 1
 620 495 l 1
745 620 m 1
 745 505 l 1
 630 505 l 1
 630 620 l 1
 745 620 l 1
870 620 m 1
 870 505 l 1
 755 505 l 1
 755 620 l 1
 870 620 l 1
620 870 m 1
 620 755 l 1
 505 755 l 1
 505 870 l 1
 620 870 l 1
620 995 m 1
 620 880 l 1
 505 880 l 1
 505 995 l 1
 620 995 l 1
995 370 m 1
 995 255 l 1
 880 255 l 1
 880 370 l 1
 995 370 l 1
620 370 m 1
 620 255 l 1
 505 255 l 1
 505 370 l 1
 620 370 l 1
370 -5 m 1
 370 -120 l 1
 255 -120 l 1
 255 -5 l 1
 370 -5 l 1
245 120 m 1
 245 5 l 1
 130 5 l 1
 130 120 l 1
 245 120 l 1
245 245 m 1
 245 130 l 1
 130 130 l 1
 130 245 l 1
 245 245 l 1
870 870 m 1
 870 755 l 1
 755 755 l 1
 755 870 l 1
 870 870 l 1
870 995 m 1
 870 880 l 1
 755 880 l 1
 755 995 l 1
 870 995 l 1
EndSplineSet
EndChar

StartChar: uni0643
Encoding: 1603 1603 211
Width: 1000
Flags: W
LayerCount: 2
Fore
SplineSet
870 746 m 1
 870 631 l 1
 755 631 l 1
 755 746 l 1
 870 746 l 1
870 371 m 1
 870 256 l 1
 755 256 l 1
 755 371 l 1
 870 371 l 1
745 121 m 1
 745 6 l 1
 630 6 l 1
 630 121 l 1
 745 121 l 1
370 121 m 1
 370 6 l 1
 255 6 l 1
 255 121 l 1
 370 121 l 1
620 121 m 1
 620 6 l 1
 505 6 l 1
 505 121 l 1
 620 121 l 1
245 246 m 1
 245 131 l 1
 130 131 l 1
 130 246 l 1
 245 246 l 1
495 121 m 1
 495 6 l 1
 380 6 l 1
 380 121 l 1
 495 121 l 1
870 496 m 1
 870 381 l 1
 755 381 l 1
 755 496 l 1
 870 496 l 1
870 246 m 1
 870 131 l 1
 755 131 l 1
 755 246 l 1
 870 246 l 1
870 621 m 1
 870 506 l 1
 755 506 l 1
 755 621 l 1
 870 621 l 1
500 496 m 1
 500 381 l 1
 385 381 l 1
 385 496 l 1
 500 496 l 1
620 621 m 1
 620 506 l 1
 505 506 l 1
 505 621 l 1
 620 621 l 1
495 746 m 1
 495 631 l 1
 380 631 l 1
 380 746 l 1
 495 746 l 1
620 871 m 1
 620 756 l 1
 505 756 l 1
 505 871 l 1
 620 871 l 1
245 370 m 1
 245 255 l 1
 130 255 l 1
 130 370 l 1
 245 370 l 1
EndSplineSet
EndChar

StartChar: uni0644
Encoding: 1604 1604 212
Width: 875
Flags: W
LayerCount: 2
Fore
SplineSet
630 119 m 1
 745 119 l 1
 745 4 l 1
 630 4 l 1
 630 119 l 1
630 244 m 1
 745 244 l 1
 745 129 l 1
 630 129 l 1
 630 244 l 1
630 369 m 1
 745 369 l 1
 745 254 l 1
 630 254 l 1
 630 369 l 1
630 619 m 1
 745 619 l 1
 745 504 l 1
 630 504 l 1
 630 619 l 1
630 494 m 1
 745 494 l 1
 745 379 l 1
 630 379 l 1
 630 494 l 1
630 745 m 1
 745 745 l 1
 745 630 l 1
 630 630 l 1
 630 745 l 1
630 869 m 1
 745 869 l 1
 745 754 l 1
 630 754 l 1
 630 869 l 1
130 120 m 1
 245 120 l 1
 245 5 l 1
 130 5 l 1
 130 120 l 1
505 -6 m 1
 620 -6 l 1
 620 -121 l 1
 505 -121 l 1
 505 -6 l 1
380 -6 m 1
 495 -6 l 1
 495 -121 l 1
 380 -121 l 1
 380 -6 l 1
255 -6 m 1
 370 -6 l 1
 370 -121 l 1
 255 -121 l 1
 255 -6 l 1
130 245 m 1
 245 245 l 1
 245 130 l 1
 130 130 l 1
 130 245 l 1
EndSplineSet
EndChar

StartChar: uni0645
Encoding: 1605 1605 213
Width: 750
Flags: W
LayerCount: 2
Fore
SplineSet
245 245 m 1
 245 130 l 1
 130 130 l 1
 130 245 l 1
 245 245 l 1
245 120 m 1
 245 5 l 1
 130 5 l 1
 130 120 l 1
 245 120 l 1
495 370 m 1
 495 255 l 1
 380 255 l 1
 380 370 l 1
 495 370 l 1
620 495 m 1
 620 380 l 1
 505 380 l 1
 505 495 l 1
 620 495 l 1
245 -130 m 1
 245 -245 l 1
 130 -245 l 1
 130 -130 l 1
 245 -130 l 1
370 370 m 1
 370 255 l 1
 255 255 l 1
 255 370 l 1
 370 370 l 1
620 620 m 1
 620 505 l 1
 505 505 l 1
 505 620 l 1
 620 620 l 1
245 -5 m 1
 245 -120 l 1
 130 -120 l 1
 130 -5 l 1
 245 -5 l 1
495 745 m 1
 495 630 l 1
 380 630 l 1
 380 745 l 1
 495 745 l 1
370 745 m 1
 370 630 l 1
 255 630 l 1
 255 745 l 1
 370 745 l 1
EndSplineSet
EndChar

